solid hotend_sled_half_v1
facet normal 3.511147589333494e-16 2.4656926449085956e-17 -1.0
  outer loop
    vertex 3.000000000000003 9.999999999999998 -15.000000000000007
    vertex -10.0 -5.0 -15.0
    vertex -10.0 10.0 -15.0
  endloop
endfacet
facet normal 3.511147589333494e-16 2.4656926449085956e-17 -1.0
  outer loop
    vertex -10.0 -5.0 -15.0
    vertex 3.000000000000003 9.999999999999998 -15.000000000000007
    vertex 3.081273816948805 8.760001173909501 -15.000000000000007
  endloop
endfacet
facet normal 3.511147589333494e-16 2.4656926449085956e-17 -1.0
  outer loop
    vertex -10.0 -5.0 -15.0
    vertex 3.081273816948805 8.760001173909501 -15.000000000000007
    vertex 3.323704650253856 7.541219071526046 -15.000000000000007
  endloop
endfacet
facet normal 3.511147589333494e-16 2.4656926449085956e-17 -1.0
  outer loop
    vertex -10.0 -5.0 -15.0
    vertex 3.323704650253856 7.541219071526046 -15.000000000000007
    vertex 3.723144441142781 6.364507392531642 -15.000000000000007
  endloop
endfacet
facet normal 3.511147589333494e-16 2.4656926449085956e-17 -1.0
  outer loop
    vertex -10.0 -5.0 -15.0
    vertex 3.723144441142781 6.364507392531642 -15.000000000000007
    vertex 4.2727586640478386 5.2499999999999964 -15.000000000000007
  endloop
endfacet
facet normal 3.511147589333494e-16 2.4656926449085956e-17 -1.0
  outer loop
    vertex -10.0 -5.0 -15.0
    vertex 4.2727586640478386 5.2499999999999964 -15.000000000000007
    vertex 4.963143267233271 4.216766424417153 -15.000000000000007
  endloop
endfacet
facet normal 3.511147589333494e-16 2.4656926449085956e-17 -1.0
  outer loop
    vertex -10.0 -5.0 -15.0
    vertex 4.963143267233271 4.216766424417153 -15.000000000000007
    vertex 5.782485578727804 3.282485578727796 -15.000000000000007
  endloop
endfacet
facet normal 3.511147589333494e-16 2.4656926449085956e-17 -1.0
  outer loop
    vertex -10.0 -5.0 -15.0
    vertex 5.782485578727804 3.282485578727796 -15.000000000000007
    vertex 6.71676642441716 2.463143267233266 -15.000000000000007
  endloop
endfacet
facet normal 3.511147589333494e-16 2.4656926449085956e-17 -1.0
  outer loop
    vertex -10.0 -5.0 -15.0
    vertex 6.71676642441716 2.463143267233266 -15.000000000000007
    vertex 7.750000000000005 1.7727586640478334 -15.000000000000007
  endloop
endfacet
facet normal 3.511147589333494e-16 2.4656926449085956e-17 -1.0
  outer loop
    vertex -10.0 -5.0 -15.0
    vertex 7.750000000000005 1.7727586640478334 -15.000000000000007
    vertex 8.864507392531653 1.2231444411427759 -15.000000000000007
  endloop
endfacet
facet normal 3.511147589333494e-16 2.4656926449085956e-17 -1.0
  outer loop
    vertex -10.0 -5.0 -15.0
    vertex 8.864507392531653 1.2231444411427759 -15.000000000000007
    vertex 10.041219071526058 0.8237046502538521 -15.000000000000007
  endloop
endfacet
facet normal 3.511147589333494e-16 2.4656926449085956e-17 -1.0
  outer loop
    vertex -10.0 -5.0 -15.0
    vertex 10.041219071526058 0.8237046502538521 -15.000000000000007
    vertex 11.260001173909513 0.5812738169488025 -15.000000000000007
  endloop
endfacet
facet normal 3.511147589333494e-16 2.4656926449085956e-17 -1.0
  outer loop
    vertex -10.0 -5.0 -15.0
    vertex 11.260001173909513 0.5812738169488025 -15.000000000000007
    vertex 60.0 -5.0 -15.0
  endloop
endfacet
facet normal 3.511147589333494e-16 2.4656926449085956e-17 -1.0
  outer loop
    vertex 60.0 -5.0 -15.0
    vertex 11.260001173909513 0.5812738169488025 -15.000000000000007
    vertex 12.500000000000002 0.5000000000000019 -15.000000000000007
  endloop
endfacet
facet normal 3.511147589333494e-16 2.4656926449085956e-17 -1.0
  outer loop
    vertex 60.0 -5.0 -15.0
    vertex 12.500000000000002 0.5000000000000019 -15.000000000000007
    vertex 13.739998826090494 0.581273816948804 -15.000000000000007
  endloop
endfacet
facet normal 3.511147589333494e-16 2.4656926449085956e-17 -1.0
  outer loop
    vertex 60.0 -5.0 -15.0
    vertex 13.739998826090494 0.581273816948804 -15.000000000000007
    vertex 14.95878092847395 0.8237046502538535 -15.000000000000007
  endloop
endfacet
facet normal 3.511147589333494e-16 2.4656926449085956e-17 -1.0
  outer loop
    vertex 60.0 -5.0 -15.0
    vertex 14.95878092847395 0.8237046502538535 -15.000000000000007
    vertex 16.135492607468354 1.2231444411427772 -15.000000000000007
  endloop
endfacet
facet normal 3.511147589333494e-16 2.4656926449085956e-17 -1.0
  outer loop
    vertex 60.0 -5.0 -15.0
    vertex 16.135492607468354 1.2231444411427772 -15.000000000000007
    vertex 17.250000000000004 1.7727586640478363 -15.000000000000007
  endloop
endfacet
facet normal 3.511147589333494e-16 2.4656926449085956e-17 -1.0
  outer loop
    vertex 60.0 -5.0 -15.0
    vertex 17.250000000000004 1.7727586640478363 -15.000000000000007
    vertex 18.283233575582848 2.4631432672332685 -15.000000000000007
  endloop
endfacet
facet normal 3.511147589333494e-16 2.4656926449085956e-17 -1.0
  outer loop
    vertex 60.0 -5.0 -15.0
    vertex 18.283233575582848 2.4631432672332685 -15.000000000000007
    vertex 19.217514421272202 3.2824855787278002 -15.000000000000007
  endloop
endfacet
facet normal 3.511147589333494e-16 2.4656926449085956e-17 -1.0
  outer loop
    vertex 60.0 -5.0 -15.0
    vertex 19.217514421272202 3.2824855787278002 -15.000000000000007
    vertex 20.036856732766736 4.216766424417158 -15.000000000000007
  endloop
endfacet
facet normal 3.511147589333494e-16 2.4656926449085956e-17 -1.0
  outer loop
    vertex 60.0 -5.0 -15.0
    vertex 20.036856732766736 4.216766424417158 -15.000000000000007
    vertex 35.04121907152606 0.8237046502538521 -14.99999999999999
  endloop
endfacet
facet normal 3.511147589333494e-16 2.4656926449085956e-17 -1.0
  outer loop
    vertex 35.04121907152606 0.8237046502538521 -14.99999999999999
    vertex 20.036856732766736 4.216766424417158 -15.000000000000007
    vertex 20.72724133595217 5.250000000000003 -15.000000000000007
  endloop
endfacet
facet normal 3.511147589333494e-16 2.4656926449085956e-17 -1.0
  outer loop
    vertex 35.04121907152606 0.8237046502538521 -14.99999999999999
    vertex 20.72724133595217 5.250000000000003 -15.000000000000007
    vertex 33.86450739253165 1.2231444411427759 -14.99999999999999
  endloop
endfacet
facet normal 3.511147589333494e-16 2.4656926449085956e-17 -1.0
  outer loop
    vertex 33.86450739253165 1.2231444411427759 -14.99999999999999
    vertex 20.72724133595217 5.250000000000003 -15.000000000000007
    vertex 21.276855558857225 6.36450739253165 -15.000000000000007
  endloop
endfacet
facet normal 3.511147589333494e-16 2.4656926449085956e-17 -1.0
  outer loop
    vertex 33.86450739253165 1.2231444411427759 -14.99999999999999
    vertex 21.276855558857225 6.36450739253165 -15.000000000000007
    vertex 32.75 1.7727586640478334 -14.99999999999999
  endloop
endfacet
facet normal 3.511147589333494e-16 2.4656926449085956e-17 -1.0
  outer loop
    vertex 32.75 1.7727586640478334 -14.99999999999999
    vertex 21.276855558857225 6.36450739253165 -15.000000000000007
    vertex 21.676295349746148 7.541219071526055 -15.000000000000007
  endloop
endfacet
facet normal 3.511147589333494e-16 2.4656926449085956e-17 -1.0
  outer loop
    vertex 32.75 1.7727586640478334 -14.99999999999999
    vertex 21.676295349746148 7.541219071526055 -15.000000000000007
    vertex 21.9187261830512 8.760001173909513 -15.000000000000007
  endloop
endfacet
facet normal 3.511147589333494e-16 2.4656926449085956e-17 -1.0
  outer loop
    vertex 32.75 1.7727586640478334 -14.99999999999999
    vertex 21.9187261830512 8.760001173909513 -15.000000000000007
    vertex 31.716766424417155 2.463143267233266 -14.99999999999999
  endloop
endfacet
facet normal 3.511147589333494e-16 2.4656926449085956e-17 -1.0
  outer loop
    vertex 31.716766424417155 2.463143267233266 -14.99999999999999
    vertex 21.9187261830512 8.760001173909513 -15.000000000000007
    vertex 22.0 10.0 -15.000000000000007
  endloop
endfacet
facet normal 3.511147589333494e-16 2.4656926449085956e-17 -1.0
  outer loop
    vertex 31.716766424417155 2.463143267233266 -14.99999999999999
    vertex 22.0 10.0 -15.000000000000007
    vertex 30.782485578727805 3.282485578727796 -14.99999999999999
  endloop
endfacet
facet normal 3.511147589333494e-16 2.4656926449085956e-17 -1.0
  outer loop
    vertex 30.782485578727805 3.282485578727796 -14.99999999999999
    vertex 22.0 10.0 -15.000000000000007
    vertex 29.963143267233267 4.216766424417153 -14.99999999999999
  endloop
endfacet
facet normal 3.511147589333494e-16 2.4656926449085956e-17 -1.0
  outer loop
    vertex 29.963143267233267 4.216766424417153 -14.99999999999999
    vertex 22.0 10.0 -15.000000000000007
    vertex 29.272758664047835 5.2499999999999964 -14.99999999999999
  endloop
endfacet
facet normal 3.511147589333494e-16 2.4656926449085956e-17 -1.0
  outer loop
    vertex 29.272758664047835 5.2499999999999964 -14.99999999999999
    vertex 22.0 10.0 -15.000000000000007
    vertex 28.72314444114278 6.364507392531642 -14.99999999999999
  endloop
endfacet
facet normal 3.511147589333494e-16 2.4656926449085956e-17 -1.0
  outer loop
    vertex 28.72314444114278 6.364507392531642 -14.99999999999999
    vertex 22.0 10.0 -15.000000000000007
    vertex 28.323704650253855 7.541219071526046 -14.99999999999999
  endloop
endfacet
facet normal 3.511147589333494e-16 2.4656926449085956e-17 -1.0
  outer loop
    vertex 28.323704650253855 7.541219071526046 -14.99999999999999
    vertex 22.0 10.0 -15.000000000000007
    vertex 28.0812738169488 8.760001173909501 -14.99999999999999
  endloop
endfacet
facet normal 3.511147589333494e-16 2.4656926449085956e-17 -1.0
  outer loop
    vertex 28.0812738169488 8.760001173909501 -14.99999999999999
    vertex 22.0 10.0 -15.000000000000007
    vertex 28.0 9.999999999999998 -14.99999999999999
  endloop
endfacet
facet normal 3.511147589333494e-16 2.4656926449085956e-17 -1.0
  outer loop
    vertex 60.0 -5.0 -15.0
    vertex 35.04121907152606 0.8237046502538521 -14.99999999999999
    vertex 36.26000117390951 0.5812738169488025 -14.99999999999999
  endloop
endfacet
facet normal 3.511147589333494e-16 2.4656926449085956e-17 -1.0
  outer loop
    vertex 60.0 -5.0 -15.0
    vertex 36.26000117390951 0.5812738169488025 -14.99999999999999
    vertex 37.5 0.5000000000000019 -14.99999999999999
  endloop
endfacet
facet normal 3.511147589333494e-16 2.4656926449085956e-17 -1.0
  outer loop
    vertex 60.0 -5.0 -15.0
    vertex 37.5 0.5000000000000019 -14.99999999999999
    vertex 38.73999882609049 0.581273816948804 -14.99999999999999
  endloop
endfacet
facet normal 3.511147589333494e-16 2.4656926449085956e-17 -1.0
  outer loop
    vertex 60.0 -5.0 -15.0
    vertex 38.73999882609049 0.581273816948804 -14.99999999999999
    vertex 39.95878092847395 0.8237046502538535 -14.99999999999999
  endloop
endfacet
facet normal 3.511147589333494e-16 2.4656926449085956e-17 -1.0
  outer loop
    vertex 60.0 -5.0 -15.0
    vertex 39.95878092847395 0.8237046502538535 -14.99999999999999
    vertex 41.13549260746835 1.2231444411427772 -14.99999999999999
  endloop
endfacet
facet normal 3.511147589333494e-16 2.4656926449085956e-17 -1.0
  outer loop
    vertex 60.0 -5.0 -15.0
    vertex 41.13549260746835 1.2231444411427772 -14.99999999999999
    vertex 42.25 1.7727586640478363 -14.99999999999999
  endloop
endfacet
facet normal 3.511147589333494e-16 2.4656926449085956e-17 -1.0
  outer loop
    vertex 60.0 -5.0 -15.0
    vertex 42.25 1.7727586640478363 -14.99999999999999
    vertex 43.28323357558285 2.4631432672332685 -14.99999999999999
  endloop
endfacet
facet normal 3.511147589333494e-16 2.4656926449085956e-17 -1.0
  outer loop
    vertex 60.0 -5.0 -15.0
    vertex 43.28323357558285 2.4631432672332685 -14.99999999999999
    vertex 44.2175144212722 3.2824855787278002 -14.99999999999999
  endloop
endfacet
facet normal 3.511147589333494e-16 2.4656926449085956e-17 -1.0
  outer loop
    vertex 60.0 -5.0 -15.0
    vertex 44.2175144212722 3.2824855787278002 -14.99999999999999
    vertex 45.03685673276673 4.216766424417158 -14.99999999999999
  endloop
endfacet
facet normal 3.511147589333494e-16 2.4656926449085956e-17 -1.0
  outer loop
    vertex 60.0 -5.0 -15.0
    vertex 45.03685673276673 4.216766424417158 -14.99999999999999
    vertex 45.727241335952165 5.250000000000003 -14.99999999999999
  endloop
endfacet
facet normal 3.511147589333494e-16 2.4656926449085956e-17 -1.0
  outer loop
    vertex 60.0 -5.0 -15.0
    vertex 45.727241335952165 5.250000000000003 -14.99999999999999
    vertex 46.27685555885722 6.36450739253165 -14.99999999999999
  endloop
endfacet
facet normal 3.511147589333494e-16 2.4656926449085956e-17 -1.0
  outer loop
    vertex 60.0 -5.0 -15.0
    vertex 46.27685555885722 6.36450739253165 -14.99999999999999
    vertex 46.67629534974614 7.541219071526055 -14.99999999999999
  endloop
endfacet
facet normal 3.511147589333494e-16 2.4656926449085956e-17 -1.0
  outer loop
    vertex 60.0 -5.0 -15.0
    vertex 46.67629534974614 7.541219071526055 -14.99999999999999
    vertex 46.9187261830512 8.760001173909513 -14.99999999999999
  endloop
endfacet
facet normal 3.511147589333494e-16 2.4656926449085956e-17 -1.0
  outer loop
    vertex 60.0 -5.0 -15.0
    vertex 46.9187261830512 8.760001173909513 -14.99999999999999
    vertex 47.0 10.0 -14.99999999999999
  endloop
endfacet
facet normal 3.511147589333494e-16 2.4656926449085956e-17 -1.0
  outer loop
    vertex 60.0 -5.0 -15.0
    vertex 47.0 10.0 -14.99999999999999
    vertex 60.0 10.0 -15.0
  endloop
endfacet
facet normal -2.260140973526028e-31 7.486570856410053e-31 1.0
  outer loop
    vertex -10.0 -5.0 50.0
    vertex 8.864507392531653 1.2231444411427759 50.0
    vertex -10.0 10.0 50.0
  endloop
endfacet
facet normal -2.260140973526028e-31 7.486570856410053e-31 1.0
  outer loop
    vertex 8.864507392531653 1.2231444411427759 50.0
    vertex -10.0 -5.0 50.0
    vertex 25.000000000000004 -5.0 50.0
  endloop
endfacet
facet normal -2.260140973526028e-31 7.486570856410053e-31 1.0
  outer loop
    vertex -10.0 10.0 50.0
    vertex 8.864507392531653 1.2231444411427759 50.0
    vertex 7.750000000000005 1.7727586640478334 50.0
  endloop
endfacet
facet normal -2.260140973526028e-31 7.486570856410053e-31 1.0
  outer loop
    vertex -10.0 10.0 50.0
    vertex 7.750000000000005 1.7727586640478334 50.0
    vertex 6.71676642441716 2.463143267233266 50.0
  endloop
endfacet
facet normal -2.260140973526028e-31 7.486570856410053e-31 1.0
  outer loop
    vertex -10.0 10.0 50.0
    vertex 6.71676642441716 2.463143267233266 50.0
    vertex 5.782485578727804 3.282485578727796 50.0
  endloop
endfacet
facet normal -2.260140973526028e-31 7.486570856410053e-31 1.0
  outer loop
    vertex -10.0 10.0 50.0
    vertex 5.782485578727804 3.282485578727796 50.0
    vertex 4.963143267233271 4.216766424417153 50.0
  endloop
endfacet
facet normal -2.260140973526028e-31 7.486570856410053e-31 1.0
  outer loop
    vertex -10.0 10.0 50.0
    vertex 4.963143267233271 4.216766424417153 50.0
    vertex 4.2727586640478386 5.2499999999999964 50.0
  endloop
endfacet
facet normal -2.260140973526028e-31 7.486570856410053e-31 1.0
  outer loop
    vertex -10.0 10.0 50.0
    vertex 4.2727586640478386 5.2499999999999964 50.0
    vertex 3.723144441142781 6.364507392531642 50.0
  endloop
endfacet
facet normal -2.260140973526028e-31 7.486570856410053e-31 1.0
  outer loop
    vertex -10.0 10.0 50.0
    vertex 3.723144441142781 6.364507392531642 50.0
    vertex 3.323704650253856 7.541219071526046 50.0
  endloop
endfacet
facet normal -2.260140973526028e-31 7.486570856410053e-31 1.0
  outer loop
    vertex -10.0 10.0 50.0
    vertex 3.323704650253856 7.541219071526046 50.0
    vertex 3.081273816948805 8.760001173909501 50.0
  endloop
endfacet
facet normal -2.260140973526028e-31 7.486570856410053e-31 1.0
  outer loop
    vertex -10.0 10.0 50.0
    vertex 3.081273816948805 8.760001173909501 50.0
    vertex 3.000000000000003 9.999999999999998 50.0
  endloop
endfacet
facet normal -2.260140973526028e-31 7.486570856410053e-31 1.0
  outer loop
    vertex 8.864507392531653 1.2231444411427759 50.0
    vertex 25.000000000000004 -5.0 50.0
    vertex 10.041219071526058 0.8237046502538521 50.0
  endloop
endfacet
facet normal -2.260140973526028e-31 7.486570856410053e-31 1.0
  outer loop
    vertex 10.041219071526058 0.8237046502538521 50.0
    vertex 25.000000000000004 -5.0 50.0
    vertex 11.260001173909513 0.5812738169488025 50.0
  endloop
endfacet
facet normal -2.260140973526028e-31 7.486570856410053e-31 1.0
  outer loop
    vertex 11.260001173909513 0.5812738169488025 50.0
    vertex 25.000000000000004 -5.0 50.0
    vertex 12.500000000000002 0.5000000000000019 50.0
  endloop
endfacet
facet normal -2.260140973526028e-31 7.486570856410053e-31 1.0
  outer loop
    vertex 12.500000000000002 0.5000000000000019 50.0
    vertex 25.000000000000004 -5.0 50.0
    vertex 13.739998826090494 0.581273816948804 50.0
  endloop
endfacet
facet normal -2.260140973526028e-31 7.486570856410053e-31 1.0
  outer loop
    vertex 13.739998826090494 0.581273816948804 50.0
    vertex 25.000000000000004 -5.0 50.0
    vertex 14.95878092847395 0.8237046502538535 50.0
  endloop
endfacet
facet normal -2.260140973526028e-31 7.486570856410053e-31 1.0
  outer loop
    vertex 14.95878092847395 0.8237046502538535 50.0
    vertex 25.000000000000004 -5.0 50.0
    vertex 16.135492607468354 1.2231444411427772 50.0
  endloop
endfacet
facet normal -2.260140973526028e-31 7.486570856410053e-31 1.0
  outer loop
    vertex 16.135492607468354 1.2231444411427772 50.0
    vertex 25.000000000000004 -5.0 50.0
    vertex 17.250000000000004 1.7727586640478363 50.0
  endloop
endfacet
facet normal -2.260140973526028e-31 7.486570856410053e-31 1.0
  outer loop
    vertex 17.250000000000004 1.7727586640478363 50.0
    vertex 25.000000000000004 -5.0 50.0
    vertex 18.283233575582848 2.4631432672332685 50.0
  endloop
endfacet
facet normal -2.260140973526028e-31 7.486570856410053e-31 1.0
  outer loop
    vertex 18.283233575582848 2.4631432672332685 50.0
    vertex 25.000000000000004 -5.0 50.0
    vertex 19.217514421272202 3.2824855787278002 50.0
  endloop
endfacet
facet normal -2.260140973526028e-31 7.486570856410053e-31 1.0
  outer loop
    vertex 19.217514421272202 3.2824855787278002 50.0
    vertex 25.000000000000004 -5.0 50.0
    vertex 20.036856732766736 4.216766424417158 50.0
  endloop
endfacet
facet normal -2.260140973526028e-31 7.486570856410053e-31 1.0
  outer loop
    vertex 20.036856732766736 4.216766424417158 50.0
    vertex 25.000000000000004 -5.0 50.0
    vertex 20.72724133595217 5.250000000000003 50.0
  endloop
endfacet
facet normal -2.260140973526028e-31 7.486570856410053e-31 1.0
  outer loop
    vertex 20.72724133595217 5.250000000000003 50.0
    vertex 25.000000000000004 -5.0 50.0
    vertex 21.276855558857225 6.36450739253165 50.0
  endloop
endfacet
facet normal -2.260140973526028e-31 7.486570856410053e-31 1.0
  outer loop
    vertex 21.276855558857225 6.36450739253165 50.0
    vertex 25.000000000000004 -5.0 50.0
    vertex 21.676295349746148 7.541219071526055 50.0
  endloop
endfacet
facet normal -2.260140973526028e-31 7.486570856410053e-31 1.0
  outer loop
    vertex 21.676295349746148 7.541219071526055 50.0
    vertex 25.000000000000004 -5.0 50.0
    vertex 21.9187261830512 8.760001173909513 50.0
  endloop
endfacet
facet normal -2.260140973526028e-31 7.486570856410053e-31 1.0
  outer loop
    vertex 21.9187261830512 8.760001173909513 50.0
    vertex 25.000000000000004 -5.0 50.0
    vertex 22.0 10.0 50.0
  endloop
endfacet
facet normal -2.260140973526028e-31 7.486570856410053e-31 1.0
  outer loop
    vertex 22.0 10.0 50.0
    vertex 25.000000000000004 -5.0 50.0
    vertex 28.0 9.999999999999998 50.0
  endloop
endfacet
facet normal -2.260140973526028e-31 7.486570856410053e-31 1.0
  outer loop
    vertex 28.0 9.999999999999998 50.0
    vertex 25.000000000000004 -5.0 50.0
    vertex 28.0812738169488 8.760001173909501 50.0
  endloop
endfacet
facet normal -2.260140973526028e-31 7.486570856410053e-31 1.0
  outer loop
    vertex 28.0812738169488 8.760001173909501 50.0
    vertex 25.000000000000004 -5.0 50.0
    vertex 28.323704650253855 7.541219071526046 50.0
  endloop
endfacet
facet normal -2.260140973526028e-31 7.486570856410053e-31 1.0
  outer loop
    vertex 28.323704650253855 7.541219071526046 50.0
    vertex 25.000000000000004 -5.0 50.0
    vertex 28.72314444114278 6.364507392531642 50.0
  endloop
endfacet
facet normal -2.260140973526028e-31 7.486570856410053e-31 1.0
  outer loop
    vertex 28.72314444114278 6.364507392531642 50.0
    vertex 25.000000000000004 -5.0 50.0
    vertex 29.272758664047835 5.2499999999999964 50.0
  endloop
endfacet
facet normal -2.260140973526028e-31 7.486570856410053e-31 1.0
  outer loop
    vertex 29.272758664047835 5.2499999999999964 50.0
    vertex 25.000000000000004 -5.0 50.0
    vertex 29.963143267233267 4.216766424417153 50.0
  endloop
endfacet
facet normal -2.260140973526028e-31 7.486570856410053e-31 1.0
  outer loop
    vertex 29.963143267233267 4.216766424417153 50.0
    vertex 25.000000000000004 -5.0 50.0
    vertex 30.782485578727805 3.282485578727796 50.0
  endloop
endfacet
facet normal -2.260140973526028e-31 7.486570856410053e-31 1.0
  outer loop
    vertex 30.782485578727805 3.282485578727796 50.0
    vertex 25.000000000000004 -5.0 50.0
    vertex 31.716766424417155 2.463143267233266 50.0
  endloop
endfacet
facet normal -2.260140973526028e-31 7.486570856410053e-31 1.0
  outer loop
    vertex 31.716766424417155 2.463143267233266 50.0
    vertex 25.000000000000004 -5.0 50.0
    vertex 32.75 1.7727586640478334 50.0
  endloop
endfacet
facet normal -2.260140973526028e-31 7.486570856410053e-31 1.0
  outer loop
    vertex 32.75 1.7727586640478334 50.0
    vertex 25.000000000000004 -5.0 50.0
    vertex 33.86450739253165 1.2231444411427759 50.0
  endloop
endfacet
facet normal -2.260140973526028e-31 7.486570856410053e-31 1.0
  outer loop
    vertex 33.86450739253165 1.2231444411427759 50.0
    vertex 25.000000000000004 -5.0 50.0
    vertex 35.04121907152606 0.8237046502538521 50.0
  endloop
endfacet
facet normal -2.260140973526028e-31 7.486570856410053e-31 1.0
  outer loop
    vertex 35.04121907152606 0.8237046502538521 50.0
    vertex 25.000000000000004 -5.0 50.0
    vertex 60.0 -5.0 50.0
  endloop
endfacet
facet normal -2.260140973526028e-31 7.486570856410053e-31 1.0
  outer loop
    vertex 35.04121907152606 0.8237046502538521 50.0
    vertex 60.0 -5.0 50.0
    vertex 36.26000117390951 0.5812738169488025 50.0
  endloop
endfacet
facet normal -2.260140973526028e-31 7.486570856410053e-31 1.0
  outer loop
    vertex 36.26000117390951 0.5812738169488025 50.0
    vertex 60.0 -5.0 50.0
    vertex 37.5 0.5000000000000019 50.0
  endloop
endfacet
facet normal -2.260140973526028e-31 7.486570856410053e-31 1.0
  outer loop
    vertex 37.5 0.5000000000000019 50.0
    vertex 60.0 -5.0 50.0
    vertex 38.73999882609049 0.581273816948804 50.0
  endloop
endfacet
facet normal -2.260140973526028e-31 7.486570856410053e-31 1.0
  outer loop
    vertex 38.73999882609049 0.581273816948804 50.0
    vertex 60.0 -5.0 50.0
    vertex 39.95878092847395 0.8237046502538535 50.0
  endloop
endfacet
facet normal -2.260140973526028e-31 7.486570856410053e-31 1.0
  outer loop
    vertex 39.95878092847395 0.8237046502538535 50.0
    vertex 60.0 -5.0 50.0
    vertex 41.13549260746835 1.2231444411427772 50.0
  endloop
endfacet
facet normal -2.260140973526028e-31 7.486570856410053e-31 1.0
  outer loop
    vertex 41.13549260746835 1.2231444411427772 50.0
    vertex 60.0 -5.0 50.0
    vertex 42.25 1.7727586640478363 50.0
  endloop
endfacet
facet normal -2.260140973526028e-31 7.486570856410053e-31 1.0
  outer loop
    vertex 42.25 1.7727586640478363 50.0
    vertex 60.0 -5.0 50.0
    vertex 43.28323357558285 2.4631432672332685 50.0
  endloop
endfacet
facet normal -2.260140973526028e-31 7.486570856410053e-31 1.0
  outer loop
    vertex 43.28323357558285 2.4631432672332685 50.0
    vertex 60.0 -5.0 50.0
    vertex 44.2175144212722 3.2824855787278002 50.0
  endloop
endfacet
facet normal -2.260140973526028e-31 7.486570856410053e-31 1.0
  outer loop
    vertex 44.2175144212722 3.2824855787278002 50.0
    vertex 60.0 -5.0 50.0
    vertex 45.03685673276673 4.216766424417158 50.0
  endloop
endfacet
facet normal -2.260140973526028e-31 7.486570856410053e-31 1.0
  outer loop
    vertex 45.03685673276673 4.216766424417158 50.0
    vertex 60.0 -5.0 50.0
    vertex 45.727241335952165 5.250000000000003 50.0
  endloop
endfacet
facet normal -2.260140973526028e-31 7.486570856410053e-31 1.0
  outer loop
    vertex 45.727241335952165 5.250000000000003 50.0
    vertex 60.0 -5.0 50.0
    vertex 46.27685555885722 6.36450739253165 50.0
  endloop
endfacet
facet normal -2.260140973526028e-31 7.486570856410053e-31 1.0
  outer loop
    vertex 46.27685555885722 6.36450739253165 50.0
    vertex 60.0 -5.0 50.0
    vertex 46.67629534974614 7.541219071526055 50.0
  endloop
endfacet
facet normal -2.260140973526028e-31 7.486570856410053e-31 1.0
  outer loop
    vertex 46.67629534974614 7.541219071526055 50.0
    vertex 60.0 -5.0 50.0
    vertex 46.9187261830512 8.760001173909513 50.0
  endloop
endfacet
facet normal -2.260140973526028e-31 7.486570856410053e-31 1.0
  outer loop
    vertex 46.9187261830512 8.760001173909513 50.0
    vertex 60.0 -5.0 50.0
    vertex 47.0 10.0 50.0
  endloop
endfacet
facet normal -2.260140973526028e-31 7.486570856410053e-31 1.0
  outer loop
    vertex 47.0 10.0 50.0
    vertex 60.0 -5.0 50.0
    vertex 60.0 10.0 50.0
  endloop
endfacet
facet normal 1.0 -0.0 -0.0
  outer loop
    vertex 60.0 10.0 -15.0
    vertex 60.0 -5.0 17.5
    vertex 60.0 -5.0 -15.0
  endloop
endfacet
facet normal 1.0 -0.0 -0.0
  outer loop
    vertex 60.0 -5.0 17.5
    vertex 60.0 10.0 -15.0
    vertex 60.0 -5.0 50.0
  endloop
endfacet
facet normal 1.0 -0.0 -0.0
  outer loop
    vertex 60.0 -5.0 50.0
    vertex 60.0 10.0 -15.0
    vertex 60.0 10.0 50.0
  endloop
endfacet
facet normal 0.0 -1.0 0.0
  outer loop
    vertex 60.0 -5.0 17.5
    vertex -10.0 -5.0 -15.0
    vertex 60.0 -5.0 -15.0
  endloop
endfacet
facet normal 0.0 -1.0 0.0
  outer loop
    vertex -10.0 -5.0 -15.0
    vertex 60.0 -5.0 17.5
    vertex -10.0 -5.0 17.5
  endloop
endfacet
facet normal 0.0 -1.0 0.0
  outer loop
    vertex -10.0 -5.0 17.5
    vertex 60.0 -5.0 17.5
    vertex 25.000000000000004 -5.0 17.5
  endloop
endfacet
facet normal -1.0 0.0 0.0
  outer loop
    vertex -10.0 10.0 50.0
    vertex -10.0 -5.0 17.5
    vertex -10.0 -5.0 50.0
  endloop
endfacet
facet normal -1.0 0.0 0.0
  outer loop
    vertex -10.0 -5.0 17.5
    vertex -10.0 10.0 50.0
    vertex -10.0 -5.0 -15.0
  endloop
endfacet
facet normal -1.0 0.0 0.0
  outer loop
    vertex -10.0 -5.0 -15.0
    vertex -10.0 10.0 50.0
    vertex -10.0 10.0 -15.0
  endloop
endfacet
facet normal 0.9978589232386036 0.06540312923014359 -0.0
  outer loop
    vertex 3.000000000000003 9.999999999999998 -15.000000000000007
    vertex 3.081273816948805 8.760001173909501 50.0
    vertex 3.081273816948805 8.760001173909501 -15.000000000000007
  endloop
endfacet
facet normal 0.9978589232386036 0.06540312923014359 -0.0
  outer loop
    vertex 3.081273816948805 8.760001173909501 50.0
    vertex 3.000000000000003 9.999999999999998 -15.000000000000007
    vertex 3.000000000000003 9.999999999999998 50.0
  endloop
endfacet
facet normal 0.9807852804032304 0.19509032201612878 -0.0
  outer loop
    vertex 3.081273816948805 8.760001173909501 -15.000000000000007
    vertex 3.323704650253856 7.541219071526046 50.0
    vertex 3.323704650253856 7.541219071526046 -15.000000000000007
  endloop
endfacet
facet normal 0.9807852804032304 0.19509032201612878 -0.0
  outer loop
    vertex 3.323704650253856 7.541219071526046 50.0
    vertex 3.081273816948805 8.760001173909501 -15.000000000000007
    vertex 3.081273816948805 8.760001173909501 50.0
  endloop
endfacet
facet normal 0.9469301294951057 0.3214394653031619 -0.0
  outer loop
    vertex 3.323704650253856 7.541219071526046 -15.000000000000007
    vertex 3.723144441142781 6.364507392531642 50.0
    vertex 3.723144441142781 6.364507392531642 -15.000000000000007
  endloop
endfacet
facet normal 0.9469301294951057 0.3214394653031619 -0.0
  outer loop
    vertex 3.723144441142781 6.364507392531642 50.0
    vertex 3.323704650253856 7.541219071526046 -15.000000000000007
    vertex 3.323704650253856 7.541219071526046 50.0
  endloop
endfacet
facet normal 0.896872741532688 0.44228869021900186 -0.0
  outer loop
    vertex 3.723144441142781 6.364507392531642 -15.000000000000007
    vertex 4.2727586640478386 5.2499999999999964 50.0
    vertex 4.2727586640478386 5.2499999999999964 -15.000000000000007
  endloop
endfacet
facet normal 0.896872741532688 0.44228869021900186 -0.0
  outer loop
    vertex 4.2727586640478386 5.2499999999999964 50.0
    vertex 3.723144441142781 6.364507392531642 -15.000000000000007
    vertex 3.723144441142781 6.364507392531642 50.0
  endloop
endfacet
facet normal 0.8314696123025452 0.5555702330196022 -0.0
  outer loop
    vertex 4.2727586640478386 5.2499999999999964 -15.000000000000007
    vertex 4.963143267233271 4.216766424417153 50.0
    vertex 4.963143267233271 4.216766424417153 -15.000000000000007
  endloop
endfacet
facet normal 0.8314696123025452 0.5555702330196022 -0.0
  outer loop
    vertex 4.963143267233271 4.216766424417153 50.0
    vertex 4.2727586640478386 5.2499999999999964 -15.000000000000007
    vertex 4.2727586640478386 5.2499999999999964 50.0
  endloop
endfacet
facet normal 0.7518398074789774 0.659345815100069 -0.0
  outer loop
    vertex 4.963143267233271 4.216766424417153 -15.000000000000007
    vertex 5.782485578727804 3.282485578727796 50.0
    vertex 5.782485578727804 3.282485578727796 -15.000000000000007
  endloop
endfacet
facet normal 0.7518398074789774 0.659345815100069 -0.0
  outer loop
    vertex 5.782485578727804 3.282485578727796 50.0
    vertex 4.963143267233271 4.216766424417153 -15.000000000000007
    vertex 4.963143267233271 4.216766424417153 50.0
  endloop
endfacet
facet normal 0.6593458151000682 0.751839807478978 -0.0
  outer loop
    vertex 5.782485578727804 3.282485578727796 50.0
    vertex 6.71676642441716 2.463143267233266 -15.000000000000007
    vertex 5.782485578727804 3.282485578727796 -15.000000000000007
  endloop
endfacet
facet normal 0.6593458151000682 0.751839807478978 -0.0
  outer loop
    vertex 6.71676642441716 2.463143267233266 -15.000000000000007
    vertex 5.782485578727804 3.282485578727796 50.0
    vertex 6.71676642441716 2.463143267233266 50.0
  endloop
endfacet
facet normal 0.5555702330196021 0.8314696123025453 -4.966296203807931e-20
  outer loop
    vertex 6.71676642441716 2.463143267233266 50.0
    vertex 7.750000000000005 1.7727586640478334 -15.000000000000007
    vertex 6.71676642441716 2.463143267233266 -15.000000000000007
  endloop
endfacet
facet normal 0.5555702330196021 0.8314696123025453 -4.966296203807931e-20
  outer loop
    vertex 7.750000000000005 1.7727586640478334 -15.000000000000007
    vertex 6.71676642441716 2.463143267233266 50.0
    vertex 7.750000000000005 1.7727586640478334 -14.000000000000005
  endloop
endfacet
facet normal 0.5555702330196021 0.8314696123025453 -4.966296203807931e-20
  outer loop
    vertex 7.750000000000005 1.7727586640478334 -14.000000000000005
    vertex 6.71676642441716 2.463143267233266 50.0
    vertex 7.750000000000001 1.7727586640478334 15.499999999999995
  endloop
endfacet
facet normal 0.5555702330196021 0.8314696123025453 -4.966296203807931e-20
  outer loop
    vertex 7.750000000000001 1.7727586640478334 15.499999999999995
    vertex 6.71676642441716 2.463143267233266 50.0
    vertex 7.750000000000001 1.7727586640478334 19.499999999999996
  endloop
endfacet
facet normal 0.5555702330196021 0.8314696123025453 -4.966296203807931e-20
  outer loop
    vertex 7.750000000000001 1.7727586640478334 19.499999999999996
    vertex 6.71676642441716 2.463143267233266 50.0
    vertex 7.750000000000005 1.7727586640478334 49.0
  endloop
endfacet
facet normal 0.5555702330196021 0.8314696123025453 -4.966296203807931e-20
  outer loop
    vertex 7.750000000000005 1.7727586640478334 49.0
    vertex 6.71676642441716 2.463143267233266 50.0
    vertex 7.750000000000005 1.7727586640478334 50.0
  endloop
endfacet
facet normal 0.44228869021900186 0.896872741532688 6.984100036045176e-17
  outer loop
    vertex 7.750000000000001 1.7727586640478334 15.499999999999995
    vertex 8.864507392531653 1.2231444411427759 -14.000000000000005
    vertex 7.750000000000005 1.7727586640478334 -14.000000000000005
  endloop
endfacet
facet normal 0.44228869021900186 0.896872741532688 6.984100036045176e-17
  outer loop
    vertex 8.864507392531653 1.2231444411427759 -14.000000000000005
    vertex 7.750000000000001 1.7727586640478334 15.499999999999995
    vertex 8.864507392531648 1.2231444411427759 15.499999999999995
  endloop
endfacet
facet normal 0.3214394653031611 0.9469301294951058 5.728393792098123e-17
  outer loop
    vertex 8.864507392531648 1.2231444411427759 15.499999999999995
    vertex 10.041219071526058 0.8237046502538521 -14.000000000000005
    vertex 8.864507392531653 1.2231444411427759 -14.000000000000005
  endloop
endfacet
facet normal 0.3214394653031611 0.9469301294951058 5.728393792098123e-17
  outer loop
    vertex 10.041219071526058 0.8237046502538521 -14.000000000000005
    vertex 8.864507392531648 1.2231444411427759 15.499999999999995
    vertex 10.041219071526053 0.8237046502538521 15.499999999999995
  endloop
endfacet
facet normal 0.19509032201612803 0.9807852804032304 3.0806356914761706e-17
  outer loop
    vertex 10.041219071526053 0.8237046502538521 15.499999999999995
    vertex 11.260001173909513 0.5812738169488025 -14.000000000000005
    vertex 10.041219071526058 0.8237046502538521 -14.000000000000005
  endloop
endfacet
facet normal 0.19509032201612803 0.9807852804032304 3.0806356914761706e-17
  outer loop
    vertex 11.260001173909513 0.5812738169488025 -14.000000000000005
    vertex 10.041219071526053 0.8237046502538521 15.499999999999995
    vertex 11.26000117390951 0.5812738169488025 15.499999999999995
  endloop
endfacet
facet normal 0.06540312923014328 0.9978589232386036 2.819709149225668e-17
  outer loop
    vertex 11.26000117390951 0.5812738169488025 15.499999999999995
    vertex 12.500000000000002 0.5000000000000019 -14.000000000000005
    vertex 11.260001173909513 0.5812738169488025 -14.000000000000005
  endloop
endfacet
facet normal 0.06540312923014328 0.9978589232386036 2.819709149225668e-17
  outer loop
    vertex 12.500000000000002 0.5000000000000019 -14.000000000000005
    vertex 11.26000117390951 0.5812738169488025 15.499999999999995
    vertex 12.500000000000002 0.5000000000000004 15.499999999999995
  endloop
endfacet
facet normal -0.0654031292301433 0.9978589232386036 5.966413367566966e-17
  outer loop
    vertex 12.500000000000002 0.5000000000000004 15.499999999999995
    vertex 13.739998826090494 0.581273816948804 -14.000000000000005
    vertex 12.500000000000002 0.5000000000000019 -14.000000000000005
  endloop
endfacet
facet normal -0.0654031292301433 0.9978589232386036 5.966413367566966e-17
  outer loop
    vertex 13.739998826090494 0.581273816948804 -14.000000000000005
    vertex 12.500000000000002 0.5000000000000004 15.499999999999995
    vertex 13.739998826090488 0.5812738169488011 15.499999999999995
  endloop
endfacet
facet normal -0.19509032201612847 0.9807852804032304 3.9416007474513493e-17
  outer loop
    vertex 13.739998826090488 0.5812738169488011 15.499999999999995
    vertex 14.95878092847395 0.8237046502538535 -14.000000000000005
    vertex 13.739998826090494 0.581273816948804 -14.000000000000005
  endloop
endfacet
facet normal -0.19509032201612847 0.9807852804032304 3.9416007474513493e-17
  outer loop
    vertex 14.95878092847395 0.8237046502538535 -14.000000000000005
    vertex 13.739998826090488 0.5812738169488011 15.499999999999995
    vertex 14.958780928473946 0.8237046502538521 15.499999999999995
  endloop
endfacet
facet normal -0.32143946530316136 0.9469301294951058 -4.219432692177815e-19
  outer loop
    vertex 14.958780928473946 0.8237046502538521 15.499999999999995
    vertex 16.135492607468354 1.2231444411427772 -14.000000000000005
    vertex 14.95878092847395 0.8237046502538535 -14.000000000000005
  endloop
endfacet
facet normal -0.32143946530316136 0.9469301294951058 -4.219432692177815e-19
  outer loop
    vertex 16.135492607468354 1.2231444411427772 -14.000000000000005
    vertex 14.958780928473946 0.8237046502538521 15.499999999999995
    vertex 16.13549260746835 1.2231444411427759 15.499999999999995
  endloop
endfacet
facet normal -0.4422886902190015 0.8968727415326881 6.036519583239169e-19
  outer loop
    vertex 16.13549260746835 1.2231444411427759 15.499999999999995
    vertex 17.250000000000004 1.7727586640478363 -14.000000000000005
    vertex 16.135492607468354 1.2231444411427772 -14.000000000000005
  endloop
endfacet
facet normal -0.4422886902190015 0.8968727415326881 6.036519583239169e-19
  outer loop
    vertex 17.250000000000004 1.7727586640478363 -14.000000000000005
    vertex 16.13549260746835 1.2231444411427759 15.499999999999995
    vertex 17.249999999999996 1.7727586640478321 15.499999999999995
  endloop
endfacet
facet normal -0.555570233019602 0.8314696123025453 2.489936902702251e-19
  outer loop
    vertex 17.250000000000004 1.7727586640478363 -14.000000000000005
    vertex 18.283233575582848 2.4631432672332685 -15.000000000000007
    vertex 17.250000000000004 1.7727586640478363 -15.000000000000007
  endloop
endfacet
facet normal -0.555570233019602 0.8314696123025453 2.489936902702251e-19
  outer loop
    vertex 18.283233575582848 2.4631432672332685 -15.000000000000007
    vertex 17.250000000000004 1.7727586640478363 -14.000000000000005
    vertex 18.283233575582848 2.4631432672332685 50.0
  endloop
endfacet
facet normal -0.555570233019602 0.8314696123025453 2.489936902702251e-19
  outer loop
    vertex 18.283233575582848 2.4631432672332685 50.0
    vertex 17.250000000000004 1.7727586640478363 -14.000000000000005
    vertex 17.249999999999996 1.7727586640478321 15.499999999999995
  endloop
endfacet
facet normal -0.555570233019602 0.8314696123025453 2.489936902702251e-19
  outer loop
    vertex 18.283233575582848 2.4631432672332685 50.0
    vertex 17.249999999999996 1.7727586640478321 15.499999999999995
    vertex 17.249999999999996 1.7727586640478321 19.499999999999996
  endloop
endfacet
facet normal -0.555570233019602 0.8314696123025453 2.489936902702251e-19
  outer loop
    vertex 18.283233575582848 2.4631432672332685 50.0
    vertex 17.249999999999996 1.7727586640478321 19.499999999999996
    vertex 17.250000000000004 1.7727586640478363 49.0
  endloop
endfacet
facet normal -0.555570233019602 0.8314696123025453 2.489936902702251e-19
  outer loop
    vertex 18.283233575582848 2.4631432672332685 50.0
    vertex 17.250000000000004 1.7727586640478363 49.0
    vertex 17.250000000000004 1.7727586640478363 50.0
  endloop
endfacet
facet normal -0.659345815100069 0.7518398074789774 -0.0
  outer loop
    vertex 18.283233575582848 2.4631432672332685 50.0
    vertex 19.217514421272202 3.2824855787278002 -15.000000000000007
    vertex 18.283233575582848 2.4631432672332685 -15.000000000000007
  endloop
endfacet
facet normal -0.659345815100069 0.7518398074789774 -0.0
  outer loop
    vertex 19.217514421272202 3.2824855787278002 -15.000000000000007
    vertex 18.283233575582848 2.4631432672332685 50.0
    vertex 19.217514421272202 3.2824855787278002 50.0
  endloop
endfacet
facet normal -0.7518398074789774 0.659345815100069 0.0
  outer loop
    vertex 20.036856732766736 4.216766424417158 50.0
    vertex 19.217514421272202 3.2824855787278002 -15.000000000000007
    vertex 19.217514421272202 3.2824855787278002 50.0
  endloop
endfacet
facet normal -0.7518398074789774 0.659345815100069 0.0
  outer loop
    vertex 19.217514421272202 3.2824855787278002 -15.000000000000007
    vertex 20.036856732766736 4.216766424417158 50.0
    vertex 20.036856732766736 4.216766424417158 -15.000000000000007
  endloop
endfacet
facet normal -0.8314696123025451 0.5555702330196024 0.0
  outer loop
    vertex 20.72724133595217 5.250000000000003 50.0
    vertex 20.036856732766736 4.216766424417158 -15.000000000000007
    vertex 20.036856732766736 4.216766424417158 50.0
  endloop
endfacet
facet normal -0.8314696123025451 0.5555702330196024 0.0
  outer loop
    vertex 20.036856732766736 4.216766424417158 -15.000000000000007
    vertex 20.72724133595217 5.250000000000003 50.0
    vertex 20.72724133595217 5.250000000000003 -15.000000000000007
  endloop
endfacet
facet normal -0.8968727415326886 0.44228869021900086 0.0
  outer loop
    vertex 21.276855558857225 6.36450739253165 50.0
    vertex 20.72724133595217 5.250000000000003 -15.000000000000007
    vertex 20.72724133595217 5.250000000000003 50.0
  endloop
endfacet
facet normal -0.8968727415326886 0.44228869021900086 0.0
  outer loop
    vertex 20.72724133595217 5.250000000000003 -15.000000000000007
    vertex 21.276855558857225 6.36450739253165 50.0
    vertex 21.276855558857225 6.36450739253165 -15.000000000000007
  endloop
endfacet
facet normal -0.9469301294951058 0.32143946530316136 0.0
  outer loop
    vertex 21.676295349746148 7.541219071526055 50.0
    vertex 21.276855558857225 6.36450739253165 -15.000000000000007
    vertex 21.276855558857225 6.36450739253165 50.0
  endloop
endfacet
facet normal -0.9469301294951058 0.32143946530316136 0.0
  outer loop
    vertex 21.276855558857225 6.36450739253165 -15.000000000000007
    vertex 21.676295349746148 7.541219071526055 50.0
    vertex 21.676295349746148 7.541219071526055 -15.000000000000007
  endloop
endfacet
facet normal -0.9807852804032307 0.19509032201612783 0.0
  outer loop
    vertex 21.9187261830512 8.760001173909513 50.0
    vertex 21.676295349746148 7.541219071526055 -15.000000000000007
    vertex 21.676295349746148 7.541219071526055 50.0
  endloop
endfacet
facet normal -0.9807852804032307 0.19509032201612783 0.0
  outer loop
    vertex 21.676295349746148 7.541219071526055 -15.000000000000007
    vertex 21.9187261830512 8.760001173909513 50.0
    vertex 21.9187261830512 8.760001173909513 -15.000000000000007
  endloop
endfacet
facet normal -0.9978589232386036 0.06540312923014391 0.0
  outer loop
    vertex 22.0 10.0 50.0
    vertex 21.9187261830512 8.760001173909513 -15.000000000000007
    vertex 21.9187261830512 8.760001173909513 50.0
  endloop
endfacet
facet normal -0.9978589232386036 0.06540312923014391 0.0
  outer loop
    vertex 21.9187261830512 8.760001173909513 -15.000000000000007
    vertex 22.0 10.0 50.0
    vertex 22.0 10.0 -15.000000000000007
  endloop
endfacet
facet normal 0.9978589232386036 0.06540312923014356 -0.0
  outer loop
    vertex 28.0 9.999999999999998 -14.99999999999999
    vertex 28.0812738169488 8.760001173909501 50.0
    vertex 28.0812738169488 8.760001173909501 -14.99999999999999
  endloop
endfacet
facet normal 0.9978589232386036 0.06540312923014356 -0.0
  outer loop
    vertex 28.0812738169488 8.760001173909501 50.0
    vertex 28.0 9.999999999999998 -14.99999999999999
    vertex 28.0 9.999999999999998 50.0
  endloop
endfacet
facet normal 0.98078528040323 0.19509032201613025 -0.0
  outer loop
    vertex 28.0812738169488 8.760001173909501 -14.99999999999999
    vertex 28.323704650253855 7.541219071526046 50.0
    vertex 28.323704650253855 7.541219071526046 -14.99999999999999
  endloop
endfacet
facet normal 0.98078528040323 0.19509032201613025 -0.0
  outer loop
    vertex 28.323704650253855 7.541219071526046 50.0
    vertex 28.0812738169488 8.760001173909501 -14.99999999999999
    vertex 28.0812738169488 8.760001173909501 50.0
  endloop
endfacet
facet normal 0.9469301294951058 0.3214394653031611 -0.0
  outer loop
    vertex 28.323704650253855 7.541219071526046 -14.99999999999999
    vertex 28.72314444114278 6.364507392531642 50.0
    vertex 28.72314444114278 6.364507392531642 -14.99999999999999
  endloop
endfacet
facet normal 0.9469301294951058 0.3214394653031611 -0.0
  outer loop
    vertex 28.72314444114278 6.364507392531642 50.0
    vertex 28.323704650253855 7.541219071526046 -14.99999999999999
    vertex 28.323704650253855 7.541219071526046 50.0
  endloop
endfacet
facet normal 0.896872741532688 0.4422886902190021 -0.0
  outer loop
    vertex 28.72314444114278 6.364507392531642 -14.99999999999999
    vertex 29.272758664047835 5.2499999999999964 50.0
    vertex 29.272758664047835 5.2499999999999964 -14.99999999999999
  endloop
endfacet
facet normal 0.896872741532688 0.4422886902190021 -0.0
  outer loop
    vertex 29.272758664047835 5.2499999999999964 50.0
    vertex 28.72314444114278 6.364507392531642 -14.99999999999999
    vertex 28.72314444114278 6.364507392531642 50.0
  endloop
endfacet
facet normal 0.8314696123025458 0.5555702330196014 -0.0
  outer loop
    vertex 29.272758664047835 5.2499999999999964 -14.99999999999999
    vertex 29.963143267233267 4.216766424417153 50.0
    vertex 29.963143267233267 4.216766424417153 -14.99999999999999
  endloop
endfacet
facet normal 0.8314696123025458 0.5555702330196014 -0.0
  outer loop
    vertex 29.963143267233267 4.216766424417153 50.0
    vertex 29.272758664047835 5.2499999999999964 -14.99999999999999
    vertex 29.272758664047835 5.2499999999999964 50.0
  endloop
endfacet
facet normal 0.7518398074789767 0.6593458151000697 -0.0
  outer loop
    vertex 29.963143267233267 4.216766424417153 -14.99999999999999
    vertex 30.782485578727805 3.282485578727796 50.0
    vertex 30.782485578727805 3.282485578727796 -14.99999999999999
  endloop
endfacet
facet normal 0.7518398074789767 0.6593458151000697 -0.0
  outer loop
    vertex 30.782485578727805 3.282485578727796 50.0
    vertex 29.963143267233267 4.216766424417153 -14.99999999999999
    vertex 29.963143267233267 4.216766424417153 50.0
  endloop
endfacet
facet normal 0.6593458151000685 0.7518398074789777 -0.0
  outer loop
    vertex 30.782485578727805 3.282485578727796 50.0
    vertex 31.716766424417155 2.463143267233266 -14.99999999999999
    vertex 30.782485578727805 3.282485578727796 -14.99999999999999
  endloop
endfacet
facet normal 0.6593458151000685 0.7518398074789777 -0.0
  outer loop
    vertex 31.716766424417155 2.463143267233266 -14.99999999999999
    vertex 30.782485578727805 3.282485578727796 50.0
    vertex 31.716766424417155 2.463143267233266 50.0
  endloop
endfacet
facet normal 0.5555702330196021 0.8314696123025452 -1.4966776619405033e-19
  outer loop
    vertex 31.716766424417155 2.463143267233266 50.0
    vertex 32.75 1.7727586640478334 -14.99999999999999
    vertex 31.716766424417155 2.463143267233266 -14.99999999999999
  endloop
endfacet
facet normal 0.5555702330196021 0.8314696123025452 -1.4966776619405033e-19
  outer loop
    vertex 32.75 1.7727586640478334 -14.99999999999999
    vertex 31.716766424417155 2.463143267233266 50.0
    vertex 32.75 1.7727586640478334 -13.999999999999988
  endloop
endfacet
facet normal 0.5555702330196021 0.8314696123025452 -1.4966776619405033e-19
  outer loop
    vertex 32.75 1.7727586640478334 -13.999999999999988
    vertex 31.716766424417155 2.463143267233266 50.0
    vertex 32.75 1.772758664047828 15.500000000000009
  endloop
endfacet
facet normal 0.5555702330196021 0.8314696123025452 -1.4966776619405033e-19
  outer loop
    vertex 32.75 1.772758664047828 15.500000000000009
    vertex 31.716766424417155 2.463143267233266 50.0
    vertex 32.75 1.772758664047828 19.499999999999996
  endloop
endfacet
facet normal 0.5555702330196021 0.8314696123025452 -1.4966776619405033e-19
  outer loop
    vertex 32.75 1.772758664047828 19.499999999999996
    vertex 31.716766424417155 2.463143267233266 50.0
    vertex 32.75 1.7727586640478334 49.0
  endloop
endfacet
facet normal 0.5555702330196021 0.8314696123025452 -1.4966776619405033e-19
  outer loop
    vertex 32.75 1.7727586640478334 49.0
    vertex 31.716766424417155 2.463143267233266 50.0
    vertex 32.75 1.7727586640478334 50.0
  endloop
endfacet
facet normal 0.3214394653031615 0.9469301294951057 1.9064821223524916e-16
  outer loop
    vertex 33.86450739253165 1.2231444411427703 15.500000000000009
    vertex 35.04121907152606 0.8237046502538521 -13.999999999999988
    vertex 33.86450739253165 1.2231444411427759 -13.999999999999988
  endloop
endfacet
facet normal 0.3214394653031615 0.9469301294951057 1.9064821223524916e-16
  outer loop
    vertex 35.04121907152606 0.8237046502538521 -13.999999999999988
    vertex 33.86450739253165 1.2231444411427703 15.500000000000009
    vertex 35.04121907152606 0.8237046502538451 15.500000000000009
  endloop
endfacet
facet normal 0.19509032201612814 0.9807852804032304 2.1958922802237164e-16
  outer loop
    vertex 35.04121907152606 0.8237046502538451 15.500000000000009
    vertex 36.26000117390951 0.5812738169488025 -13.999999999999988
    vertex 35.04121907152606 0.8237046502538521 -13.999999999999988
  endloop
endfacet
facet normal 0.19509032201612814 0.9807852804032304 2.1958922802237164e-16
  outer loop
    vertex 36.26000117390951 0.5812738169488025 -13.999999999999988
    vertex 35.04121907152606 0.8237046502538451 15.500000000000009
    vertex 36.26000117390951 0.5812738169487955 15.500000000000009
  endloop
endfacet
facet normal 0.0654031292301432 0.9978589232386036 2.3981273637356115e-16
  outer loop
    vertex 36.26000117390951 0.5812738169487955 15.500000000000009
    vertex 37.5 0.5000000000000019 -13.999999999999988
    vertex 36.26000117390951 0.5812738169488025 -13.999999999999988
  endloop
endfacet
facet normal 0.0654031292301432 0.9978589232386036 2.3981273637356115e-16
  outer loop
    vertex 37.5 0.5000000000000019 -13.999999999999988
    vertex 36.26000117390951 0.5812738169487955 15.500000000000009
    vertex 37.50000000000001 0.49999999999999345 15.500000000000009
  endloop
endfacet
facet normal -0.0654031292301432 0.9978589232386036 2.9620691935807454e-16
  outer loop
    vertex 37.50000000000001 0.49999999999999345 15.500000000000009
    vertex 38.73999882609049 0.581273816948804 -13.999999999999988
    vertex 37.5 0.5000000000000019 -13.999999999999988
  endloop
endfacet
facet normal -0.0654031292301432 0.9978589232386036 2.9620691935807454e-16
  outer loop
    vertex 38.73999882609049 0.581273816948804 -13.999999999999988
    vertex 37.50000000000001 0.49999999999999345 15.500000000000009
    vertex 38.73999882609049 0.5812738169487941 15.500000000000009
  endloop
endfacet
facet normal -0.19509032201612828 0.9807852804032304 3.025177106565713e-16
  outer loop
    vertex 38.73999882609049 0.5812738169487941 15.500000000000009
    vertex 39.95878092847395 0.8237046502538535 -13.999999999999988
    vertex 38.73999882609049 0.581273816948804 -13.999999999999988
  endloop
endfacet
facet normal -0.19509032201612828 0.9807852804032304 3.025177106565713e-16
  outer loop
    vertex 39.95878092847395 0.8237046502538535 -13.999999999999988
    vertex 38.73999882609049 0.5812738169487941 15.500000000000009
    vertex 39.958780928473956 0.8237046502538451 15.500000000000009
  endloop
endfacet
facet normal -0.3214394653031611 0.9469301294951058 3.1148155423464685e-16
  outer loop
    vertex 39.958780928473956 0.8237046502538451 15.500000000000009
    vertex 41.13549260746835 1.2231444411427772 -13.999999999999988
    vertex 39.95878092847395 0.8237046502538535 -13.999999999999988
  endloop
endfacet
facet normal -0.3214394653031611 0.9469301294951058 3.1148155423464685e-16
  outer loop
    vertex 41.13549260746835 1.2231444411427772 -13.999999999999988
    vertex 39.958780928473956 0.8237046502538451 15.500000000000009
    vertex 41.13549260746836 1.2231444411427688 15.500000000000009
  endloop
endfacet
facet normal -0.5555702330196026 0.8314696123025449 1.0000480415596852e-19
  outer loop
    vertex 42.25 1.7727586640478363 -13.999999999999988
    vertex 43.28323357558285 2.4631432672332685 -14.99999999999999
    vertex 42.25 1.7727586640478363 -14.99999999999999
  endloop
endfacet
facet normal -0.5555702330196026 0.8314696123025449 1.0000480415596852e-19
  outer loop
    vertex 43.28323357558285 2.4631432672332685 -14.99999999999999
    vertex 42.25 1.7727586640478363 -13.999999999999988
    vertex 43.28323357558285 2.4631432672332685 50.0
  endloop
endfacet
facet normal -0.5555702330196026 0.8314696123025449 1.0000480415596852e-19
  outer loop
    vertex 43.28323357558285 2.4631432672332685 50.0
    vertex 42.25 1.7727586640478363 -13.999999999999988
    vertex 42.25000000000001 1.7727586640478266 15.500000000000009
  endloop
endfacet
facet normal -0.5555702330196026 0.8314696123025449 1.0000480415596852e-19
  outer loop
    vertex 43.28323357558285 2.4631432672332685 50.0
    vertex 42.25000000000001 1.7727586640478266 15.500000000000009
    vertex 42.25000000000001 1.7727586640478266 19.499999999999996
  endloop
endfacet
facet normal -0.5555702330196026 0.8314696123025449 1.0000480415596852e-19
  outer loop
    vertex 43.28323357558285 2.4631432672332685 50.0
    vertex 42.25000000000001 1.7727586640478266 19.499999999999996
    vertex 42.25 1.7727586640478363 49.0
  endloop
endfacet
facet normal -0.5555702330196026 0.8314696123025449 1.0000480415596852e-19
  outer loop
    vertex 43.28323357558285 2.4631432672332685 50.0
    vertex 42.25 1.7727586640478363 49.0
    vertex 42.25 1.7727586640478363 50.0
  endloop
endfacet
facet normal -0.6593458151000697 0.7518398074789766 -0.0
  outer loop
    vertex 43.28323357558285 2.4631432672332685 50.0
    vertex 44.2175144212722 3.2824855787278002 -14.99999999999999
    vertex 43.28323357558285 2.4631432672332685 -14.99999999999999
  endloop
endfacet
facet normal -0.6593458151000697 0.7518398074789766 -0.0
  outer loop
    vertex 44.2175144212722 3.2824855787278002 -14.99999999999999
    vertex 43.28323357558285 2.4631432672332685 50.0
    vertex 44.2175144212722 3.2824855787278002 50.0
  endloop
endfacet
facet normal -0.7518398074789776 0.6593458151000687 0.0
  outer loop
    vertex 45.03685673276673 4.216766424417158 50.0
    vertex 44.2175144212722 3.2824855787278002 -14.99999999999999
    vertex 44.2175144212722 3.2824855787278002 50.0
  endloop
endfacet
facet normal -0.7518398074789776 0.6593458151000687 0.0
  outer loop
    vertex 44.2175144212722 3.2824855787278002 -14.99999999999999
    vertex 45.03685673276673 4.216766424417158 50.0
    vertex 45.03685673276673 4.216766424417158 -14.99999999999999
  endloop
endfacet
facet normal -0.831469612302546 0.5555702330196013 0.0
  outer loop
    vertex 45.727241335952165 5.250000000000003 50.0
    vertex 45.03685673276673 4.216766424417158 -14.99999999999999
    vertex 45.03685673276673 4.216766424417158 50.0
  endloop
endfacet
facet normal -0.831469612302546 0.5555702330196013 0.0
  outer loop
    vertex 45.03685673276673 4.216766424417158 -14.99999999999999
    vertex 45.727241335952165 5.250000000000003 50.0
    vertex 45.727241335952165 5.250000000000003 -14.99999999999999
  endloop
endfacet
facet normal -0.8968727415326884 0.4422886902190012 0.0
  outer loop
    vertex 46.27685555885722 6.36450739253165 50.0
    vertex 45.727241335952165 5.250000000000003 -14.99999999999999
    vertex 45.727241335952165 5.250000000000003 50.0
  endloop
endfacet
facet normal -0.8968727415326884 0.4422886902190012 0.0
  outer loop
    vertex 45.727241335952165 5.250000000000003 -14.99999999999999
    vertex 46.27685555885722 6.36450739253165 50.0
    vertex 46.27685555885722 6.36450739253165 -14.99999999999999
  endloop
endfacet
facet normal -0.9469301294951057 0.32143946530316136 0.0
  outer loop
    vertex 46.67629534974614 7.541219071526055 50.0
    vertex 46.27685555885722 6.36450739253165 -14.99999999999999
    vertex 46.27685555885722 6.36450739253165 50.0
  endloop
endfacet
facet normal -0.9469301294951057 0.32143946530316136 0.0
  outer loop
    vertex 46.27685555885722 6.36450739253165 -14.99999999999999
    vertex 46.67629534974614 7.541219071526055 50.0
    vertex 46.67629534974614 7.541219071526055 -14.99999999999999
  endloop
endfacet
facet normal -0.9807852804032302 0.19509032201612997 0.0
  outer loop
    vertex 46.9187261830512 8.760001173909513 50.0
    vertex 46.67629534974614 7.541219071526055 -14.99999999999999
    vertex 46.67629534974614 7.541219071526055 50.0
  endloop
endfacet
facet normal -0.9807852804032302 0.19509032201612997 0.0
  outer loop
    vertex 46.67629534974614 7.541219071526055 -14.99999999999999
    vertex 46.9187261830512 8.760001173909513 50.0
    vertex 46.9187261830512 8.760001173909513 -14.99999999999999
  endloop
endfacet
facet normal -0.9978589232386036 0.0654031292301439 0.0
  outer loop
    vertex 47.0 10.0 50.0
    vertex 46.9187261830512 8.760001173909513 -14.99999999999999
    vertex 46.9187261830512 8.760001173909513 50.0
  endloop
endfacet
facet normal -0.9978589232386036 0.0654031292301439 0.0
  outer loop
    vertex 46.9187261830512 8.760001173909513 -14.99999999999999
    vertex 47.0 10.0 50.0
    vertex 47.0 10.0 -14.99999999999999
  endloop
endfacet
facet normal -7.230683288584341e-17 1.0 1.5347007046800522e-33
  outer loop
    vertex 47.0 10.0 -14.99999999999999
    vertex 60.0 10.0 50.0
    vertex 60.0 10.0 -15.0
  endloop
endfacet
facet normal -7.230683288584341e-17 1.0 1.5347007046800522e-33
  outer loop
    vertex 60.0 10.0 50.0
    vertex 47.0 10.0 -14.99999999999999
    vertex 47.0 10.0 50.0
  endloop
endfacet
facet normal 1.0846024932876525e-16 1.0 3.3300109629850065e-34
  outer loop
    vertex -10.0 10.0 -15.0
    vertex 3.000000000000003 9.999999999999998 50.0
    vertex 3.000000000000003 9.999999999999998 -15.000000000000007
  endloop
endfacet
facet normal 1.0846024932876525e-16 1.0 3.3300109629850065e-34
  outer loop
    vertex 3.000000000000003 9.999999999999998 50.0
    vertex -10.0 10.0 -15.0
    vertex -10.0 10.0 50.0
  endloop
endfacet
facet normal 0.0 -1.0 0.0
  outer loop
    vertex 60.0 -5.0 50.0
    vertex 25.000000000000004 -5.0 17.5
    vertex 60.0 -5.0 17.5
  endloop
endfacet
facet normal 0.0 -1.0 0.0
  outer loop
    vertex 25.000000000000004 -5.0 17.5
    vertex 60.0 -5.0 50.0
    vertex 25.000000000000004 -5.0 50.0
  endloop
endfacet
facet normal 0.0 -1.0 0.0
  outer loop
    vertex 25.000000000000004 -5.0 50.0
    vertex -10.0 -5.0 17.5
    vertex 25.000000000000004 -5.0 17.5
  endloop
endfacet
facet normal 0.0 -1.0 0.0
  outer loop
    vertex -10.0 -5.0 17.5
    vertex 25.000000000000004 -5.0 50.0
    vertex -10.0 -5.0 50.0
  endloop
endfacet
facet normal -0.0 -0.0 1.0
  outer loop
    vertex 8.864507392531653 1.2231444411427759 50.0
    vertex 17.250000000000004 1.7727586640478363 50.0
    vertex 7.750000000000005 1.7727586640478334 50.0
  endloop
endfacet
facet normal -0.0 -0.0 1.0
  outer loop
    vertex 17.250000000000004 1.7727586640478363 50.0
    vertex 8.864507392531653 1.2231444411427759 50.0
    vertex 10.041219071526058 0.8237046502538521 50.0
  endloop
endfacet
facet normal -0.0 -0.0 1.0
  outer loop
    vertex 17.250000000000004 1.7727586640478363 50.0
    vertex 10.041219071526058 0.8237046502538521 50.0
    vertex 11.260001173909513 0.5812738169488025 50.0
  endloop
endfacet
facet normal -0.0 -0.0 1.0
  outer loop
    vertex 17.250000000000004 1.7727586640478363 50.0
    vertex 11.260001173909513 0.5812738169488025 50.0
    vertex 12.500000000000002 0.5000000000000019 50.0
  endloop
endfacet
facet normal -0.0 -0.0 1.0
  outer loop
    vertex 17.250000000000004 1.7727586640478363 50.0
    vertex 12.500000000000002 0.5000000000000019 50.0
    vertex 13.739998826090494 0.581273816948804 50.0
  endloop
endfacet
facet normal -0.0 -0.0 1.0
  outer loop
    vertex 17.250000000000004 1.7727586640478363 50.0
    vertex 13.739998826090494 0.581273816948804 50.0
    vertex 14.95878092847395 0.8237046502538535 50.0
  endloop
endfacet
facet normal -0.0 -0.0 1.0
  outer loop
    vertex 17.250000000000004 1.7727586640478363 50.0
    vertex 14.95878092847395 0.8237046502538535 50.0
    vertex 16.135492607468354 1.2231444411427772 50.0
  endloop
endfacet
facet normal -0.0 -0.0 1.0
  outer loop
    vertex 33.86450739253165 1.2231444411427759 50.0
    vertex 42.25 1.7727586640478363 50.0
    vertex 32.75 1.7727586640478334 50.0
  endloop
endfacet
facet normal -0.0 -0.0 1.0
  outer loop
    vertex 42.25 1.7727586640478363 50.0
    vertex 33.86450739253165 1.2231444411427759 50.0
    vertex 35.04121907152606 0.8237046502538521 50.0
  endloop
endfacet
facet normal -0.0 -0.0 1.0
  outer loop
    vertex 42.25 1.7727586640478363 50.0
    vertex 35.04121907152606 0.8237046502538521 50.0
    vertex 36.26000117390951 0.5812738169488025 50.0
  endloop
endfacet
facet normal -0.0 -0.0 1.0
  outer loop
    vertex 42.25 1.7727586640478363 50.0
    vertex 36.26000117390951 0.5812738169488025 50.0
    vertex 37.5 0.5000000000000019 50.0
  endloop
endfacet
facet normal -0.0 -0.0 1.0
  outer loop
    vertex 42.25 1.7727586640478363 50.0
    vertex 37.5 0.5000000000000019 50.0
    vertex 38.73999882609049 0.581273816948804 50.0
  endloop
endfacet
facet normal -0.0 -0.0 1.0
  outer loop
    vertex 42.25 1.7727586640478363 50.0
    vertex 38.73999882609049 0.581273816948804 50.0
    vertex 39.95878092847395 0.8237046502538535 50.0
  endloop
endfacet
facet normal -0.0 -0.0 1.0
  outer loop
    vertex 42.25 1.7727586640478363 50.0
    vertex 39.95878092847395 0.8237046502538535 50.0
    vertex 41.13549260746835 1.2231444411427772 50.0
  endloop
endfacet
facet normal -0.0 1.0 -0.0
  outer loop
    vertex 22.0 10.0 50.0
    vertex 28.0 9.999999999999998 -14.99999999999999
    vertex 22.0 10.0 -15.000000000000007
  endloop
endfacet
facet normal -0.0 1.0 -0.0
  outer loop
    vertex 28.0 9.999999999999998 -14.99999999999999
    vertex 22.0 10.0 50.0
    vertex 28.0 9.999999999999998 50.0
  endloop
endfacet
facet normal 0.0 0.0 -1.0
  outer loop
    vertex 17.250000000000004 1.7727586640478363 49.0
    vertex 8.864507392531653 1.2231444411427759 49.0
    vertex 7.750000000000005 1.7727586640478334 49.0
  endloop
endfacet
facet normal 0.0 0.0 -1.0
  outer loop
    vertex 8.864507392531653 1.2231444411427759 49.0
    vertex 17.250000000000004 1.7727586640478363 49.0
    vertex 10.041219071526058 0.8237046502538521 49.0
  endloop
endfacet
facet normal 0.0 0.0 -1.0
  outer loop
    vertex 10.041219071526058 0.8237046502538521 49.0
    vertex 17.250000000000004 1.7727586640478363 49.0
    vertex 11.260001173909513 0.5812738169488025 49.0
  endloop
endfacet
facet normal 0.0 0.0 -1.0
  outer loop
    vertex 11.260001173909513 0.5812738169488025 49.0
    vertex 17.250000000000004 1.7727586640478363 49.0
    vertex 12.500000000000002 0.5000000000000019 49.0
  endloop
endfacet
facet normal 0.0 0.0 -1.0
  outer loop
    vertex 12.500000000000002 0.5000000000000019 49.0
    vertex 17.250000000000004 1.7727586640478363 49.0
    vertex 13.739998826090494 0.581273816948804 49.0
  endloop
endfacet
facet normal 0.0 0.0 -1.0
  outer loop
    vertex 13.739998826090494 0.581273816948804 49.0
    vertex 17.250000000000004 1.7727586640478363 49.0
    vertex 14.95878092847395 0.8237046502538535 49.0
  endloop
endfacet
facet normal 0.0 0.0 -1.0
  outer loop
    vertex 14.95878092847395 0.8237046502538535 49.0
    vertex 17.250000000000004 1.7727586640478363 49.0
    vertex 16.135492607468354 1.2231444411427772 49.0
  endloop
endfacet
facet normal -2.968385771103051e-16 1.0 -0.0
  outer loop
    vertex 7.750000000000005 1.7727586640478334 50.0
    vertex 17.250000000000004 1.7727586640478363 49.0
    vertex 7.750000000000005 1.7727586640478334 49.0
  endloop
endfacet
facet normal -2.968385771103051e-16 1.0 -0.0
  outer loop
    vertex 17.250000000000004 1.7727586640478363 49.0
    vertex 7.750000000000005 1.7727586640478334 50.0
    vertex 17.250000000000004 1.7727586640478363 50.0
  endloop
endfacet
facet normal 0.0 0.0 -1.0
  outer loop
    vertex 42.25 1.7727586640478363 49.0
    vertex 33.86450739253165 1.2231444411427759 49.0
    vertex 32.75 1.7727586640478334 49.0
  endloop
endfacet
facet normal 0.0 0.0 -1.0
  outer loop
    vertex 33.86450739253165 1.2231444411427759 49.0
    vertex 42.25 1.7727586640478363 49.0
    vertex 35.04121907152606 0.8237046502538521 49.0
  endloop
endfacet
facet normal 0.0 0.0 -1.0
  outer loop
    vertex 35.04121907152606 0.8237046502538521 49.0
    vertex 42.25 1.7727586640478363 49.0
    vertex 36.26000117390951 0.5812738169488025 49.0
  endloop
endfacet
facet normal 0.0 0.0 -1.0
  outer loop
    vertex 36.26000117390951 0.5812738169488025 49.0
    vertex 42.25 1.7727586640478363 49.0
    vertex 37.5 0.5000000000000019 49.0
  endloop
endfacet
facet normal 0.0 0.0 -1.0
  outer loop
    vertex 37.5 0.5000000000000019 49.0
    vertex 42.25 1.7727586640478363 49.0
    vertex 38.73999882609049 0.581273816948804 49.0
  endloop
endfacet
facet normal 0.0 0.0 -1.0
  outer loop
    vertex 38.73999882609049 0.581273816948804 49.0
    vertex 42.25 1.7727586640478363 49.0
    vertex 39.95878092847395 0.8237046502538535 49.0
  endloop
endfacet
facet normal 0.0 0.0 -1.0
  outer loop
    vertex 39.95878092847395 0.8237046502538535 49.0
    vertex 42.25 1.7727586640478363 49.0
    vertex 41.13549260746835 1.2231444411427772 49.0
  endloop
endfacet
facet normal -2.96838577110305e-16 1.0 -0.0
  outer loop
    vertex 32.75 1.7727586640478334 50.0
    vertex 42.25 1.7727586640478363 49.0
    vertex 32.75 1.7727586640478334 49.0
  endloop
endfacet
facet normal -2.96838577110305e-16 1.0 -0.0
  outer loop
    vertex 42.25 1.7727586640478363 49.0
    vertex 32.75 1.7727586640478334 50.0
    vertex 42.25 1.7727586640478363 50.0
  endloop
endfacet
facet normal 0.0 0.0 -1.0
  outer loop
    vertex 17.250000000000004 1.7727586640478363 -15.000000000000007
    vertex 8.864507392531653 1.2231444411427759 -15.000000000000007
    vertex 7.750000000000005 1.7727586640478334 -15.000000000000007
  endloop
endfacet
facet normal 0.0 0.0 -1.0
  outer loop
    vertex 8.864507392531653 1.2231444411427759 -15.000000000000007
    vertex 17.250000000000004 1.7727586640478363 -15.000000000000007
    vertex 10.041219071526058 0.8237046502538521 -15.000000000000007
  endloop
endfacet
facet normal 0.0 0.0 -1.0
  outer loop
    vertex 10.041219071526058 0.8237046502538521 -15.000000000000007
    vertex 17.250000000000004 1.7727586640478363 -15.000000000000007
    vertex 11.260001173909513 0.5812738169488025 -15.000000000000007
  endloop
endfacet
facet normal 0.0 0.0 -1.0
  outer loop
    vertex 11.260001173909513 0.5812738169488025 -15.000000000000007
    vertex 17.250000000000004 1.7727586640478363 -15.000000000000007
    vertex 12.500000000000002 0.5000000000000019 -15.000000000000007
  endloop
endfacet
facet normal 0.0 0.0 -1.0
  outer loop
    vertex 12.500000000000002 0.5000000000000019 -15.000000000000007
    vertex 17.250000000000004 1.7727586640478363 -15.000000000000007
    vertex 13.739998826090494 0.581273816948804 -15.000000000000007
  endloop
endfacet
facet normal 0.0 0.0 -1.0
  outer loop
    vertex 13.739998826090494 0.581273816948804 -15.000000000000007
    vertex 17.250000000000004 1.7727586640478363 -15.000000000000007
    vertex 14.95878092847395 0.8237046502538535 -15.000000000000007
  endloop
endfacet
facet normal 0.0 0.0 -1.0
  outer loop
    vertex 14.95878092847395 0.8237046502538535 -15.000000000000007
    vertex 17.250000000000004 1.7727586640478363 -15.000000000000007
    vertex 16.135492607468354 1.2231444411427772 -15.000000000000007
  endloop
endfacet
facet normal -0.0 -0.0 1.0
  outer loop
    vertex 8.864507392531653 1.2231444411427759 -14.000000000000005
    vertex 17.250000000000004 1.7727586640478363 -14.000000000000005
    vertex 7.750000000000005 1.7727586640478334 -14.000000000000005
  endloop
endfacet
facet normal -0.0 -0.0 1.0
  outer loop
    vertex 17.250000000000004 1.7727586640478363 -14.000000000000005
    vertex 8.864507392531653 1.2231444411427759 -14.000000000000005
    vertex 10.041219071526058 0.8237046502538521 -14.000000000000005
  endloop
endfacet
facet normal -0.0 -0.0 1.0
  outer loop
    vertex 17.250000000000004 1.7727586640478363 -14.000000000000005
    vertex 10.041219071526058 0.8237046502538521 -14.000000000000005
    vertex 11.260001173909513 0.5812738169488025 -14.000000000000005
  endloop
endfacet
facet normal -0.0 -0.0 1.0
  outer loop
    vertex 17.250000000000004 1.7727586640478363 -14.000000000000005
    vertex 11.260001173909513 0.5812738169488025 -14.000000000000005
    vertex 12.500000000000002 0.5000000000000019 -14.000000000000005
  endloop
endfacet
facet normal -0.0 -0.0 1.0
  outer loop
    vertex 17.250000000000004 1.7727586640478363 -14.000000000000005
    vertex 12.500000000000002 0.5000000000000019 -14.000000000000005
    vertex 13.739998826090494 0.581273816948804 -14.000000000000005
  endloop
endfacet
facet normal -0.0 -0.0 1.0
  outer loop
    vertex 17.250000000000004 1.7727586640478363 -14.000000000000005
    vertex 13.739998826090494 0.581273816948804 -14.000000000000005
    vertex 14.95878092847395 0.8237046502538535 -14.000000000000005
  endloop
endfacet
facet normal -0.0 -0.0 1.0
  outer loop
    vertex 17.250000000000004 1.7727586640478363 -14.000000000000005
    vertex 14.95878092847395 0.8237046502538535 -14.000000000000005
    vertex 16.135492607468354 1.2231444411427772 -14.000000000000005
  endloop
endfacet
facet normal -2.968385771103051e-16 1.0 -0.0
  outer loop
    vertex 7.750000000000005 1.7727586640478334 -14.000000000000005
    vertex 17.250000000000004 1.7727586640478363 -15.000000000000007
    vertex 7.750000000000005 1.7727586640478334 -15.000000000000007
  endloop
endfacet
facet normal -2.968385771103051e-16 1.0 -0.0
  outer loop
    vertex 17.250000000000004 1.7727586640478363 -15.000000000000007
    vertex 7.750000000000005 1.7727586640478334 -14.000000000000005
    vertex 17.250000000000004 1.7727586640478363 -14.000000000000005
  endloop
endfacet
facet normal 0.0 0.0 -1.0
  outer loop
    vertex 42.25 1.7727586640478363 -14.99999999999999
    vertex 33.86450739253165 1.2231444411427759 -14.99999999999999
    vertex 32.75 1.7727586640478334 -14.99999999999999
  endloop
endfacet
facet normal 0.0 0.0 -1.0
  outer loop
    vertex 33.86450739253165 1.2231444411427759 -14.99999999999999
    vertex 42.25 1.7727586640478363 -14.99999999999999
    vertex 35.04121907152606 0.8237046502538521 -14.99999999999999
  endloop
endfacet
facet normal 0.0 0.0 -1.0
  outer loop
    vertex 35.04121907152606 0.8237046502538521 -14.99999999999999
    vertex 42.25 1.7727586640478363 -14.99999999999999
    vertex 36.26000117390951 0.5812738169488025 -14.99999999999999
  endloop
endfacet
facet normal 0.0 0.0 -1.0
  outer loop
    vertex 36.26000117390951 0.5812738169488025 -14.99999999999999
    vertex 42.25 1.7727586640478363 -14.99999999999999
    vertex 37.5 0.5000000000000019 -14.99999999999999
  endloop
endfacet
facet normal 0.0 0.0 -1.0
  outer loop
    vertex 37.5 0.5000000000000019 -14.99999999999999
    vertex 42.25 1.7727586640478363 -14.99999999999999
    vertex 38.73999882609049 0.581273816948804 -14.99999999999999
  endloop
endfacet
facet normal 0.0 0.0 -1.0
  outer loop
    vertex 38.73999882609049 0.581273816948804 -14.99999999999999
    vertex 42.25 1.7727586640478363 -14.99999999999999
    vertex 39.95878092847395 0.8237046502538535 -14.99999999999999
  endloop
endfacet
facet normal 0.0 0.0 -1.0
  outer loop
    vertex 39.95878092847395 0.8237046502538535 -14.99999999999999
    vertex 42.25 1.7727586640478363 -14.99999999999999
    vertex 41.13549260746835 1.2231444411427772 -14.99999999999999
  endloop
endfacet
facet normal -0.0 -0.0 1.0
  outer loop
    vertex 33.86450739253165 1.2231444411427759 -13.999999999999988
    vertex 42.25 1.7727586640478363 -13.999999999999988
    vertex 32.75 1.7727586640478334 -13.999999999999988
  endloop
endfacet
facet normal -0.0 -0.0 1.0
  outer loop
    vertex 42.25 1.7727586640478363 -13.999999999999988
    vertex 33.86450739253165 1.2231444411427759 -13.999999999999988
    vertex 35.04121907152606 0.8237046502538521 -13.999999999999988
  endloop
endfacet
facet normal -0.0 -0.0 1.0
  outer loop
    vertex 42.25 1.7727586640478363 -13.999999999999988
    vertex 35.04121907152606 0.8237046502538521 -13.999999999999988
    vertex 36.26000117390951 0.5812738169488025 -13.999999999999988
  endloop
endfacet
facet normal -0.0 -0.0 1.0
  outer loop
    vertex 42.25 1.7727586640478363 -13.999999999999988
    vertex 36.26000117390951 0.5812738169488025 -13.999999999999988
    vertex 37.5 0.5000000000000019 -13.999999999999988
  endloop
endfacet
facet normal -0.0 -0.0 1.0
  outer loop
    vertex 42.25 1.7727586640478363 -13.999999999999988
    vertex 37.5 0.5000000000000019 -13.999999999999988
    vertex 38.73999882609049 0.581273816948804 -13.999999999999988
  endloop
endfacet
facet normal -0.0 -0.0 1.0
  outer loop
    vertex 42.25 1.7727586640478363 -13.999999999999988
    vertex 38.73999882609049 0.581273816948804 -13.999999999999988
    vertex 39.95878092847395 0.8237046502538535 -13.999999999999988
  endloop
endfacet
facet normal -0.0 -0.0 1.0
  outer loop
    vertex 42.25 1.7727586640478363 -13.999999999999988
    vertex 39.95878092847395 0.8237046502538535 -13.999999999999988
    vertex 41.13549260746835 1.2231444411427772 -13.999999999999988
  endloop
endfacet
facet normal -2.9683857711030505e-16 1.0 4.721045974093841e-45
  outer loop
    vertex 32.75 1.7727586640478334 -13.999999999999988
    vertex 42.25 1.7727586640478363 -14.99999999999999
    vertex 32.75 1.7727586640478334 -14.99999999999999
  endloop
endfacet
facet normal -2.9683857711030505e-16 1.0 4.721045974093841e-45
  outer loop
    vertex 42.25 1.7727586640478363 -14.99999999999999
    vertex 32.75 1.7727586640478334 -13.999999999999988
    vertex 42.25 1.7727586640478363 -13.999999999999988
  endloop
endfacet
facet normal -0.4422886902190019 0.896872741532688 3.408102361364827e-16
  outer loop
    vertex 41.13549260746836 1.2231444411427688 15.500000000000009
    vertex 42.25 1.7727586640478363 -13.999999999999988
    vertex 41.13549260746835 1.2231444411427772 -13.999999999999988
  endloop
endfacet
facet normal -0.4422886902190019 0.896872741532688 3.408102361364827e-16
  outer loop
    vertex 42.25 1.7727586640478363 -13.999999999999988
    vertex 41.13549260746836 1.2231444411427688 15.500000000000009
    vertex 42.25000000000001 1.7727586640478266 15.500000000000009
  endloop
endfacet
facet normal 0.4422886902190015 0.8968727415326881 1.5983227946364283e-16
  outer loop
    vertex 32.75 1.772758664047828 15.500000000000009
    vertex 33.86450739253165 1.2231444411427759 -13.999999999999988
    vertex 32.75 1.7727586640478334 -13.999999999999988
  endloop
endfacet
facet normal 0.4422886902190015 0.8968727415326881 1.5983227946364283e-16
  outer loop
    vertex 33.86450739253165 1.2231444411427759 -13.999999999999988
    vertex 32.75 1.772758664047828 15.500000000000009
    vertex 33.86450739253165 1.2231444411427703 15.500000000000009
  endloop
endfacet
facet normal -0.0 -0.0 -1.0
  outer loop
    vertex 42.25000000000001 1.7727586640478266 15.500000000000009
    vertex 33.86450739253165 1.2231444411427703 15.500000000000009
    vertex 32.75 1.772758664047828 15.500000000000009
  endloop
endfacet
facet normal -0.0 -0.0 -1.0
  outer loop
    vertex 33.86450739253165 1.2231444411427703 15.500000000000009
    vertex 42.25000000000001 1.7727586640478266 15.500000000000009
    vertex 35.04121907152606 0.8237046502538451 15.500000000000009
  endloop
endfacet
facet normal -0.0 -0.0 -1.0
  outer loop
    vertex 35.04121907152606 0.8237046502538451 15.500000000000009
    vertex 42.25000000000001 1.7727586640478266 15.500000000000009
    vertex 36.26000117390951 0.5812738169487955 15.500000000000009
  endloop
endfacet
facet normal -0.0 -0.0 -1.0
  outer loop
    vertex 36.26000117390951 0.5812738169487955 15.500000000000009
    vertex 42.25000000000001 1.7727586640478266 15.500000000000009
    vertex 37.50000000000001 0.49999999999999345 15.500000000000009
  endloop
endfacet
facet normal -0.0 -0.0 -1.0
  outer loop
    vertex 37.50000000000001 0.49999999999999345 15.500000000000009
    vertex 42.25000000000001 1.7727586640478266 15.500000000000009
    vertex 38.73999882609049 0.5812738169487941 15.500000000000009
  endloop
endfacet
facet normal -0.0 -0.0 -1.0
  outer loop
    vertex 38.73999882609049 0.5812738169487941 15.500000000000009
    vertex 42.25000000000001 1.7727586640478266 15.500000000000009
    vertex 39.958780928473956 0.8237046502538451 15.500000000000009
  endloop
endfacet
facet normal -0.0 -0.0 -1.0
  outer loop
    vertex 39.958780928473956 0.8237046502538451 15.500000000000009
    vertex 42.25000000000001 1.7727586640478266 15.500000000000009
    vertex 41.13549260746836 1.2231444411427688 15.500000000000009
  endloop
endfacet
facet normal 1.484192885551524e-16 1.0 -0.0
  outer loop
    vertex 32.75 1.772758664047828 19.499999999999996
    vertex 42.25000000000001 1.7727586640478266 15.500000000000009
    vertex 32.75 1.772758664047828 15.500000000000009
  endloop
endfacet
facet normal 1.484192885551524e-16 1.0 -0.0
  outer loop
    vertex 42.25000000000001 1.7727586640478266 15.500000000000009
    vertex 32.75 1.772758664047828 19.499999999999996
    vertex 42.25000000000001 1.7727586640478266 19.499999999999996
  endloop
endfacet
facet normal -0.0 -0.0 1.0
  outer loop
    vertex 33.86450739253165 1.2231444411427703 19.499999999999996
    vertex 42.25000000000001 1.7727586640478266 19.499999999999996
    vertex 32.75 1.772758664047828 19.499999999999996
  endloop
endfacet
facet normal -0.0 -0.0 1.0
  outer loop
    vertex 42.25000000000001 1.7727586640478266 19.499999999999996
    vertex 33.86450739253165 1.2231444411427703 19.499999999999996
    vertex 35.04121907152606 0.8237046502538451 19.499999999999996
  endloop
endfacet
facet normal -0.0 -0.0 1.0
  outer loop
    vertex 42.25000000000001 1.7727586640478266 19.499999999999996
    vertex 35.04121907152606 0.8237046502538451 19.499999999999996
    vertex 36.26000117390951 0.5812738169487955 19.499999999999996
  endloop
endfacet
facet normal -0.0 -0.0 1.0
  outer loop
    vertex 42.25000000000001 1.7727586640478266 19.499999999999996
    vertex 36.26000117390951 0.5812738169487955 19.499999999999996
    vertex 37.50000000000001 0.49999999999999345 19.499999999999996
  endloop
endfacet
facet normal -0.0 -0.0 1.0
  outer loop
    vertex 42.25000000000001 1.7727586640478266 19.499999999999996
    vertex 37.50000000000001 0.49999999999999345 19.499999999999996
    vertex 38.73999882609049 0.5812738169487941 19.499999999999996
  endloop
endfacet
facet normal -0.0 -0.0 1.0
  outer loop
    vertex 42.25000000000001 1.7727586640478266 19.499999999999996
    vertex 38.73999882609049 0.5812738169487941 19.499999999999996
    vertex 39.958780928473956 0.8237046502538451 19.499999999999996
  endloop
endfacet
facet normal -0.0 -0.0 1.0
  outer loop
    vertex 42.25000000000001 1.7727586640478266 19.499999999999996
    vertex 39.958780928473956 0.8237046502538451 19.499999999999996
    vertex 41.13549260746836 1.2231444411427688 19.499999999999996
  endloop
endfacet
facet normal 0.19509032201612808 0.9807852804032304 -2.339761068352446e-16
  outer loop
    vertex 35.04121907152606 0.8237046502538521 49.0
    vertex 36.26000117390951 0.5812738169487955 19.499999999999996
    vertex 35.04121907152606 0.8237046502538451 19.499999999999996
  endloop
endfacet
facet normal 0.19509032201612808 0.9807852804032304 -2.339761068352446e-16
  outer loop
    vertex 36.26000117390951 0.5812738169487955 19.499999999999996
    vertex 35.04121907152606 0.8237046502538521 49.0
    vertex 36.26000117390951 0.5812738169488025 49.0
  endloop
endfacet
facet normal 0.44228869021900147 0.8968727415326881 -1.7185839450595913e-16
  outer loop
    vertex 32.75 1.7727586640478334 49.0
    vertex 33.86450739253165 1.2231444411427703 19.499999999999996
    vertex 32.75 1.772758664047828 19.499999999999996
  endloop
endfacet
facet normal 0.44228869021900147 0.8968727415326881 -1.7185839450595913e-16
  outer loop
    vertex 33.86450739253165 1.2231444411427703 19.499999999999996
    vertex 32.75 1.7727586640478334 49.0
    vertex 33.86450739253165 1.2231444411427759 49.0
  endloop
endfacet
facet normal 0.06540312923014319 0.9978589232386036 -2.5612718134910716e-16
  outer loop
    vertex 36.26000117390951 0.5812738169488025 49.0
    vertex 37.50000000000001 0.49999999999999345 19.499999999999996
    vertex 36.26000117390951 0.5812738169487955 19.499999999999996
  endloop
endfacet
facet normal 0.06540312923014319 0.9978589232386036 -2.5612718134910716e-16
  outer loop
    vertex 37.50000000000001 0.49999999999999345 19.499999999999996
    vertex 36.26000117390951 0.5812738169488025 49.0
    vertex 37.5 0.5000000000000019 49.0
  endloop
endfacet
facet normal 0.3214394653031615 0.9469301294951057 -2.0397944400146673e-16
  outer loop
    vertex 33.86450739253165 1.2231444411427759 49.0
    vertex 35.04121907152606 0.8237046502538451 19.499999999999996
    vertex 33.86450739253165 1.2231444411427703 19.499999999999996
  endloop
endfacet
facet normal 0.3214394653031615 0.9469301294951057 -2.0397944400146673e-16
  outer loop
    vertex 35.04121907152606 0.8237046502538451 19.499999999999996
    vertex 33.86450739253165 1.2231444411427759 49.0
    vertex 35.04121907152606 0.8237046502538521 49.0
  endloop
endfacet
facet normal -0.4422886902190021 0.896872741532688 -3.6386898959425326e-16
  outer loop
    vertex 41.13549260746835 1.2231444411427772 49.0
    vertex 42.25000000000001 1.7727586640478266 19.499999999999996
    vertex 41.13549260746836 1.2231444411427688 19.499999999999996
  endloop
endfacet
facet normal -0.4422886902190021 0.896872741532688 -3.6386898959425326e-16
  outer loop
    vertex 42.25000000000001 1.7727586640478266 19.499999999999996
    vertex 41.13549260746835 1.2231444411427772 49.0
    vertex 42.25 1.7727586640478363 49.0
  endloop
endfacet
facet normal -0.32143946530316103 0.9469301294951058 -3.331607639962531e-16
  outer loop
    vertex 39.95878092847395 0.8237046502538535 49.0
    vertex 41.13549260746836 1.2231444411427688 19.499999999999996
    vertex 39.958780928473956 0.8237046502538451 19.499999999999996
  endloop
endfacet
facet normal -0.32143946530316103 0.9469301294951058 -3.331607639962531e-16
  outer loop
    vertex 41.13549260746836 1.2231444411427688 19.499999999999996
    vertex 39.95878092847395 0.8237046502538535 49.0
    vertex 41.13549260746835 1.2231444411427772 49.0
  endloop
endfacet
facet normal -0.19509032201612828 0.9807852804032304 -3.2342741455405465e-16
  outer loop
    vertex 38.73999882609049 0.581273816948804 49.0
    vertex 39.958780928473956 0.8237046502538451 19.499999999999996
    vertex 38.73999882609049 0.5812738169487941 19.499999999999996
  endloop
endfacet
facet normal -0.19509032201612828 0.9807852804032304 -3.2342741455405465e-16
  outer loop
    vertex 39.958780928473956 0.8237046502538451 19.499999999999996
    vertex 38.73999882609049 0.581273816948804 49.0
    vertex 39.95878092847395 0.8237046502538535 49.0
  endloop
endfacet
facet normal -0.06540312923014319 0.9978589232386036 -3.163016237156404e-16
  outer loop
    vertex 37.5 0.5000000000000019 49.0
    vertex 38.73999882609049 0.5812738169487941 19.499999999999996
    vertex 37.50000000000001 0.49999999999999345 19.499999999999996
  endloop
endfacet
facet normal -0.06540312923014319 0.9978589232386036 -3.163016237156404e-16
  outer loop
    vertex 38.73999882609049 0.5812738169487941 19.499999999999996
    vertex 37.5 0.5000000000000019 49.0
    vertex 38.73999882609049 0.581273816948804 49.0
  endloop
endfacet
facet normal -0.4422886902190016 0.8968727415326881 -3.251018178787646e-20
  outer loop
    vertex 16.135492607468354 1.2231444411427772 49.0
    vertex 17.249999999999996 1.7727586640478321 19.499999999999996
    vertex 16.13549260746835 1.2231444411427759 19.499999999999996
  endloop
endfacet
facet normal -0.4422886902190016 0.8968727415326881 -3.251018178787646e-20
  outer loop
    vertex 17.249999999999996 1.7727586640478321 19.499999999999996
    vertex 16.135492607468354 1.2231444411427772 49.0
    vertex 17.250000000000004 1.7727586640478363 49.0
  endloop
endfacet
facet normal -0.19509032201612847 0.9807852804032304 -4.165266932666996e-17
  outer loop
    vertex 13.739998826090494 0.581273816948804 49.0
    vertex 14.958780928473946 0.8237046502538521 19.499999999999996
    vertex 13.739998826090488 0.5812738169488011 19.499999999999996
  endloop
endfacet
facet normal -0.19509032201612847 0.9807852804032304 -4.165266932666996e-17
  outer loop
    vertex 14.958780928473946 0.8237046502538521 19.499999999999996
    vertex 13.739998826090494 0.581273816948804 49.0
    vertex 14.95878092847395 0.8237046502538535 49.0
  endloop
endfacet
facet normal -0.32143946530316136 0.9469301294951057 8.273926656092963e-19
  outer loop
    vertex 14.95878092847395 0.8237046502538535 49.0
    vertex 16.13549260746835 1.2231444411427759 19.499999999999996
    vertex 14.958780928473946 0.8237046502538521 19.499999999999996
  endloop
endfacet
facet normal -0.32143946530316136 0.9469301294951057 8.273926656092963e-19
  outer loop
    vertex 16.13549260746835 1.2231444411427759 19.499999999999996
    vertex 14.95878092847395 0.8237046502538535 49.0
    vertex 16.135492607468354 1.2231444411427772 49.0
  endloop
endfacet
facet normal 0.06540312923014328 0.9978589232386036 -3.012927662405217e-17
  outer loop
    vertex 11.260001173909513 0.5812738169488025 49.0
    vertex 12.500000000000002 0.5000000000000004 19.499999999999996
    vertex 11.26000117390951 0.5812738169488025 19.499999999999996
  endloop
endfacet
facet normal 0.06540312923014328 0.9978589232386036 -3.012927662405217e-17
  outer loop
    vertex 12.500000000000002 0.5000000000000004 19.499999999999996
    vertex 11.260001173909513 0.5812738169488025 49.0
    vertex 12.500000000000002 0.5000000000000019 49.0
  endloop
endfacet
facet normal -0.06540312923014328 0.9978589232386036 -6.37207747867882e-17
  outer loop
    vertex 12.500000000000002 0.5000000000000019 49.0
    vertex 13.739998826090488 0.5812738169488011 19.499999999999996
    vertex 12.500000000000002 0.5000000000000004 19.499999999999996
  endloop
endfacet
facet normal -0.06540312923014328 0.9978589232386036 -6.37207747867882e-17
  outer loop
    vertex 13.739998826090488 0.5812738169488011 19.499999999999996
    vertex 12.500000000000002 0.5000000000000019 49.0
    vertex 13.739998826090494 0.581273816948804 49.0
  endloop
endfacet
facet normal 0.32143946530316103 0.9469301294951058 -6.118071800631895e-17
  outer loop
    vertex 8.864507392531653 1.2231444411427759 49.0
    vertex 10.041219071526053 0.8237046502538521 19.499999999999996
    vertex 8.864507392531648 1.2231444411427759 19.499999999999996
  endloop
endfacet
facet normal 0.32143946530316103 0.9469301294951058 -6.118071800631895e-17
  outer loop
    vertex 10.041219071526053 0.8237046502538521 19.499999999999996
    vertex 8.864507392531653 1.2231444411427759 49.0
    vertex 10.041219071526058 0.8237046502538521 49.0
  endloop
endfacet
facet normal 0.195090322016128 0.9807852804032304 -3.286704643145296e-17
  outer loop
    vertex 10.041219071526058 0.8237046502538521 49.0
    vertex 11.26000117390951 0.5812738169488025 19.499999999999996
    vertex 10.041219071526053 0.8237046502538521 19.499999999999996
  endloop
endfacet
facet normal 0.195090322016128 0.9807852804032304 -3.286704643145296e-17
  outer loop
    vertex 11.26000117390951 0.5812738169488025 19.499999999999996
    vertex 10.041219071526058 0.8237046502538521 49.0
    vertex 11.260001173909513 0.5812738169488025 49.0
  endloop
endfacet
facet normal 0.4422886902190018 0.896872741532688 -7.451278344977411e-17
  outer loop
    vertex 7.750000000000005 1.7727586640478334 49.0
    vertex 8.864507392531648 1.2231444411427759 19.499999999999996
    vertex 7.750000000000001 1.7727586640478334 19.499999999999996
  endloop
endfacet
facet normal 0.4422886902190018 0.896872741532688 -7.451278344977411e-17
  outer loop
    vertex 8.864507392531648 1.2231444411427759 19.499999999999996
    vertex 7.750000000000005 1.7727586640478334 49.0
    vertex 8.864507392531653 1.2231444411427759 49.0
  endloop
endfacet
facet normal -0.0 -0.0 -1.0
  outer loop
    vertex 17.249999999999996 1.7727586640478321 15.499999999999995
    vertex 8.864507392531648 1.2231444411427759 15.499999999999995
    vertex 7.750000000000001 1.7727586640478334 15.499999999999995
  endloop
endfacet
facet normal -0.0 -0.0 -1.0
  outer loop
    vertex 8.864507392531648 1.2231444411427759 15.499999999999995
    vertex 17.249999999999996 1.7727586640478321 15.499999999999995
    vertex 10.041219071526053 0.8237046502538521 15.499999999999995
  endloop
endfacet
facet normal -0.0 -0.0 -1.0
  outer loop
    vertex 10.041219071526053 0.8237046502538521 15.499999999999995
    vertex 17.249999999999996 1.7727586640478321 15.499999999999995
    vertex 11.26000117390951 0.5812738169488025 15.499999999999995
  endloop
endfacet
facet normal -0.0 -0.0 -1.0
  outer loop
    vertex 11.26000117390951 0.5812738169488025 15.499999999999995
    vertex 17.249999999999996 1.7727586640478321 15.499999999999995
    vertex 12.500000000000002 0.5000000000000004 15.499999999999995
  endloop
endfacet
facet normal -0.0 -0.0 -1.0
  outer loop
    vertex 12.500000000000002 0.5000000000000004 15.499999999999995
    vertex 17.249999999999996 1.7727586640478321 15.499999999999995
    vertex 13.739998826090488 0.5812738169488011 15.499999999999995
  endloop
endfacet
facet normal -0.0 -0.0 -1.0
  outer loop
    vertex 13.739998826090488 0.5812738169488011 15.499999999999995
    vertex 17.249999999999996 1.7727586640478321 15.499999999999995
    vertex 14.958780928473946 0.8237046502538521 15.499999999999995
  endloop
endfacet
facet normal -0.0 -0.0 -1.0
  outer loop
    vertex 14.958780928473946 0.8237046502538521 15.499999999999995
    vertex 17.249999999999996 1.7727586640478321 15.499999999999995
    vertex 16.13549260746835 1.2231444411427759 15.499999999999995
  endloop
endfacet
facet normal 1.484192885551526e-16 1.0 -0.0
  outer loop
    vertex 7.750000000000001 1.7727586640478334 19.499999999999996
    vertex 17.249999999999996 1.7727586640478321 15.499999999999995
    vertex 7.750000000000001 1.7727586640478334 15.499999999999995
  endloop
endfacet
facet normal 1.484192885551526e-16 1.0 -0.0
  outer loop
    vertex 17.249999999999996 1.7727586640478321 15.499999999999995
    vertex 7.750000000000001 1.7727586640478334 19.499999999999996
    vertex 17.249999999999996 1.7727586640478321 19.499999999999996
  endloop
endfacet
facet normal -0.0 -0.0 1.0
  outer loop
    vertex 8.864507392531648 1.2231444411427759 19.499999999999996
    vertex 17.249999999999996 1.7727586640478321 19.499999999999996
    vertex 7.750000000000001 1.7727586640478334 19.499999999999996
  endloop
endfacet
facet normal -0.0 -0.0 1.0
  outer loop
    vertex 17.249999999999996 1.7727586640478321 19.499999999999996
    vertex 8.864507392531648 1.2231444411427759 19.499999999999996
    vertex 10.041219071526053 0.8237046502538521 19.499999999999996
  endloop
endfacet
facet normal -0.0 -0.0 1.0
  outer loop
    vertex 17.249999999999996 1.7727586640478321 19.499999999999996
    vertex 10.041219071526053 0.8237046502538521 19.499999999999996
    vertex 11.26000117390951 0.5812738169488025 19.499999999999996
  endloop
endfacet
facet normal -0.0 -0.0 1.0
  outer loop
    vertex 17.249999999999996 1.7727586640478321 19.499999999999996
    vertex 11.26000117390951 0.5812738169488025 19.499999999999996
    vertex 12.500000000000002 0.5000000000000004 19.499999999999996
  endloop
endfacet
facet normal -0.0 -0.0 1.0
  outer loop
    vertex 17.249999999999996 1.7727586640478321 19.499999999999996
    vertex 12.500000000000002 0.5000000000000004 19.499999999999996
    vertex 13.739998826090488 0.5812738169488011 19.499999999999996
  endloop
endfacet
facet normal -0.0 -0.0 1.0
  outer loop
    vertex 17.249999999999996 1.7727586640478321 19.499999999999996
    vertex 13.739998826090488 0.5812738169488011 19.499999999999996
    vertex 14.958780928473946 0.8237046502538521 19.499999999999996
  endloop
endfacet
facet normal -0.0 -0.0 1.0
  outer loop
    vertex 17.249999999999996 1.7727586640478321 19.499999999999996
    vertex 14.958780928473946 0.8237046502538521 19.499999999999996
    vertex 16.13549260746835 1.2231444411427759 19.499999999999996
  endloop
endfacet
endsolid hotend_sled_half_v1
