solid z-screw-sled_holder_v1
facet normal 0.0 -1.0 0.0
  outer loop
    vertex 60.0 -30.375353999999994 35.0
    vertex 19.999999999999996 -30.375353999999994 17.5
    vertex 60.0 -30.375353999999994 17.5
  endloop
endfacet
facet normal 0.0 -1.0 0.0
  outer loop
    vertex 19.999999999999996 -30.375353999999994 17.5
    vertex 60.0 -30.375353999999994 35.0
    vertex 20.0 -30.375353999999994 35.0
  endloop
endfacet
facet normal -1.0 -2.2176455297209322e-17 8.057047092993999e-17
  outer loop
    vertex 20.0 0.0 35.0
    vertex 19.999999999999996 -30.375353999999994 17.5
    vertex 20.0 -30.375353999999994 35.0
  endloop
endfacet
facet normal -1.0 -2.2176455297209322e-17 8.057047092993999e-17
  outer loop
    vertex 19.999999999999996 -30.375353999999994 17.5
    vertex 20.0 0.0 35.0
    vertex 19.999999999999996 10.000000000000002 17.5
  endloop
endfacet
facet normal -1.0 -2.2176455297209322e-17 8.057047092993999e-17
  outer loop
    vertex 19.999999999999996 10.000000000000002 17.5
    vertex 20.0 0.0 35.0
    vertex 19.999999999999996 10.000000000000002 35.0
  endloop
endfacet
facet normal 1.0 -0.0 -0.0
  outer loop
    vertex 60.0 0.0 17.5
    vertex 60.0 -30.375353999999994 35.0
    vertex 60.0 -30.375353999999994 17.5
  endloop
endfacet
facet normal 1.0 -0.0 -0.0
  outer loop
    vertex 60.0 -30.375353999999994 35.0
    vertex 60.0 0.0 17.5
    vertex 60.0 10.000000000000002 35.0
  endloop
endfacet
facet normal 1.0 -0.0 -0.0
  outer loop
    vertex 60.0 10.000000000000002 35.0
    vertex 60.0 0.0 17.5
    vertex 60.0 10.000000000000002 17.5
  endloop
endfacet
facet normal -0.0 -0.0 1.0
  outer loop
    vertex 20.0 -30.375353999999994 35.0
    vertex 35.09252271188818 -20.499999999999996 35.00000000000002
    vertex 20.0 0.0 35.0
  endloop
endfacet
facet normal -0.0 -0.0 1.0
  outer loop
    vertex 35.09252271188818 -20.499999999999996 35.00000000000002
    vertex 20.0 -30.375353999999994 35.0
    vertex 60.0 -30.375353999999994 35.0
  endloop
endfacet
facet normal -0.0 -0.0 1.0
  outer loop
    vertex 20.0 0.0 35.0
    vertex 35.09252271188818 -20.499999999999996 35.00000000000002
    vertex 30.18504542377636 -11.999999999999998 35.00000000000002
  endloop
endfacet
facet normal -0.0 -0.0 1.0
  outer loop
    vertex 35.09252271188818 -20.499999999999996 35.00000000000002
    vertex 60.0 -30.375353999999994 35.0
    vertex 44.90747728811182 -20.499999999999996 35.00000000000002
  endloop
endfacet
facet normal -0.0 -0.0 1.0
  outer loop
    vertex 44.90747728811182 -20.499999999999996 35.00000000000002
    vertex 60.0 -30.375353999999994 35.0
    vertex 49.81495457622364 -11.999999999999995 35.00000000000002
  endloop
endfacet
facet normal -0.0 -0.0 1.0
  outer loop
    vertex 20.0 0.0 35.0
    vertex 60.0 10.000000000000002 35.0
    vertex 19.999999999999996 10.000000000000002 35.0
  endloop
endfacet
facet normal -0.0 -0.0 1.0
  outer loop
    vertex 60.0 10.000000000000002 35.0
    vertex 20.0 0.0 35.0
    vertex 35.09252271188817 -3.499999999999998 35.00000000000002
  endloop
endfacet
facet normal -0.0 -0.0 1.0
  outer loop
    vertex 35.09252271188817 -3.499999999999998 35.00000000000002
    vertex 20.0 0.0 35.0
    vertex 30.18504542377636 -11.999999999999998 35.00000000000002
  endloop
endfacet
facet normal -0.0 -0.0 1.0
  outer loop
    vertex 60.0 10.000000000000002 35.0
    vertex 35.09252271188817 -3.499999999999998 35.00000000000002
    vertex 44.90747728811182 -3.499999999999995 35.00000000000002
  endloop
endfacet
facet normal -0.0 -0.0 1.0
  outer loop
    vertex 60.0 10.000000000000002 35.0
    vertex 44.90747728811182 -3.499999999999995 35.00000000000002
    vertex 49.81495457622364 -11.999999999999995 35.00000000000002
  endloop
endfacet
facet normal -0.0 -0.0 1.0
  outer loop
    vertex 60.0 10.000000000000002 35.0
    vertex 49.81495457622364 -11.999999999999995 35.00000000000002
    vertex 60.0 -30.375353999999994 35.0
  endloop
endfacet
facet normal -0.0 1.0 -0.0
  outer loop
    vertex 19.999999999999996 10.000000000000002 35.0
    vertex 60.0 10.000000000000002 17.5
    vertex 19.999999999999996 10.000000000000002 17.5
  endloop
endfacet
facet normal -0.0 1.0 -0.0
  outer loop
    vertex 60.0 10.000000000000002 17.5
    vertex 19.999999999999996 10.000000000000002 35.0
    vertex 60.0 10.000000000000002 35.0
  endloop
endfacet
facet normal 0.0 0.0 -1.0
  outer loop
    vertex 19.999999999999996 10.000000000000002 17.5
    vertex 30.18504542377636 -11.999999999999998 17.499999999999993
    vertex 19.999999999999996 -30.375353999999994 17.5
  endloop
endfacet
facet normal 0.0 0.0 -1.0
  outer loop
    vertex 30.18504542377636 -11.999999999999998 17.499999999999993
    vertex 19.999999999999996 10.000000000000002 17.5
    vertex 35.09252271188817 -3.499999999999998 17.499999999999993
  endloop
endfacet
facet normal 0.0 0.0 -1.0
  outer loop
    vertex 35.09252271188817 -3.499999999999998 17.499999999999993
    vertex 19.999999999999996 10.000000000000002 17.5
    vertex 60.0 10.000000000000002 17.5
  endloop
endfacet
facet normal 0.0 0.0 -1.0
  outer loop
    vertex 35.09252271188817 -3.499999999999998 17.499999999999993
    vertex 60.0 10.000000000000002 17.5
    vertex 44.90747728811182 -3.499999999999995 17.499999999999993
  endloop
endfacet
facet normal 0.0 0.0 -1.0
  outer loop
    vertex 44.90747728811182 -3.499999999999995 17.499999999999993
    vertex 60.0 10.000000000000002 17.5
    vertex 49.81495457622364 -11.999999999999995 17.499999999999993
  endloop
endfacet
facet normal 0.0 0.0 -1.0
  outer loop
    vertex 19.999999999999996 -30.375353999999994 17.5
    vertex 35.09252271188818 -20.499999999999996 17.499999999999993
    vertex 60.0 -30.375353999999994 17.5
  endloop
endfacet
facet normal 0.0 0.0 -1.0
  outer loop
    vertex 35.09252271188818 -20.499999999999996 17.499999999999993
    vertex 19.999999999999996 -30.375353999999994 17.5
    vertex 30.18504542377636 -11.999999999999998 17.499999999999993
  endloop
endfacet
facet normal 0.0 0.0 -1.0
  outer loop
    vertex 60.0 -30.375353999999994 17.5
    vertex 35.09252271188818 -20.499999999999996 17.499999999999993
    vertex 44.90747728811182 -20.499999999999996 17.499999999999993
  endloop
endfacet
facet normal 0.0 0.0 -1.0
  outer loop
    vertex 60.0 -30.375353999999994 17.5
    vertex 44.90747728811182 -20.499999999999996 17.499999999999993
    vertex 49.81495457622364 -11.999999999999995 17.499999999999993
  endloop
endfacet
facet normal 0.0 0.0 -1.0
  outer loop
    vertex 60.0 -30.375353999999994 17.5
    vertex 49.81495457622364 -11.999999999999995 17.499999999999993
    vertex 60.0 10.000000000000002 17.5
  endloop
endfacet
facet normal 0.0 0.0 -1.0
  outer loop
    vertex 60.0 -30.375353999999994 17.5
    vertex 60.0 10.000000000000002 17.5
    vertex 60.0 0.0 17.5
  endloop
endfacet
facet normal 2.8731324843613225e-16 -1.0 -0.0
  outer loop
    vertex 44.90747728811182 -3.499999999999995 35.00000000000002
    vertex 35.09252271188817 -3.499999999999998 17.499999999999993
    vertex 44.90747728811182 -3.499999999999995 17.499999999999993
  endloop
endfacet
facet normal 2.8731324843613225e-16 -1.0 -0.0
  outer loop
    vertex 35.09252271188817 -3.499999999999998 17.499999999999993
    vertex 44.90747728811182 -3.499999999999995 35.00000000000002
    vertex 35.09252271188817 -3.499999999999998 35.00000000000002
  endloop
endfacet
facet normal 0.8660254037844388 -0.49999999999999967 -0.0
  outer loop
    vertex 35.09252271188817 -3.499999999999998 17.499999999999993
    vertex 30.18504542377636 -11.999999999999998 35.00000000000002
    vertex 30.18504542377636 -11.999999999999998 17.499999999999993
  endloop
endfacet
facet normal 0.8660254037844388 -0.49999999999999967 -0.0
  outer loop
    vertex 30.18504542377636 -11.999999999999998 35.00000000000002
    vertex 35.09252271188817 -3.499999999999998 17.499999999999993
    vertex 35.09252271188817 -3.499999999999998 35.00000000000002
  endloop
endfacet
facet normal 0.8660254037844386 0.5000000000000001 0.0
  outer loop
    vertex 30.18504542377636 -11.999999999999998 17.499999999999993
    vertex 35.09252271188818 -20.499999999999996 35.00000000000002
    vertex 35.09252271188818 -20.499999999999996 17.499999999999993
  endloop
endfacet
facet normal 0.8660254037844386 0.5000000000000001 0.0
  outer loop
    vertex 35.09252271188818 -20.499999999999996 35.00000000000002
    vertex 30.18504542377636 -11.999999999999998 17.499999999999993
    vertex 30.18504542377636 -11.999999999999998 35.00000000000002
  endloop
endfacet
facet normal -0.0 1.0 -0.0
  outer loop
    vertex 35.09252271188818 -20.499999999999996 35.00000000000002
    vertex 44.90747728811182 -20.499999999999996 17.499999999999993
    vertex 35.09252271188818 -20.499999999999996 17.499999999999993
  endloop
endfacet
facet normal -0.0 1.0 -0.0
  outer loop
    vertex 44.90747728811182 -20.499999999999996 17.499999999999993
    vertex 35.09252271188818 -20.499999999999996 35.00000000000002
    vertex 44.90747728811182 -20.499999999999996 35.00000000000002
  endloop
endfacet
facet normal -0.8660254037844386 0.4999999999999999 -0.0
  outer loop
    vertex 49.81495457622364 -11.999999999999995 35.00000000000002
    vertex 44.90747728811182 -20.499999999999996 17.499999999999993
    vertex 44.90747728811182 -20.499999999999996 35.00000000000002
  endloop
endfacet
facet normal -0.8660254037844386 0.4999999999999999 -0.0
  outer loop
    vertex 44.90747728811182 -20.499999999999996 17.499999999999993
    vertex 49.81495457622364 -11.999999999999995 35.00000000000002
    vertex 49.81495457622364 -11.999999999999995 17.499999999999993
  endloop
endfacet
facet normal -0.8660254037844386 -0.5000000000000001 -0.0
  outer loop
    vertex 44.90747728811182 -3.499999999999995 35.00000000000002
    vertex 49.81495457622364 -11.999999999999995 17.499999999999993
    vertex 49.81495457622364 -11.999999999999995 35.00000000000002
  endloop
endfacet
facet normal -0.8660254037844386 -0.5000000000000001 -0.0
  outer loop
    vertex 49.81495457622364 -11.999999999999995 17.499999999999993
    vertex 44.90747728811182 -3.499999999999995 35.00000000000002
    vertex 44.90747728811182 -3.499999999999995 17.499999999999993
  endloop
endfacet
endsolid z-screw-sled_holder_v1
