solid z-sled_v1
facet normal 1.0 -0.0 -0.0
  outer loop
    vertex 45.0 2.5 -9.999999999999996
    vertex 45.0 39.5 20.499999999999982
    vertex 45.0 2.4999999999999862 20.499999999999982
  endloop
endfacet
facet normal 1.0 -0.0 -0.0
  outer loop
    vertex 45.0 39.5 20.499999999999982
    vertex 45.0 2.5 -9.999999999999996
    vertex 45.0 39.5 -9.999999999999996
  endloop
endfacet
facet normal -0.9978589232386031 0.0 0.06540312923014797
  outer loop
    vertex 31.999999999999996 39.5 20.499999999999982
    vertex 31.91872618305119 2.499999999999973 19.260001173909487
    vertex 31.999999999999996 2.499999999999973 20.499999999999982
  endloop
endfacet
facet normal -0.9978589232386031 0.0 0.06540312923014797
  outer loop
    vertex 31.91872618305119 2.499999999999973 19.260001173909487
    vertex 31.999999999999996 39.5 20.499999999999982
    vertex 31.91872618305119 39.5 19.260001173909487
  endloop
endfacet
facet normal -0.9807852804032301 1.3539927822816045e-31 0.1950903220161303
  outer loop
    vertex 31.91872618305119 39.5 19.260001173909487
    vertex 31.676295349746137 2.499999999999973 18.04121907152603
    vertex 31.91872618305119 2.499999999999973 19.260001173909487
  endloop
endfacet
facet normal -0.9807852804032301 1.3539927822816045e-31 0.1950903220161303
  outer loop
    vertex 31.676295349746137 2.499999999999973 18.04121907152603
    vertex 31.91872618305119 39.5 19.260001173909487
    vertex 31.676295349746137 39.5 18.04121907152603
  endloop
endfacet
facet normal -0.9469301294951056 1.2974831074516557e-31 0.3214394653031617
  outer loop
    vertex 31.676295349746137 39.5 18.04121907152603
    vertex 31.276855558857214 2.499999999999973 16.86450739253163
    vertex 31.676295349746137 2.499999999999973 18.04121907152603
  endloop
endfacet
facet normal -0.9469301294951056 1.2974831074516557e-31 0.3214394653031617
  outer loop
    vertex 31.276855558857214 2.499999999999973 16.86450739253163
    vertex 31.676295349746137 39.5 18.04121907152603
    vertex 31.276855558857214 39.5 16.86450739253163
  endloop
endfacet
facet normal -0.8968727415326878 1.218773136922929e-31 0.4422886902190025
  outer loop
    vertex 31.276855558857214 39.5 16.86450739253163
    vertex 30.727241335952158 2.499999999999973 15.749999999999982
    vertex 31.276855558857214 2.499999999999973 16.86450739253163
  endloop
endfacet
facet normal -0.8968727415326878 1.218773136922929e-31 0.4422886902190025
  outer loop
    vertex 30.727241335952158 2.499999999999973 15.749999999999982
    vertex 31.276855558857214 39.5 16.86450739253163
    vertex 30.727241335952158 39.5 15.749999999999982
  endloop
endfacet
facet normal -0.831469612302546 1.1192096201137017e-31 0.5555702330196012
  outer loop
    vertex 30.727241335952158 39.5 15.749999999999982
    vertex 30.036856732766726 2.499999999999973 14.716766424417138
    vertex 30.727241335952158 2.499999999999973 15.749999999999982
  endloop
endfacet
facet normal -0.831469612302546 1.1192096201137017e-31 0.5555702330196012
  outer loop
    vertex 30.036856732766726 2.499999999999973 14.716766424417138
    vertex 30.727241335952158 39.5 15.749999999999982
    vertex 30.036856732766726 39.5 14.716766424417138
  endloop
endfacet
facet normal -0.7518398074789748 1.0004961164007922e-31 0.659345815100072
  outer loop
    vertex 30.036856732766726 39.5 14.716766424417138
    vertex 29.21751442127219 2.499999999999973 13.782485578727783
    vertex 30.036856732766726 2.499999999999973 14.716766424417138
  endloop
endfacet
facet normal -0.7518398074789748 1.0004961164007922e-31 0.659345815100072
  outer loop
    vertex 29.21751442127219 2.499999999999973 13.782485578727783
    vertex 30.036856732766726 39.5 14.716766424417138
    vertex 29.21751442127219 39.5 13.782485578727783
  endloop
endfacet
facet normal -0.6593458151000693 2.2093032205727534e-33 0.751839807478977
  outer loop
    vertex 29.21751442127219 2.499999999999973 13.782485578727783
    vertex 28.283233575582834 6.249999999999973 12.963143267233253
    vertex 28.283233575582834 2.499999999999973 12.963143267233253
  endloop
endfacet
facet normal -0.6593458151000693 2.2093032205727534e-33 0.751839807478977
  outer loop
    vertex 28.283233575582834 6.249999999999973 12.963143267233253
    vertex 29.21751442127219 2.499999999999973 13.782485578727783
    vertex 28.283233575582834 35.75 12.963143267233253
  endloop
endfacet
facet normal -0.6593458151000693 2.2093032205727534e-33 0.751839807478977
  outer loop
    vertex 28.283233575582834 35.75 12.963143267233253
    vertex 29.21751442127219 2.499999999999973 13.782485578727783
    vertex 28.283233575582834 39.5 12.963143267233253
  endloop
endfacet
facet normal -0.6593458151000693 2.2093032205727534e-33 0.751839807478977
  outer loop
    vertex 28.283233575582834 39.5 12.963143267233253
    vertex 29.21751442127219 2.499999999999973 13.782485578727783
    vertex 29.21751442127219 39.5 13.782485578727783
  endloop
endfacet
facet normal -0.5555702330196018 -1.17972386469469e-19 0.8314696123025456
  outer loop
    vertex 28.283233575582834 6.249999999999973 12.963143267233253
    vertex 27.24999999999999 35.75 12.27275866404782
    vertex 27.24999999999999 6.249999999999973 12.27275866404782
  endloop
endfacet
facet normal -0.5555702330196018 -1.17972386469469e-19 0.8314696123025456
  outer loop
    vertex 27.24999999999999 35.75 12.27275866404782
    vertex 28.283233575582834 6.249999999999973 12.963143267233253
    vertex 28.283233575582834 35.75 12.963143267233253
  endloop
endfacet
facet normal -0.44228869021899986 -3.731375765221675e-19 0.8968727415326891
  outer loop
    vertex 27.24999999999999 6.249999999999973 12.27275866404782
    vertex 26.135492607468336 35.75 11.723144441142763
    vertex 26.135492607468336 6.249999999999973 11.723144441142763
  endloop
endfacet
facet normal -0.44228869021899986 -3.731375765221675e-19 0.8968727415326891
  outer loop
    vertex 26.135492607468336 35.75 11.723144441142763
    vertex 27.24999999999999 6.249999999999973 12.27275866404782
    vertex 27.24999999999999 35.75 12.27275866404782
  endloop
endfacet
facet normal -0.32143946530316064 3.4264607280520654e-19 0.946930129495106
  outer loop
    vertex 26.135492607468336 6.249999999999973 11.723144441142763
    vertex 24.958780928473935 35.75 11.32370465025384
    vertex 24.958780928473935 6.249999999999973 11.32370465025384
  endloop
endfacet
facet normal -0.32143946530316064 3.4264607280520654e-19 0.946930129495106
  outer loop
    vertex 24.958780928473935 35.75 11.32370465025384
    vertex 26.135492607468336 6.249999999999973 11.723144441142763
    vertex 26.135492607468336 35.75 11.723144441142763
  endloop
endfacet
facet normal -0.1950903220161282 2.491322834742863e-19 0.9807852804032307
  outer loop
    vertex 24.958780928473935 6.249999999999973 11.32370465025384
    vertex 23.739998826090478 35.75 11.08127381694879
    vertex 23.739998826090478 6.249999999999973 11.08127381694879
  endloop
endfacet
facet normal -0.1950903220161282 2.491322834742863e-19 0.9807852804032307
  outer loop
    vertex 23.739998826090478 35.75 11.08127381694879
    vertex 24.958780928473935 6.249999999999973 11.32370465025384
    vertex 24.958780928473935 35.75 11.32370465025384
  endloop
endfacet
facet normal -0.06540312923014163 5.2615331988241116e-20 0.9978589232386036
  outer loop
    vertex 23.739998826090478 6.249999999999973 11.08127381694879
    vertex 22.49999999999999 35.75 10.999999999999991
    vertex 22.49999999999999 6.249999999999973 10.999999999999991
  endloop
endfacet
facet normal -0.06540312923014163 5.2615331988241116e-20 0.9978589232386036
  outer loop
    vertex 22.49999999999999 35.75 10.999999999999991
    vertex 23.739998826090478 6.249999999999973 11.08127381694879
    vertex 23.739998826090478 35.75 11.08127381694879
  endloop
endfacet
facet normal 0.06540312923014474 -5.517745689092454e-20 0.9978589232386036
  outer loop
    vertex 22.49999999999999 6.249999999999973 10.999999999999991
    vertex 21.260001173909494 35.75 11.081273816948794
    vertex 21.260001173909494 6.249999999999973 11.081273816948794
  endloop
endfacet
facet normal 0.06540312923014474 -5.517745689092454e-20 0.9978589232386036
  outer loop
    vertex 21.260001173909494 35.75 11.081273816948794
    vertex 22.49999999999999 6.249999999999973 10.999999999999991
    vertex 22.49999999999999 35.75 10.999999999999991
  endloop
endfacet
facet normal 0.1950903220161282 -5.783088216488551e-19 0.9807852804032307
  outer loop
    vertex 21.260001173909494 6.249999999999973 11.081273816948794
    vertex 20.04121907152604 35.75 11.323704650253845
    vertex 20.04121907152604 6.249999999999973 11.323704650253845
  endloop
endfacet
facet normal 0.1950903220161282 -5.783088216488551e-19 0.9807852804032307
  outer loop
    vertex 20.04121907152604 35.75 11.323704650253845
    vertex 21.260001173909494 6.249999999999973 11.081273816948794
    vertex 21.260001173909494 35.75 11.081273816948794
  endloop
endfacet
facet normal 0.3214394653031627 9.418054365920246e-19 0.9469301294951052
  outer loop
    vertex 20.04121907152604 6.249999999999973 11.323704650253845
    vertex 18.86450739253164 35.75 11.72314444114277
    vertex 18.86450739253164 6.249999999999973 11.72314444114277
  endloop
endfacet
facet normal 0.3214394653031627 9.418054365920246e-19 0.9469301294951052
  outer loop
    vertex 18.86450739253164 35.75 11.72314444114277
    vertex 20.04121907152604 6.249999999999973 11.323704650253845
    vertex 20.04121907152604 35.75 11.323704650253845
  endloop
endfacet
facet normal 0.4422886902190017 3.679510757786569e-19 0.8968727415326881
  outer loop
    vertex 18.86450739253164 6.249999999999973 11.72314444114277
    vertex 17.749999999999986 35.75 12.272758664047828
    vertex 17.749999999999986 6.249999999999973 12.272758664047828
  endloop
endfacet
facet normal 0.4422886902190017 3.679510757786569e-19 0.8968727415326881
  outer loop
    vertex 17.749999999999986 35.75 12.272758664047828
    vertex 18.86450739253164 6.249999999999973 11.72314444114277
    vertex 18.86450739253164 35.75 11.72314444114277
  endloop
endfacet
facet normal 0.5555702330196028 3.5073534882021937e-19 0.8314696123025448
  outer loop
    vertex 17.749999999999986 6.249999999999973 12.272758664047828
    vertex 16.716766424417145 35.75 12.96314326723326
    vertex 16.716766424417145 6.249999999999973 12.96314326723326
  endloop
endfacet
facet normal 0.5555702330196028 3.5073534882021937e-19 0.8314696123025448
  outer loop
    vertex 16.716766424417145 35.75 12.96314326723326
    vertex 17.749999999999986 6.249999999999973 12.272758664047828
    vertex 17.749999999999986 35.75 12.272758664047828
  endloop
endfacet
facet normal 0.6593458151000705 4.663976794181191e-19 0.7518398074789759
  outer loop
    vertex 16.716766424417145 2.499999999999973 12.96314326723326
    vertex 15.78248557872779 39.5 13.782485578727796
    vertex 15.78248557872779 2.499999999999973 13.782485578727796
  endloop
endfacet
facet normal 0.6593458151000705 4.663976794181191e-19 0.7518398074789759
  outer loop
    vertex 15.78248557872779 39.5 13.782485578727796
    vertex 16.716766424417145 2.499999999999973 12.96314326723326
    vertex 16.716766424417145 39.5 12.96314326723326
  endloop
endfacet
facet normal 0.6593458151000705 4.663976794181191e-19 0.7518398074789759
  outer loop
    vertex 16.716766424417145 39.5 12.96314326723326
    vertex 16.716766424417145 2.499999999999973 12.96314326723326
    vertex 16.716766424417145 6.249999999999973 12.96314326723326
  endloop
endfacet
facet normal 0.6593458151000705 4.663976794181191e-19 0.7518398074789759
  outer loop
    vertex 16.716766424417145 39.5 12.96314326723326
    vertex 16.716766424417145 6.249999999999973 12.96314326723326
    vertex 16.716766424417145 35.75 12.96314326723326
  endloop
endfacet
facet normal 0.7518398074789778 -1.0973245008706928e-31 0.6593458151000683
  outer loop
    vertex 15.78248557872779 39.5 13.782485578727796
    vertex 14.963143267233256 2.499999999999973 14.716766424417154
    vertex 15.78248557872779 2.499999999999973 13.782485578727796
  endloop
endfacet
facet normal 0.7518398074789778 -1.0973245008706928e-31 0.6593458151000683
  outer loop
    vertex 14.963143267233256 2.499999999999973 14.716766424417154
    vertex 15.78248557872779 39.5 13.782485578727796
    vertex 14.963143267233256 39.5 14.716766424417154
  endloop
endfacet
facet normal 0.831469612302545 -1.2007980171139717e-31 0.5555702330196028
  outer loop
    vertex 14.963143267233256 39.5 14.716766424417154
    vertex 14.272758664047823 2.499999999999973 15.75
    vertex 14.963143267233256 2.499999999999973 14.716766424417154
  endloop
endfacet
facet normal 0.831469612302545 -1.2007980171139717e-31 0.5555702330196028
  outer loop
    vertex 14.272758664047823 2.499999999999973 15.75
    vertex 14.963143267233256 39.5 14.716766424417154
    vertex 14.272758664047823 39.5 15.75
  endloop
endfacet
facet normal 0.8968727415326891 -1.2837255463603252e-31 0.44228869021899975
  outer loop
    vertex 14.272758664047823 39.5 15.75
    vertex 13.723144441142768 2.499999999999973 16.864507392531646
    vertex 14.272758664047823 2.499999999999973 15.75
  endloop
endfacet
facet normal 0.8968727415326891 -1.2837255463603252e-31 0.44228869021899975
  outer loop
    vertex 13.723144441142768 2.499999999999973 16.864507392531646
    vertex 14.272758664047823 39.5 15.75
    vertex 13.723144441142768 39.5 16.864507392531646
  endloop
endfacet
facet normal 0.9469301294951062 -1.3446881755924905e-31 0.32143946530315964
  outer loop
    vertex 13.723144441142768 39.5 16.864507392531646
    vertex 13.323704650253848 2.499999999999973 18.04121907152605
    vertex 13.723144441142768 2.499999999999973 16.864507392531646
  endloop
endfacet
facet normal 0.9469301294951062 -1.3446881755924905e-31 0.32143946530315964
  outer loop
    vertex 13.323704650253848 2.499999999999973 18.04121907152605
    vertex 13.723144441142768 39.5 16.864507392531646
    vertex 13.323704650253848 39.5 18.04121907152605
  endloop
endfacet
facet normal 0.9807852804032301 -1.382642817322271e-31 0.19509032201612986
  outer loop
    vertex 13.323704650253848 39.5 18.04121907152605
    vertex 13.081273816948794 2.499999999999973 19.260001173909508
    vertex 13.323704650253848 2.499999999999973 18.04121907152605
  endloop
endfacet
facet normal 0.9807852804032301 -1.382642817322271e-31 0.19509032201612986
  outer loop
    vertex 13.081273816948794 2.499999999999973 19.260001173909508
    vertex 13.323704650253848 39.5 18.04121907152605
    vertex 13.081273816948794 39.5 19.260001173909508
  endloop
endfacet
facet normal 0.9978589232386036 -0.0 0.06540312923014165
  outer loop
    vertex 13.081273816948794 39.5 19.260001173909508
    vertex 12.999999999999996 2.499999999999973 20.499999999999996
    vertex 13.081273816948794 2.499999999999973 19.260001173909508
  endloop
endfacet
facet normal 0.9978589232386036 -0.0 0.06540312923014165
  outer loop
    vertex 12.999999999999996 2.499999999999973 20.499999999999996
    vertex 13.081273816948794 39.5 19.260001173909508
    vertex 12.999999999999996 39.5 20.499999999999996
  endloop
endfacet
facet normal -0.0 -0.0 1.0
  outer loop
    vertex 45.0 2.4999999999999862 20.499999999999982
    vertex 31.999999999999996 39.5 20.499999999999982
    vertex 31.999999999999996 2.499999999999973 20.499999999999982
  endloop
endfacet
facet normal -0.0 -0.0 1.0
  outer loop
    vertex 31.999999999999996 39.5 20.499999999999982
    vertex 45.0 2.4999999999999862 20.499999999999982
    vertex 45.0 39.5 20.499999999999982
  endloop
endfacet
facet normal 0.0 -1.0 0.0
  outer loop
    vertex 23.739998826090478 35.75 11.08127381694879
    vertex 21.260001173909494 35.75 11.081273816948794
    vertex 22.49999999999999 35.75 10.999999999999991
  endloop
endfacet
facet normal 0.0 -1.0 0.0
  outer loop
    vertex 21.260001173909494 35.75 11.081273816948794
    vertex 23.739998826090478 35.75 11.08127381694879
    vertex 24.958780928473935 35.75 11.32370465025384
  endloop
endfacet
facet normal 0.0 -1.0 0.0
  outer loop
    vertex 21.260001173909494 35.75 11.081273816948794
    vertex 24.958780928473935 35.75 11.32370465025384
    vertex 20.04121907152604 35.75 11.323704650253845
  endloop
endfacet
facet normal 0.0 -1.0 0.0
  outer loop
    vertex 20.04121907152604 35.75 11.323704650253845
    vertex 24.958780928473935 35.75 11.32370465025384
    vertex 26.135492607468336 35.75 11.723144441142763
  endloop
endfacet
facet normal 0.0 -1.0 0.0
  outer loop
    vertex 20.04121907152604 35.75 11.323704650253845
    vertex 26.135492607468336 35.75 11.723144441142763
    vertex 18.86450739253164 35.75 11.72314444114277
  endloop
endfacet
facet normal 0.0 -1.0 0.0
  outer loop
    vertex 18.86450739253164 35.75 11.72314444114277
    vertex 26.135492607468336 35.75 11.723144441142763
    vertex 27.24999999999999 35.75 12.27275866404782
  endloop
endfacet
facet normal 0.0 -1.0 0.0
  outer loop
    vertex 18.86450739253164 35.75 11.72314444114277
    vertex 27.24999999999999 35.75 12.27275866404782
    vertex 17.749999999999986 35.75 12.272758664047828
  endloop
endfacet
facet normal 0.0 -1.0 0.0
  outer loop
    vertex 17.749999999999986 35.75 12.272758664047828
    vertex 27.24999999999999 35.75 12.27275866404782
    vertex 28.283233575582834 35.75 12.963143267233253
  endloop
endfacet
facet normal 0.0 -1.0 0.0
  outer loop
    vertex 17.749999999999986 35.75 12.272758664047828
    vertex 28.283233575582834 35.75 12.963143267233253
    vertex 16.716766424417145 35.75 12.96314326723326
  endloop
endfacet
facet normal 7.314160267849019e-16 -0.0 1.0
  outer loop
    vertex 28.283233575582834 35.75 12.963143267233253
    vertex 16.716766424417145 39.5 12.96314326723326
    vertex 16.716766424417145 35.75 12.96314326723326
  endloop
endfacet
facet normal 7.314160267849019e-16 -0.0 1.0
  outer loop
    vertex 16.716766424417145 39.5 12.96314326723326
    vertex 28.283233575582834 35.75 12.963143267233253
    vertex 28.283233575582834 39.5 12.963143267233253
  endloop
endfacet
facet normal -0.0 1.0 -0.0
  outer loop
    vertex 21.260001173909494 6.249999999999973 11.081273816948794
    vertex 23.739998826090478 6.249999999999973 11.08127381694879
    vertex 22.49999999999999 6.249999999999973 10.999999999999991
  endloop
endfacet
facet normal -0.0 1.0 -0.0
  outer loop
    vertex 23.739998826090478 6.249999999999973 11.08127381694879
    vertex 21.260001173909494 6.249999999999973 11.081273816948794
    vertex 24.958780928473935 6.249999999999973 11.32370465025384
  endloop
endfacet
facet normal -0.0 1.0 -0.0
  outer loop
    vertex 24.958780928473935 6.249999999999973 11.32370465025384
    vertex 21.260001173909494 6.249999999999973 11.081273816948794
    vertex 20.04121907152604 6.249999999999973 11.323704650253845
  endloop
endfacet
facet normal -0.0 1.0 -0.0
  outer loop
    vertex 24.958780928473935 6.249999999999973 11.32370465025384
    vertex 20.04121907152604 6.249999999999973 11.323704650253845
    vertex 26.135492607468336 6.249999999999973 11.723144441142763
  endloop
endfacet
facet normal -0.0 1.0 -0.0
  outer loop
    vertex 26.135492607468336 6.249999999999973 11.723144441142763
    vertex 20.04121907152604 6.249999999999973 11.323704650253845
    vertex 18.86450739253164 6.249999999999973 11.72314444114277
  endloop
endfacet
facet normal -0.0 1.0 -0.0
  outer loop
    vertex 26.135492607468336 6.249999999999973 11.723144441142763
    vertex 18.86450739253164 6.249999999999973 11.72314444114277
    vertex 27.24999999999999 6.249999999999973 12.27275866404782
  endloop
endfacet
facet normal -0.0 1.0 -0.0
  outer loop
    vertex 27.24999999999999 6.249999999999973 12.27275866404782
    vertex 18.86450739253164 6.249999999999973 11.72314444114277
    vertex 17.749999999999986 6.249999999999973 12.272758664047828
  endloop
endfacet
facet normal -0.0 1.0 -0.0
  outer loop
    vertex 27.24999999999999 6.249999999999973 12.27275866404782
    vertex 17.749999999999986 6.249999999999973 12.272758664047828
    vertex 28.283233575582834 6.249999999999973 12.963143267233253
  endloop
endfacet
facet normal -0.0 1.0 -0.0
  outer loop
    vertex 28.283233575582834 6.249999999999973 12.963143267233253
    vertex 17.749999999999986 6.249999999999973 12.272758664047828
    vertex 16.716766424417145 6.249999999999973 12.96314326723326
  endloop
endfacet
facet normal 7.314160267849019e-16 -0.0 1.0
  outer loop
    vertex 28.283233575582834 2.499999999999973 12.963143267233253
    vertex 16.716766424417145 6.249999999999973 12.96314326723326
    vertex 16.716766424417145 2.499999999999973 12.96314326723326
  endloop
endfacet
facet normal 7.314160267849019e-16 -0.0 1.0
  outer loop
    vertex 16.716766424417145 6.249999999999973 12.96314326723326
    vertex 28.283233575582834 2.499999999999973 12.963143267233253
    vertex 28.283233575582834 6.249999999999973 12.963143267233253
  endloop
endfacet
facet normal -6.816220751132482e-17 -1.0 -8.747895875229757e-16
  outer loop
    vertex 45.0 2.4999999999999862 20.499999999999982
    vertex 28.283233575582834 2.499999999999973 12.963143267233253
    vertex 45.0 2.5 -9.999999999999996
  endloop
endfacet
facet normal -6.816220751132482e-17 -1.0 -8.747895875229757e-16
  outer loop
    vertex 28.283233575582834 2.499999999999973 12.963143267233253
    vertex 45.0 2.4999999999999862 20.499999999999982
    vertex 29.21751442127219 2.499999999999973 13.782485578727783
  endloop
endfacet
facet normal -6.816220751132482e-17 -1.0 -8.747895875229757e-16
  outer loop
    vertex 29.21751442127219 2.499999999999973 13.782485578727783
    vertex 45.0 2.4999999999999862 20.499999999999982
    vertex 30.036856732766726 2.499999999999973 14.716766424417138
  endloop
endfacet
facet normal -6.816220751132482e-17 -1.0 -8.747895875229757e-16
  outer loop
    vertex 30.036856732766726 2.499999999999973 14.716766424417138
    vertex 45.0 2.4999999999999862 20.499999999999982
    vertex 30.727241335952158 2.499999999999973 15.749999999999982
  endloop
endfacet
facet normal -6.816220751132482e-17 -1.0 -8.747895875229757e-16
  outer loop
    vertex 30.727241335952158 2.499999999999973 15.749999999999982
    vertex 45.0 2.4999999999999862 20.499999999999982
    vertex 31.276855558857214 2.499999999999973 16.86450739253163
  endloop
endfacet
facet normal -6.816220751132482e-17 -1.0 -8.747895875229757e-16
  outer loop
    vertex 31.276855558857214 2.499999999999973 16.86450739253163
    vertex 45.0 2.4999999999999862 20.499999999999982
    vertex 31.676295349746137 2.499999999999973 18.04121907152603
  endloop
endfacet
facet normal -6.816220751132482e-17 -1.0 -8.747895875229757e-16
  outer loop
    vertex 31.676295349746137 2.499999999999973 18.04121907152603
    vertex 45.0 2.4999999999999862 20.499999999999982
    vertex 31.91872618305119 2.499999999999973 19.260001173909487
  endloop
endfacet
facet normal -6.816220751132482e-17 -1.0 -8.747895875229757e-16
  outer loop
    vertex 31.91872618305119 2.499999999999973 19.260001173909487
    vertex 45.0 2.4999999999999862 20.499999999999982
    vertex 31.999999999999996 2.499999999999973 20.499999999999982
  endloop
endfacet
facet normal -6.816220751132482e-17 -1.0 -8.747895875229757e-16
  outer loop
    vertex 45.0 2.5 -9.999999999999996
    vertex -1.9999999999999991 2.4999999999999862 20.499999999999996
    vertex -1.9999999999999991 2.4999999999999996 -9.999999999999996
  endloop
endfacet
facet normal -6.816220751132482e-17 -1.0 -8.747895875229757e-16
  outer loop
    vertex -1.9999999999999991 2.4999999999999862 20.499999999999996
    vertex 45.0 2.5 -9.999999999999996
    vertex 16.716766424417145 2.499999999999973 12.96314326723326
  endloop
endfacet
facet normal -6.816220751132482e-17 -1.0 -8.747895875229757e-16
  outer loop
    vertex 16.716766424417145 2.499999999999973 12.96314326723326
    vertex 45.0 2.5 -9.999999999999996
    vertex 28.283233575582834 2.499999999999973 12.963143267233253
  endloop
endfacet
facet normal -6.816220751132482e-17 -1.0 -8.747895875229757e-16
  outer loop
    vertex -1.9999999999999991 2.4999999999999862 20.499999999999996
    vertex 16.716766424417145 2.499999999999973 12.96314326723326
    vertex 15.78248557872779 2.499999999999973 13.782485578727796
  endloop
endfacet
facet normal -6.816220751132482e-17 -1.0 -8.747895875229757e-16
  outer loop
    vertex -1.9999999999999991 2.4999999999999862 20.499999999999996
    vertex 15.78248557872779 2.499999999999973 13.782485578727796
    vertex 14.963143267233256 2.499999999999973 14.716766424417154
  endloop
endfacet
facet normal -6.816220751132482e-17 -1.0 -8.747895875229757e-16
  outer loop
    vertex -1.9999999999999991 2.4999999999999862 20.499999999999996
    vertex 14.963143267233256 2.499999999999973 14.716766424417154
    vertex 14.272758664047823 2.499999999999973 15.75
  endloop
endfacet
facet normal -6.816220751132482e-17 -1.0 -8.747895875229757e-16
  outer loop
    vertex -1.9999999999999991 2.4999999999999862 20.499999999999996
    vertex 14.272758664047823 2.499999999999973 15.75
    vertex 13.723144441142768 2.499999999999973 16.864507392531646
  endloop
endfacet
facet normal -6.816220751132482e-17 -1.0 -8.747895875229757e-16
  outer loop
    vertex -1.9999999999999991 2.4999999999999862 20.499999999999996
    vertex 13.723144441142768 2.499999999999973 16.864507392531646
    vertex 13.323704650253848 2.499999999999973 18.04121907152605
  endloop
endfacet
facet normal -6.816220751132482e-17 -1.0 -8.747895875229757e-16
  outer loop
    vertex -1.9999999999999991 2.4999999999999862 20.499999999999996
    vertex 13.323704650253848 2.499999999999973 18.04121907152605
    vertex 13.081273816948794 2.499999999999973 19.260001173909508
  endloop
endfacet
facet normal -6.816220751132482e-17 -1.0 -8.747895875229757e-16
  outer loop
    vertex -1.9999999999999991 2.4999999999999862 20.499999999999996
    vertex 13.081273816948794 2.499999999999973 19.260001173909508
    vertex 12.999999999999996 2.499999999999973 20.499999999999996
  endloop
endfacet
facet normal 1.4996490457613515e-16 1.0 2.0137056096473407e-16
  outer loop
    vertex -1.999999999999995 39.5 20.499999999999996
    vertex 45.0 39.5 -9.999999999999996
    vertex -1.9999999999999991 39.5 -9.999999999999996
  endloop
endfacet
facet normal 1.4996490457613515e-16 1.0 2.0137056096473407e-16
  outer loop
    vertex 45.0 39.5 -9.999999999999996
    vertex -1.999999999999995 39.5 20.499999999999996
    vertex 16.716766424417145 39.5 12.96314326723326
  endloop
endfacet
facet normal 1.4996490457613515e-16 1.0 2.0137056096473407e-16
  outer loop
    vertex 45.0 39.5 -9.999999999999996
    vertex 16.716766424417145 39.5 12.96314326723326
    vertex 28.283233575582834 39.5 12.963143267233253
  endloop
endfacet
facet normal 1.4996490457613515e-16 1.0 2.0137056096473407e-16
  outer loop
    vertex 16.716766424417145 39.5 12.96314326723326
    vertex -1.999999999999995 39.5 20.499999999999996
    vertex 15.78248557872779 39.5 13.782485578727796
  endloop
endfacet
facet normal 1.4996490457613515e-16 1.0 2.0137056096473407e-16
  outer loop
    vertex 15.78248557872779 39.5 13.782485578727796
    vertex -1.999999999999995 39.5 20.499999999999996
    vertex 14.963143267233256 39.5 14.716766424417154
  endloop
endfacet
facet normal 1.4996490457613515e-16 1.0 2.0137056096473407e-16
  outer loop
    vertex 14.963143267233256 39.5 14.716766424417154
    vertex -1.999999999999995 39.5 20.499999999999996
    vertex 14.272758664047823 39.5 15.75
  endloop
endfacet
facet normal 1.4996490457613515e-16 1.0 2.0137056096473407e-16
  outer loop
    vertex 14.272758664047823 39.5 15.75
    vertex -1.999999999999995 39.5 20.499999999999996
    vertex 13.723144441142768 39.5 16.864507392531646
  endloop
endfacet
facet normal 1.4996490457613515e-16 1.0 2.0137056096473407e-16
  outer loop
    vertex 13.723144441142768 39.5 16.864507392531646
    vertex -1.999999999999995 39.5 20.499999999999996
    vertex 13.323704650253848 39.5 18.04121907152605
  endloop
endfacet
facet normal 1.4996490457613515e-16 1.0 2.0137056096473407e-16
  outer loop
    vertex 13.323704650253848 39.5 18.04121907152605
    vertex -1.999999999999995 39.5 20.499999999999996
    vertex 13.081273816948794 39.5 19.260001173909508
  endloop
endfacet
facet normal 1.4996490457613515e-16 1.0 2.0137056096473407e-16
  outer loop
    vertex 13.081273816948794 39.5 19.260001173909508
    vertex -1.999999999999995 39.5 20.499999999999996
    vertex 12.999999999999996 39.5 20.499999999999996
  endloop
endfacet
facet normal 1.4996490457613515e-16 1.0 2.0137056096473407e-16
  outer loop
    vertex 28.283233575582834 39.5 12.963143267233253
    vertex 45.0 39.5 20.499999999999982
    vertex 45.0 39.5 -9.999999999999996
  endloop
endfacet
facet normal 1.4996490457613515e-16 1.0 2.0137056096473407e-16
  outer loop
    vertex 45.0 39.5 20.499999999999982
    vertex 28.283233575582834 39.5 12.963143267233253
    vertex 29.21751442127219 39.5 13.782485578727783
  endloop
endfacet
facet normal 1.4996490457613515e-16 1.0 2.0137056096473407e-16
  outer loop
    vertex 45.0 39.5 20.499999999999982
    vertex 29.21751442127219 39.5 13.782485578727783
    vertex 30.036856732766726 39.5 14.716766424417138
  endloop
endfacet
facet normal 1.4996490457613515e-16 1.0 2.0137056096473407e-16
  outer loop
    vertex 45.0 39.5 20.499999999999982
    vertex 30.036856732766726 39.5 14.716766424417138
    vertex 30.727241335952158 39.5 15.749999999999982
  endloop
endfacet
facet normal 1.4996490457613515e-16 1.0 2.0137056096473407e-16
  outer loop
    vertex 45.0 39.5 20.499999999999982
    vertex 30.727241335952158 39.5 15.749999999999982
    vertex 31.276855558857214 39.5 16.86450739253163
  endloop
endfacet
facet normal 1.4996490457613515e-16 1.0 2.0137056096473407e-16
  outer loop
    vertex 45.0 39.5 20.499999999999982
    vertex 31.276855558857214 39.5 16.86450739253163
    vertex 31.676295349746137 39.5 18.04121907152603
  endloop
endfacet
facet normal 1.4996490457613515e-16 1.0 2.0137056096473407e-16
  outer loop
    vertex 45.0 39.5 20.499999999999982
    vertex 31.676295349746137 39.5 18.04121907152603
    vertex 31.91872618305119 39.5 19.260001173909487
  endloop
endfacet
facet normal 1.4996490457613515e-16 1.0 2.0137056096473407e-16
  outer loop
    vertex 45.0 39.5 20.499999999999982
    vertex 31.91872618305119 39.5 19.260001173909487
    vertex 31.999999999999996 39.5 20.499999999999982
  endloop
endfacet
facet normal 5.1986585501130454e-17 -5.077624953328076e-18 -1.0
  outer loop
    vertex 45.0 39.5 -9.999999999999996
    vertex -1.9999999999999991 2.4999999999999996 -9.999999999999996
    vertex -1.9999999999999991 39.5 -9.999999999999996
  endloop
endfacet
facet normal 5.1986585501130454e-17 -5.077624953328076e-18 -1.0
  outer loop
    vertex -1.9999999999999991 2.4999999999999996 -9.999999999999996
    vertex 45.0 39.5 -9.999999999999996
    vertex 45.0 2.5 -9.999999999999996
  endloop
endfacet
facet normal -0.0 -0.0 1.0
  outer loop
    vertex 12.999999999999996 2.499999999999973 20.499999999999996
    vertex -1.999999999999995 39.5 20.499999999999996
    vertex -1.9999999999999991 2.4999999999999862 20.499999999999996
  endloop
endfacet
facet normal -0.0 -0.0 1.0
  outer loop
    vertex -1.999999999999995 39.5 20.499999999999996
    vertex 12.999999999999996 2.499999999999973 20.499999999999996
    vertex 12.999999999999996 39.5 20.499999999999996
  endloop
endfacet
facet normal -0.9999999998540672 -5.35159314106e-06 1.6224251321250245e-05
  outer loop
    vertex -1.999999999999995 39.5 20.499999999999996
    vertex -1.9999999999999991 2.4999999999999996 -9.999999999999996
    vertex -1.9999999999999991 2.4999999999999862 20.499999999999996
  endloop
endfacet
facet normal -0.9999999998540672 -5.35159314106e-06 1.6224251321250245e-05
  outer loop
    vertex -1.9999999999999991 2.4999999999999996 -9.999999999999996
    vertex -1.999999999999995 39.5 20.499999999999996
    vertex -1.9999999999999991 39.5 -9.999999999999996
  endloop
endfacet
endsolid z-sled_v1
