solid z-sled_v3
facet normal 0.9999999999998361 -5.726206346186405e-07 9.500018098466282e-23
  outer loop
    vertex 45.00000000029186 3.244850264250143e-05 1.0703186288671394e-05
    vertex 45.00000973484265 17.000032448506133 37.000010703186305
    vertex 45.00000000029186 3.24485026368615e-05 37.000010703186234
  endloop
endfacet
facet normal 0.9999999999998361 -5.726206346186405e-07 9.500018098466282e-23
  outer loop
    vertex 45.00000973484265 17.000032448506133 37.000010703186305
    vertex 45.00000000029186 3.244850264250143e-05 1.0703186288671394e-05
    vertex 45.00000973484265 17.000032448506126 18.50001070318629
  endloop
endfacet
facet normal 0.9999999999998361 -5.726206346186405e-07 9.500018098466282e-23
  outer loop
    vertex 45.00000973484265 17.000032448506126 18.50001070318629
    vertex 45.00000000029186 3.244850264250143e-05 1.0703186288671394e-05
    vertex 45.00000973484265 17.000032448506115 1.0703186273866571e-05
  endloop
endfacet
facet normal -0.9978589232386036 0.06540312923014333 -1.9875145938993425e-17
  outer loop
    vertex 31.91873591789385 15.760033622415628 37.00001070318629
    vertex 32.00000973484265 17.000032448506115 1.0703186273866571e-05
    vertex 31.91873591789385 15.76003362241561 1.0703186297131295e-05
  endloop
endfacet
facet normal -0.9978589232386036 0.06540312923014333 -1.9875145938993425e-17
  outer loop
    vertex 32.00000973484265 17.000032448506115 1.0703186273866571e-05
    vertex 31.91873591789385 15.760033622415628 37.00001070318629
    vertex 32.00000973484265 17.00003244850612 18.50001070318629
  endloop
endfacet
facet normal -0.9978589232386036 0.06540312923014333 -1.9875145938993425e-17
  outer loop
    vertex 32.00000973484265 17.00003244850612 18.50001070318629
    vertex 31.91873591789385 15.760033622415628 37.00001070318629
    vertex 32.00000973484265 17.000032448506122 37.000010703186305
  endloop
endfacet
facet normal -0.9807852804032285 0.1950903220161386 -1.6360754319375954e-16
  outer loop
    vertex 31.676305084588794 14.541251520032212 37.000010703186334
    vertex 31.91873591789385 15.76003362241561 1.0703186297131295e-05
    vertex 31.676305084588794 14.541251520032167 1.0703186283736453e-05
  endloop
endfacet
facet normal -0.9807852804032285 0.1950903220161386 -1.6360754319375954e-16
  outer loop
    vertex 31.91873591789385 15.76003362241561 1.0703186297131295e-05
    vertex 31.676305084588794 14.541251520032212 37.000010703186334
    vertex 31.91873591789385 15.760033622415628 37.00001070318629
  endloop
endfacet
facet normal -0.9469301294951082 0.32143946530315415 -9.822676844602549e-17
  outer loop
    vertex 31.676305084588794 14.541251520032212 37.000010703186334
    vertex 31.276865293699874 13.364539841037784 1.070318629748379e-05
    vertex 31.276865293699874 13.364539841037761 37.000010703186284
  endloop
endfacet
facet normal -0.9469301294951082 0.32143946530315415 -9.822676844602549e-17
  outer loop
    vertex 31.276865293699874 13.364539841037784 1.070318629748379e-05
    vertex 31.676305084588794 14.541251520032212 37.000010703186334
    vertex 31.676305084588794 14.541251520032167 1.0703186283736453e-05
  endloop
endfacet
facet normal -0.8968727415326875 0.44228869021900297 3.030211254694082e-16
  outer loop
    vertex 31.276865293699874 13.364539841037761 37.000010703186284
    vertex 30.72725107079481 12.250032448506133 1.0703186285146436e-05
    vertex 30.72725107079481 12.250032448506104 37.00001070318629
  endloop
endfacet
facet normal -0.8968727415326875 0.44228869021900297 3.030211254694082e-16
  outer loop
    vertex 30.72725107079481 12.250032448506133 1.0703186285146436e-05
    vertex 31.276865293699874 13.364539841037761 37.000010703186284
    vertex 31.276865293699874 13.364539841037784 1.070318629748379e-05
  endloop
endfacet
facet normal -0.8314696123025452 0.5555702330196022 -1.2671773826536183e-16
  outer loop
    vertex 30.036866467609382 11.216798872923299 37.000010703186284
    vertex 30.72725107079481 12.250032448506133 1.0703186285146436e-05
    vertex 30.036866467609382 11.216798872923253 1.0703186296073807e-05
  endloop
endfacet
facet normal -0.8314696123025452 0.5555702330196022 -1.2671773826536183e-16
  outer loop
    vertex 30.72725107079481 12.250032448506133 1.0703186285146436e-05
    vertex 30.036866467609382 11.216798872923299 37.000010703186284
    vertex 30.72725107079481 12.250032448506104 37.00001070318629
  endloop
endfacet
facet normal -0.7518398074789748 0.6593458151000717 -3.0178712122464354e-16
  outer loop
    vertex 30.036866467609382 11.216798872923299 37.000010703186284
    vertex 29.217524156114845 10.282518027233928 1.0703186279154009e-05
    vertex 29.217524156114845 10.282518027233916 37.00001070318628
  endloop
endfacet
facet normal -0.7518398074789748 0.6593458151000717 -3.0178712122464354e-16
  outer loop
    vertex 29.217524156114845 10.282518027233928 1.0703186279154009e-05
    vertex 30.036866467609382 11.216798872923299 37.000010703186284
    vertex 30.036866467609382 11.216798872923253 1.0703186296073807e-05
  endloop
endfacet
facet normal -0.6593458151000636 0.7518398074789822 3.64967245957721e-16
  outer loop
    vertex 28.28324331042549 9.46317571573942 3.7500107031862475
    vertex 29.217524156114845 10.282518027233928 1.0703186279154009e-05
    vertex 28.28324331042549 9.463175715739407 1.0703186278449016e-05
  endloop
endfacet
facet normal -0.6593458151000636 0.7518398074789822 3.64967245957721e-16
  outer loop
    vertex 29.217524156114845 10.282518027233928 1.0703186279154009e-05
    vertex 28.28324331042549 9.46317571573942 3.7500107031862475
    vertex 29.217524156114845 10.282518027233916 37.00001070318628
  endloop
endfacet
facet normal -0.6593458151000636 0.7518398074789822 3.64967245957721e-16
  outer loop
    vertex 29.217524156114845 10.282518027233916 37.00001070318628
    vertex 28.28324331042549 9.46317571573942 3.7500107031862475
    vertex 28.28324331042549 9.463175715739402 33.25001070318627
  endloop
endfacet
facet normal -0.6593458151000636 0.7518398074789822 3.64967245957721e-16
  outer loop
    vertex 29.217524156114845 10.282518027233916 37.00001070318628
    vertex 28.28324331042549 9.463175715739402 33.25001070318627
    vertex 28.28324331042549 9.463175715739386 37.00001070318627
  endloop
endfacet
facet normal -0.5555702330196206 0.8314696123025329 8.051845232009293e-17
  outer loop
    vertex 27.25000973484265 8.772791112553943 3.7500107031862955
    vertex 28.28324331042549 9.463175715739402 33.25001070318627
    vertex 28.28324331042549 9.46317571573942 3.7500107031862475
  endloop
endfacet
facet normal -0.5555702330196206 0.8314696123025329 8.051845232009293e-17
  outer loop
    vertex 28.28324331042549 9.463175715739402 33.25001070318627
    vertex 27.25000973484265 8.772791112553943 3.7500107031862955
    vertex 27.25000973484265 8.772791112553953 33.25001070318628
  endloop
endfacet
facet normal -0.4422886902189779 0.8968727415327 1.717635207279247e-16
  outer loop
    vertex 26.135502342310996 8.223176889648913 33.2500107031863
    vertex 27.25000973484265 8.772791112553943 3.7500107031862955
    vertex 26.135502342310996 8.223176889648936 3.750010703186252
  endloop
endfacet
facet normal -0.4422886902189779 0.8968727415327 1.717635207279247e-16
  outer loop
    vertex 27.25000973484265 8.772791112553943 3.7500107031862955
    vertex 26.135502342310996 8.223176889648913 33.2500107031863
    vertex 27.25000973484265 8.772791112553953 33.25001070318628
  endloop
endfacet
facet normal -0.32143946530317524 0.946930129495101 5.433064741893028e-16
  outer loop
    vertex 24.9587906633166 7.82373709875999 3.750010703186273
    vertex 26.135502342310996 8.223176889648913 33.2500107031863
    vertex 26.135502342310996 8.223176889648936 3.750010703186252
  endloop
endfacet
facet normal -0.32143946530317524 0.946930129495101 5.433064741893028e-16
  outer loop
    vertex 26.135502342310996 8.223176889648913 33.2500107031863
    vertex 24.9587906633166 7.82373709875999 3.750010703186273
    vertex 24.9587906633166 7.823737098759978 33.25001070318629
  endloop
endfacet
facet normal -0.19509032201612372 0.9807852804032313 -4.690778046992148e-16
  outer loop
    vertex 23.740008560933145 7.581306265454921 3.7500107031862955
    vertex 24.9587906633166 7.823737098759978 33.25001070318629
    vertex 24.9587906633166 7.82373709875999 3.750010703186273
  endloop
endfacet
facet normal -0.19509032201612372 0.9807852804032313 -4.690778046992148e-16
  outer loop
    vertex 24.9587906633166 7.823737098759978 33.25001070318629
    vertex 23.740008560933145 7.581306265454921 3.7500107031862955
    vertex 23.740008560933145 7.58130626545496 33.25001070318628
  endloop
endfacet
facet normal -0.06540312923012116 0.9978589232386049 -7.63047542057431e-16
  outer loop
    vertex 22.500009734842653 7.500032448506169 33.25001070318626
    vertex 23.740008560933145 7.581306265454921 3.7500107031862955
    vertex 22.500009734842653 7.500032448506164 3.7500107031862604
  endloop
endfacet
facet normal -0.06540312923012116 0.9978589232386049 -7.63047542057431e-16
  outer loop
    vertex 23.740008560933145 7.581306265454921 3.7500107031862955
    vertex 22.500009734842653 7.500032448506169 33.25001070318626
    vertex 23.740008560933145 7.58130626545496 33.25001070318628
  endloop
endfacet
facet normal 0.06540312923012327 0.9978589232386049 -6.676834947783111e-16
  outer loop
    vertex 21.260010908752157 7.581306265454926 3.7500107031862955
    vertex 22.500009734842653 7.500032448506169 33.25001070318626
    vertex 22.500009734842653 7.500032448506164 3.7500107031862604
  endloop
endfacet
facet normal 0.06540312923012327 0.9978589232386049 -6.676834947783111e-16
  outer loop
    vertex 22.500009734842653 7.500032448506169 33.25001070318626
    vertex 21.260010908752157 7.581306265454926 3.7500107031862955
    vertex 21.260010908752157 7.58130626545496 33.25001070318628
  endloop
endfacet
facet normal 0.19509032201612156 0.9807852804032318 -3.7510896394867174e-16
  outer loop
    vertex 20.041228806368704 7.823737098759978 33.25001070318629
    vertex 21.260010908752157 7.581306265454926 3.7500107031862955
    vertex 20.041228806368704 7.82373709875999 3.750010703186273
  endloop
endfacet
facet normal 0.19509032201612156 0.9807852804032318 -3.7510896394867174e-16
  outer loop
    vertex 21.260010908752157 7.581306265454926 3.7500107031862955
    vertex 20.041228806368704 7.823737098759978 33.25001070318629
    vertex 21.260010908752157 7.58130626545496 33.25001070318628
  endloop
endfacet
facet normal 0.32143946530317924 0.9469301294950997 6.342495323271062e-16
  outer loop
    vertex 18.8645171273743 8.223176889648919 33.2500107031863
    vertex 20.041228806368704 7.82373709875999 3.750010703186273
    vertex 18.8645171273743 8.223176889648947 3.7500107031862604
  endloop
endfacet
facet normal 0.32143946530317924 0.9469301294950997 6.342495323271062e-16
  outer loop
    vertex 20.041228806368704 7.82373709875999 3.750010703186273
    vertex 18.8645171273743 8.223176889648919 33.2500107031863
    vertex 20.041228806368704 7.823737098759978 33.25001070318629
  endloop
endfacet
facet normal 0.4422886902189815 0.8968727415326982 4.284214188877107e-16
  outer loop
    vertex 17.75000973484265 8.77279111255396 3.7500107031862897
    vertex 18.8645171273743 8.223176889648919 33.2500107031863
    vertex 18.8645171273743 8.223176889648947 3.7500107031862604
  endloop
endfacet
facet normal 0.4422886902189815 0.8968727415326982 4.284214188877107e-16
  outer loop
    vertex 18.8645171273743 8.223176889648919 33.2500107031863
    vertex 17.75000973484265 8.77279111255396 3.7500107031862897
    vertex 17.75000973484265 8.77279111255396 33.25001070318629
  endloop
endfacet
facet normal 0.5555702330196185 0.8314696123025345 3.977266794622464e-16
  outer loop
    vertex 16.716776159259805 9.463175715739407 33.250010703186284
    vertex 17.75000973484265 8.77279111255396 3.7500107031862897
    vertex 16.716776159259805 9.463175715739435 3.750010703186222
  endloop
endfacet
facet normal 0.5555702330196185 0.8314696123025345 3.977266794622464e-16
  outer loop
    vertex 17.75000973484265 8.77279111255396 3.7500107031862897
    vertex 16.716776159259805 9.463175715739407 33.250010703186284
    vertex 17.75000973484265 8.77279111255396 33.25001070318629
  endloop
endfacet
facet normal 0.659345815100063 0.7518398074789827 2.5997407746748233e-16
  outer loop
    vertex 15.782495313570452 10.282518027233934 1.0703186287966404e-05
    vertex 16.716776159259805 9.463175715739435 3.750010703186222
    vertex 16.716776159259805 9.463175715739407 1.070318628408895e-05
  endloop
endfacet
facet normal 0.659345815100063 0.7518398074789827 2.5997407746748233e-16
  outer loop
    vertex 16.716776159259805 9.463175715739435 3.750010703186222
    vertex 15.782495313570452 10.282518027233934 1.0703186287966404e-05
    vertex 15.782495313570452 10.282518027233928 37.00001070318628
  endloop
endfacet
facet normal 0.659345815100063 0.7518398074789827 2.5997407746748233e-16
  outer loop
    vertex 16.716776159259805 9.463175715739435 3.750010703186222
    vertex 15.782495313570452 10.282518027233928 37.00001070318628
    vertex 16.716776159259805 9.463175715739407 33.250010703186284
  endloop
endfacet
facet normal 0.659345815100063 0.7518398074789827 2.5997407746748233e-16
  outer loop
    vertex 16.716776159259805 9.463175715739407 33.250010703186284
    vertex 15.782495313570452 10.282518027233928 37.00001070318628
    vertex 16.716776159259805 9.463175715739402 37.000010703186284
  endloop
endfacet
facet normal 0.7518398074789819 0.6593458151000637 -4.982670200268468e-17
  outer loop
    vertex 15.782495313570452 10.282518027233934 1.0703186287966404e-05
    vertex 14.96315300207592 11.216798872923304 37.000010703186284
    vertex 15.782495313570452 10.282518027233928 37.00001070318628
  endloop
endfacet
facet normal 0.7518398074789819 0.6593458151000637 -4.982670200268468e-17
  outer loop
    vertex 14.96315300207592 11.216798872923304 37.000010703186284
    vertex 15.782495313570452 10.282518027233934 1.0703186287966404e-05
    vertex 14.96315300207592 11.216798872923292 1.0703186292901345e-05
  endloop
endfacet
facet normal 0.8314696123025397 0.5555702330196105 8.448465862964287e-17
  outer loop
    vertex 14.272768398890484 12.250032448506138 1.0703186302771227e-05
    vertex 14.96315300207592 11.216798872923304 37.000010703186284
    vertex 14.96315300207592 11.216798872923292 1.0703186292901345e-05
  endloop
endfacet
facet normal 0.8314696123025397 0.5555702330196105 8.448465862964287e-17
  outer loop
    vertex 14.96315300207592 11.216798872923304 37.000010703186284
    vertex 14.272768398890484 12.250032448506138 1.0703186302771227e-05
    vertex 14.272768398890484 12.250032448506115 37.000010703186256
  endloop
endfacet
facet normal 0.8968727415326934 0.4422886902189912 2.690228923678444e-16
  outer loop
    vertex 14.272768398890484 12.250032448506138 1.0703186302771227e-05
    vertex 13.723154175985432 13.364539841037784 37.000010703186284
    vertex 14.272768398890484 12.250032448506115 37.000010703186256
  endloop
endfacet
facet normal 0.8968727415326934 0.4422886902189912 2.690228923678444e-16
  outer loop
    vertex 13.723154175985432 13.364539841037784 37.000010703186284
    vertex 14.272768398890484 12.250032448506138 1.0703186302771227e-05
    vertex 13.723154175985432 13.364539841037807 1.0703186280916488e-05
  endloop
endfacet
facet normal 0.9469301294951058 0.3214394653031611 -1.9554091205975031e-16
  outer loop
    vertex 13.723154175985432 13.364539841037807 1.0703186280916488e-05
    vertex 13.323714385096508 14.541251520032235 37.00001070318633
    vertex 13.723154175985432 13.364539841037784 37.000010703186284
  endloop
endfacet
facet normal 0.9469301294951058 0.3214394653031611 -1.9554091205975031e-16
  outer loop
    vertex 13.323714385096508 14.541251520032235 37.00001070318633
    vertex 13.723154175985432 13.364539841037807 1.0703186280916488e-05
    vertex 13.323714385096508 14.541251520032167 1.0703186299951261e-05
  endloop
endfacet
facet normal 0.9807852804032298 0.19509032201613158 -1.936001428164593e-16
  outer loop
    vertex 13.081283551791456 15.760033622415644 1.0703186292196353e-05
    vertex 13.323714385096508 14.541251520032235 37.00001070318633
    vertex 13.323714385096508 14.541251520032167 1.0703186299951261e-05
  endloop
endfacet
facet normal 0.9807852804032298 0.19509032201613158 -1.936001428164593e-16
  outer loop
    vertex 13.323714385096508 14.541251520032235 37.00001070318633
    vertex 13.081283551791456 15.760033622415644 1.0703186292196353e-05
    vertex 13.081283551791456 15.760033622415651 37.00001070318629
  endloop
endfacet
facet normal 0.9978589232386038 0.06540312923013879 -2.0069155435849884e-17
  outer loop
    vertex 13.00000973484266 17.00003244850614 1.0703186259766739e-05
    vertex 13.081283551791456 15.760033622415651 37.00001070318629
    vertex 13.081283551791456 15.760033622415644 1.0703186292196353e-05
  endloop
endfacet
facet normal 0.9978589232386038 0.06540312923013879 -2.0069155435849884e-17
  outer loop
    vertex 13.081283551791456 15.760033622415651 37.00001070318629
    vertex 13.00000973484266 17.00003244850614 1.0703186259766739e-05
    vertex 13.00000973484266 17.000032448506158 37.000010703186305
  endloop
endfacet
facet normal -6.507614959725918e-16 1.0 -3.0486124135652927e-16
  outer loop
    vertex 32.00000973484265 17.000032448506122 37.000010703186305
    vertex 45.00000973484265 17.000032448506126 18.50001070318629
    vertex 32.00000973484265 17.00003244850612 18.50001070318629
  endloop
endfacet
facet normal -6.507614959725918e-16 1.0 -3.0486124135652927e-16
  outer loop
    vertex 45.00000973484265 17.000032448506126 18.50001070318629
    vertex 32.00000973484265 17.000032448506122 37.000010703186305
    vertex 45.00000973484265 17.000032448506133 37.000010703186305
  endloop
endfacet
facet normal -9.296554363853126e-16 1.6976247816151953e-14 1.0
  outer loop
    vertex 17.75000973484265 8.77279111255396 3.7500107031862897
    vertex 28.28324331042549 9.46317571573942 3.7500107031862475
    vertex 16.716776159259805 9.463175715739435 3.750010703186222
  endloop
endfacet
facet normal -9.296554363853126e-16 1.6976247816151953e-14 1.0
  outer loop
    vertex 28.28324331042549 9.46317571573942 3.7500107031862475
    vertex 17.75000973484265 8.77279111255396 3.7500107031862897
    vertex 18.8645171273743 8.223176889648947 3.7500107031862604
  endloop
endfacet
facet normal -9.296554363853126e-16 1.6976247816151953e-14 1.0
  outer loop
    vertex 28.28324331042549 9.46317571573942 3.7500107031862475
    vertex 18.8645171273743 8.223176889648947 3.7500107031862604
    vertex 20.041228806368704 7.82373709875999 3.750010703186273
  endloop
endfacet
facet normal -9.296554363853126e-16 1.6976247816151953e-14 1.0
  outer loop
    vertex 28.28324331042549 9.46317571573942 3.7500107031862475
    vertex 20.041228806368704 7.82373709875999 3.750010703186273
    vertex 21.260010908752157 7.581306265454926 3.7500107031862955
  endloop
endfacet
facet normal -9.296554363853126e-16 1.6976247816151953e-14 1.0
  outer loop
    vertex 28.28324331042549 9.46317571573942 3.7500107031862475
    vertex 21.260010908752157 7.581306265454926 3.7500107031862955
    vertex 22.500009734842653 7.500032448506164 3.7500107031862604
  endloop
endfacet
facet normal -9.296554363853126e-16 1.6976247816151953e-14 1.0
  outer loop
    vertex 28.28324331042549 9.46317571573942 3.7500107031862475
    vertex 22.500009734842653 7.500032448506164 3.7500107031862604
    vertex 23.740008560933145 7.581306265454921 3.7500107031862955
  endloop
endfacet
facet normal -9.296554363853126e-16 1.6976247816151953e-14 1.0
  outer loop
    vertex 28.28324331042549 9.46317571573942 3.7500107031862475
    vertex 23.740008560933145 7.581306265454921 3.7500107031862955
    vertex 24.9587906633166 7.82373709875999 3.750010703186273
  endloop
endfacet
facet normal -9.296554363853126e-16 1.6976247816151953e-14 1.0
  outer loop
    vertex 28.28324331042549 9.46317571573942 3.7500107031862475
    vertex 24.9587906633166 7.82373709875999 3.750010703186273
    vertex 26.135502342310996 8.223176889648936 3.750010703186252
  endloop
endfacet
facet normal -9.296554363853126e-16 1.6976247816151953e-14 1.0
  outer loop
    vertex 28.28324331042549 9.46317571573942 3.7500107031862475
    vertex 26.135502342310996 8.223176889648936 3.750010703186252
    vertex 27.25000973484265 8.772791112553943 3.7500107031862955
  endloop
endfacet
facet normal 7.314160267849068e-16 1.0 -5.263937434089464e-15
  outer loop
    vertex 16.716776159259805 9.463175715739407 1.070318628408895e-05
    vertex 28.28324331042549 9.46317571573942 3.7500107031862475
    vertex 28.28324331042549 9.463175715739407 1.0703186278449016e-05
  endloop
endfacet
facet normal 7.314160267849068e-16 1.0 -5.263937434089464e-15
  outer loop
    vertex 28.28324331042549 9.46317571573942 3.7500107031862475
    vertex 16.716776159259805 9.463175715739407 1.070318628408895e-05
    vertex 16.716776159259805 9.463175715739435 3.750010703186222
  endloop
endfacet
facet normal -7.734415805203908e-16 1.1084024980963418e-16 -1.0
  outer loop
    vertex 28.28324331042549 9.463175715739402 33.25001070318627
    vertex 17.75000973484265 8.77279111255396 33.25001070318629
    vertex 16.716776159259805 9.463175715739407 33.250010703186284
  endloop
endfacet
facet normal -7.734415805203908e-16 1.1084024980963418e-16 -1.0
  outer loop
    vertex 17.75000973484265 8.77279111255396 33.25001070318629
    vertex 28.28324331042549 9.463175715739402 33.25001070318627
    vertex 18.8645171273743 8.223176889648919 33.2500107031863
  endloop
endfacet
facet normal -7.734415805203908e-16 1.1084024980963418e-16 -1.0
  outer loop
    vertex 18.8645171273743 8.223176889648919 33.2500107031863
    vertex 28.28324331042549 9.463175715739402 33.25001070318627
    vertex 20.041228806368704 7.823737098759978 33.25001070318629
  endloop
endfacet
facet normal -7.734415805203908e-16 1.1084024980963418e-16 -1.0
  outer loop
    vertex 20.041228806368704 7.823737098759978 33.25001070318629
    vertex 28.28324331042549 9.463175715739402 33.25001070318627
    vertex 21.260010908752157 7.58130626545496 33.25001070318628
  endloop
endfacet
facet normal -7.734415805203908e-16 1.1084024980963418e-16 -1.0
  outer loop
    vertex 21.260010908752157 7.58130626545496 33.25001070318628
    vertex 28.28324331042549 9.463175715739402 33.25001070318627
    vertex 22.500009734842653 7.500032448506169 33.25001070318626
  endloop
endfacet
facet normal -7.734415805203908e-16 1.1084024980963418e-16 -1.0
  outer loop
    vertex 22.500009734842653 7.500032448506169 33.25001070318626
    vertex 28.28324331042549 9.463175715739402 33.25001070318627
    vertex 23.740008560933145 7.58130626545496 33.25001070318628
  endloop
endfacet
facet normal -7.734415805203908e-16 1.1084024980963418e-16 -1.0
  outer loop
    vertex 23.740008560933145 7.58130626545496 33.25001070318628
    vertex 28.28324331042549 9.463175715739402 33.25001070318627
    vertex 24.9587906633166 7.823737098759978 33.25001070318629
  endloop
endfacet
facet normal -7.734415805203908e-16 1.1084024980963418e-16 -1.0
  outer loop
    vertex 24.9587906633166 7.823737098759978 33.25001070318629
    vertex 28.28324331042549 9.463175715739402 33.25001070318627
    vertex 26.135502342310996 8.223176889648913 33.2500107031863
  endloop
endfacet
facet normal -7.734415805203908e-16 1.1084024980963418e-16 -1.0
  outer loop
    vertex 26.135502342310996 8.223176889648913 33.2500107031863
    vertex 28.28324331042549 9.463175715739402 33.25001070318627
    vertex 27.25000973484265 8.772791112553953 33.25001070318628
  endloop
endfacet
facet normal 9.752213690465394e-16 1.0 3.0079642480510916e-15
  outer loop
    vertex 16.716776159259805 9.463175715739407 33.250010703186284
    vertex 28.28324331042549 9.463175715739386 37.00001070318627
    vertex 28.28324331042549 9.463175715739402 33.25001070318627
  endloop
endfacet
facet normal 9.752213690465394e-16 1.0 3.0079642480510916e-15
  outer loop
    vertex 28.28324331042549 9.463175715739386 37.00001070318627
    vertex 16.716776159259805 9.463175715739407 33.250010703186284
    vertex 16.716776159259805 9.463175715739402 37.000010703186284
  endloop
endfacet
facet normal -1.5479328676990457e-07 -1.6958527706188144e-07 0.9999999999999738
  outer loop
    vertex -3.070407612919745e-17 -7.049916206369744e-15 36.999999999999964
    vertex 16.716776159259805 9.463175715739402 37.000010703186284
    vertex 9.734550792895973e-06 17.000000000003546 36.999999999999986
  endloop
endfacet
facet normal -1.5479328676990457e-07 -1.6958527706188144e-07 0.9999999999999738
  outer loop
    vertex 16.716776159259805 9.463175715739402 37.000010703186284
    vertex -3.070407612919745e-17 -7.049916206369744e-15 36.999999999999964
    vertex 45.00000000029186 3.24485026368615e-05 37.000010703186234
  endloop
endfacet
facet normal -1.5479328676990457e-07 -1.6958527706188144e-07 0.9999999999999738
  outer loop
    vertex 9.734550792895973e-06 17.000000000003546 36.999999999999986
    vertex 16.716776159259805 9.463175715739402 37.000010703186284
    vertex 15.782495313570452 10.282518027233928 37.00001070318628
  endloop
endfacet
facet normal -1.5479328676990457e-07 -1.6958527706188144e-07 0.9999999999999738
  outer loop
    vertex 9.734550792895973e-06 17.000000000003546 36.999999999999986
    vertex 15.782495313570452 10.282518027233928 37.00001070318628
    vertex 14.96315300207592 11.216798872923304 37.000010703186284
  endloop
endfacet
facet normal -1.5479328676990457e-07 -1.6958527706188144e-07 0.9999999999999738
  outer loop
    vertex 9.734550792895973e-06 17.000000000003546 36.999999999999986
    vertex 14.96315300207592 11.216798872923304 37.000010703186284
    vertex 14.272768398890484 12.250032448506115 37.000010703186256
  endloop
endfacet
facet normal -1.5479328676990457e-07 -1.6958527706188144e-07 0.9999999999999738
  outer loop
    vertex 9.734550792895973e-06 17.000000000003546 36.999999999999986
    vertex 14.272768398890484 12.250032448506115 37.000010703186256
    vertex 13.723154175985432 13.364539841037784 37.000010703186284
  endloop
endfacet
facet normal -1.5479328676990457e-07 -1.6958527706188144e-07 0.9999999999999738
  outer loop
    vertex 9.734550792895973e-06 17.000000000003546 36.999999999999986
    vertex 13.723154175985432 13.364539841037784 37.000010703186284
    vertex 13.323714385096508 14.541251520032235 37.00001070318633
  endloop
endfacet
facet normal -1.5479328676990457e-07 -1.6958527706188144e-07 0.9999999999999738
  outer loop
    vertex 9.734550792895973e-06 17.000000000003546 36.999999999999986
    vertex 13.323714385096508 14.541251520032235 37.00001070318633
    vertex 13.081283551791456 15.760033622415651 37.00001070318629
  endloop
endfacet
facet normal -1.5479328676990457e-07 -1.6958527706188144e-07 0.9999999999999738
  outer loop
    vertex 9.734550792895973e-06 17.000000000003546 36.999999999999986
    vertex 13.081283551791456 15.760033622415651 37.00001070318629
    vertex 13.00000973484266 17.000032448506158 37.000010703186305
  endloop
endfacet
facet normal -1.5479328676990457e-07 -1.6958527706188144e-07 0.9999999999999738
  outer loop
    vertex 16.716776159259805 9.463175715739402 37.000010703186284
    vertex 45.00000000029186 3.24485026368615e-05 37.000010703186234
    vertex 28.28324331042549 9.463175715739386 37.00001070318627
  endloop
endfacet
facet normal -1.5479328676990457e-07 -1.6958527706188144e-07 0.9999999999999738
  outer loop
    vertex 28.28324331042549 9.463175715739386 37.00001070318627
    vertex 45.00000000029186 3.24485026368615e-05 37.000010703186234
    vertex 29.217524156114845 10.282518027233916 37.00001070318628
  endloop
endfacet
facet normal -1.5479328676990457e-07 -1.6958527706188144e-07 0.9999999999999738
  outer loop
    vertex 29.217524156114845 10.282518027233916 37.00001070318628
    vertex 45.00000000029186 3.24485026368615e-05 37.000010703186234
    vertex 30.036866467609382 11.216798872923299 37.000010703186284
  endloop
endfacet
facet normal -1.5479328676990457e-07 -1.6958527706188144e-07 0.9999999999999738
  outer loop
    vertex 30.036866467609382 11.216798872923299 37.000010703186284
    vertex 45.00000000029186 3.24485026368615e-05 37.000010703186234
    vertex 30.72725107079481 12.250032448506104 37.00001070318629
  endloop
endfacet
facet normal -1.5479328676990457e-07 -1.6958527706188144e-07 0.9999999999999738
  outer loop
    vertex 30.72725107079481 12.250032448506104 37.00001070318629
    vertex 45.00000000029186 3.24485026368615e-05 37.000010703186234
    vertex 31.276865293699874 13.364539841037761 37.000010703186284
  endloop
endfacet
facet normal -1.5479328676990457e-07 -1.6958527706188144e-07 0.9999999999999738
  outer loop
    vertex 31.276865293699874 13.364539841037761 37.000010703186284
    vertex 45.00000000029186 3.24485026368615e-05 37.000010703186234
    vertex 31.676305084588794 14.541251520032212 37.000010703186334
  endloop
endfacet
facet normal -1.5479328676990457e-07 -1.6958527706188144e-07 0.9999999999999738
  outer loop
    vertex 31.676305084588794 14.541251520032212 37.000010703186334
    vertex 45.00000000029186 3.24485026368615e-05 37.000010703186234
    vertex 31.91873591789385 15.760033622415628 37.00001070318629
  endloop
endfacet
facet normal -1.5479328676990457e-07 -1.6958527706188144e-07 0.9999999999999738
  outer loop
    vertex 31.91873591789385 15.760033622415628 37.00001070318629
    vertex 45.00000000029186 3.24485026368615e-05 37.000010703186234
    vertex 32.00000973484265 17.000032448506122 37.000010703186305
  endloop
endfacet
facet normal -1.5479328676990457e-07 -1.6958527706188144e-07 0.9999999999999738
  outer loop
    vertex 32.00000973484265 17.000032448506122 37.000010703186305
    vertex 45.00000000029186 3.24485026368615e-05 37.000010703186234
    vertex 45.00000973484265 17.000032448506133 37.000010703186305
  endloop
endfacet
facet normal 1.5479328644638e-07 1.6958527332293605e-07 -0.9999999999999738
  outer loop
    vertex -3.070407612919745e-17 0.0 0.0
    vertex 16.716776159259805 9.463175715739407 1.070318628408895e-05
    vertex 45.00000000029186 3.244850264250143e-05 1.0703186288671394e-05
  endloop
endfacet
facet normal 1.5479328644638e-07 1.6958527332293605e-07 -0.9999999999999738
  outer loop
    vertex 16.716776159259805 9.463175715739407 1.070318628408895e-05
    vertex -3.070407612919745e-17 0.0 0.0
    vertex 9.734550797125922e-06 17.000000000003528 3.1724622928663847e-15
  endloop
endfacet
facet normal 1.5479328644638e-07 1.6958527332293605e-07 -0.9999999999999738
  outer loop
    vertex 16.716776159259805 9.463175715739407 1.070318628408895e-05
    vertex 9.734550797125922e-06 17.000000000003528 3.1724622928663847e-15
    vertex 15.782495313570452 10.282518027233934 1.0703186287966404e-05
  endloop
endfacet
facet normal 1.5479328644638e-07 1.6958527332293605e-07 -0.9999999999999738
  outer loop
    vertex 15.782495313570452 10.282518027233934 1.0703186287966404e-05
    vertex 9.734550797125922e-06 17.000000000003528 3.1724622928663847e-15
    vertex 14.96315300207592 11.216798872923292 1.0703186292901345e-05
  endloop
endfacet
facet normal 1.5479328644638e-07 1.6958527332293605e-07 -0.9999999999999738
  outer loop
    vertex 14.96315300207592 11.216798872923292 1.0703186292901345e-05
    vertex 9.734550797125922e-06 17.000000000003528 3.1724622928663847e-15
    vertex 14.272768398890484 12.250032448506138 1.0703186302771227e-05
  endloop
endfacet
facet normal 1.5479328644638e-07 1.6958527332293605e-07 -0.9999999999999738
  outer loop
    vertex 14.272768398890484 12.250032448506138 1.0703186302771227e-05
    vertex 9.734550797125922e-06 17.000000000003528 3.1724622928663847e-15
    vertex 13.723154175985432 13.364539841037807 1.0703186280916488e-05
  endloop
endfacet
facet normal 1.5479328644638e-07 1.6958527332293605e-07 -0.9999999999999738
  outer loop
    vertex 13.723154175985432 13.364539841037807 1.0703186280916488e-05
    vertex 9.734550797125922e-06 17.000000000003528 3.1724622928663847e-15
    vertex 13.323714385096508 14.541251520032167 1.0703186299951261e-05
  endloop
endfacet
facet normal 1.5479328644638e-07 1.6958527332293605e-07 -0.9999999999999738
  outer loop
    vertex 13.323714385096508 14.541251520032167 1.0703186299951261e-05
    vertex 9.734550797125922e-06 17.000000000003528 3.1724622928663847e-15
    vertex 13.081283551791456 15.760033622415644 1.0703186292196353e-05
  endloop
endfacet
facet normal 1.5479328644638e-07 1.6958527332293605e-07 -0.9999999999999738
  outer loop
    vertex 13.081283551791456 15.760033622415644 1.0703186292196353e-05
    vertex 9.734550797125922e-06 17.000000000003528 3.1724622928663847e-15
    vertex 13.00000973484266 17.00003244850614 1.0703186259766739e-05
  endloop
endfacet
facet normal 1.5479328644638e-07 1.6958527332293605e-07 -0.9999999999999738
  outer loop
    vertex 45.00000000029186 3.244850264250143e-05 1.0703186288671394e-05
    vertex 16.716776159259805 9.463175715739407 1.070318628408895e-05
    vertex 28.28324331042549 9.463175715739407 1.0703186278449016e-05
  endloop
endfacet
facet normal 1.5479328644638e-07 1.6958527332293605e-07 -0.9999999999999738
  outer loop
    vertex 45.00000000029186 3.244850264250143e-05 1.0703186288671394e-05
    vertex 28.28324331042549 9.463175715739407 1.0703186278449016e-05
    vertex 29.217524156114845 10.282518027233928 1.0703186279154009e-05
  endloop
endfacet
facet normal 1.5479328644638e-07 1.6958527332293605e-07 -0.9999999999999738
  outer loop
    vertex 45.00000000029186 3.244850264250143e-05 1.0703186288671394e-05
    vertex 29.217524156114845 10.282518027233928 1.0703186279154009e-05
    vertex 30.036866467609382 11.216798872923253 1.0703186296073807e-05
  endloop
endfacet
facet normal 1.5479328644638e-07 1.6958527332293605e-07 -0.9999999999999738
  outer loop
    vertex 45.00000000029186 3.244850264250143e-05 1.0703186288671394e-05
    vertex 30.036866467609382 11.216798872923253 1.0703186296073807e-05
    vertex 30.72725107079481 12.250032448506133 1.0703186285146436e-05
  endloop
endfacet
facet normal 1.5479328644638e-07 1.6958527332293605e-07 -0.9999999999999738
  outer loop
    vertex 45.00000000029186 3.244850264250143e-05 1.0703186288671394e-05
    vertex 30.72725107079481 12.250032448506133 1.0703186285146436e-05
    vertex 31.276865293699874 13.364539841037784 1.070318629748379e-05
  endloop
endfacet
facet normal 1.5479328644638e-07 1.6958527332293605e-07 -0.9999999999999738
  outer loop
    vertex 45.00000000029186 3.244850264250143e-05 1.0703186288671394e-05
    vertex 31.276865293699874 13.364539841037784 1.070318629748379e-05
    vertex 31.676305084588794 14.541251520032167 1.0703186283736453e-05
  endloop
endfacet
facet normal 1.5479328644638e-07 1.6958527332293605e-07 -0.9999999999999738
  outer loop
    vertex 45.00000000029186 3.244850264250143e-05 1.0703186288671394e-05
    vertex 31.676305084588794 14.541251520032167 1.0703186283736453e-05
    vertex 31.91873591789385 15.76003362241561 1.0703186297131295e-05
  endloop
endfacet
facet normal 1.5479328644638e-07 1.6958527332293605e-07 -0.9999999999999738
  outer loop
    vertex 45.00000000029186 3.244850264250143e-05 1.0703186288671394e-05
    vertex 31.91873591789385 15.76003362241561 1.0703186297131295e-05
    vertex 32.00000973484265 17.000032448506115 1.0703186273866571e-05
  endloop
endfacet
facet normal 1.5479328644638e-07 1.6958527332293605e-07 -0.9999999999999738
  outer loop
    vertex 45.00000000029186 3.244850264250143e-05 1.0703186288671394e-05
    vertex 32.00000973484265 17.000032448506115 1.0703186273866571e-05
    vertex 45.00000973484265 17.000032448506115 1.0703186273866571e-05
  endloop
endfacet
facet normal 7.210778365108342e-07 -0.99999999999974 -1.7148446191559477e-16
  outer loop
    vertex 45.00000000029186 3.244850264250143e-05 1.0703186288671394e-05
    vertex 7.022156936232557 1.752757520854242e-05 14.53422590609791
    vertex 6.50005216735398 1.622438152615313e-05 14.500005351593154
  endloop
endfacet
facet normal 7.210778365108342e-07 -0.99999999999974 -1.7148446191559477e-16
  outer loop
    vertex 7.022156936232557 1.752757520854242e-05 14.53422590609791
    vertex 45.00000000029186 3.244850264250143e-05 1.0703186288671394e-05
    vertex 7.535328347760836 1.8808470897080376e-05 14.63630204643688
  endloop
endfacet
facet normal 7.210778365108342e-07 -0.99999999999974 -1.7148446191559477e-16
  outer loop
    vertex 7.535328347760836 1.8808470897080376e-05 14.63630204643688
    vertex 45.00000000029186 3.244850264250143e-05 1.0703186288671394e-05
    vertex 8.030785896809567 2.004515208298141e-05 14.804487221548007
  endloop
endfacet
facet normal 7.210778365108342e-07 -0.99999999999974 -1.7148446191559477e-16
  outer loop
    vertex 8.030785896809567 2.004515208298141e-05 14.804487221548007
    vertex 45.00000000029186 3.244850264250143e-05 1.0703186288671394e-05
    vertex 8.500052167347748 2.1216458843187344e-05 15.035903736455397
  endloop
endfacet
facet normal 7.210778365108342e-07 -0.99999999999974 -1.7148446191559477e-16
  outer loop
    vertex 8.500052167347748 2.1216458843187344e-05 15.035903736455397
    vertex 45.00000000029186 3.244850264250143e-05 1.0703186288671394e-05
    vertex 45.00000000029186 3.24485026368615e-05 37.000010703186234
  endloop
endfacet
facet normal 7.210778365108342e-07 -0.99999999999974 -1.7148446191559477e-16
  outer loop
    vertex 8.500052167347748 2.1216458843187344e-05 15.035903736455397
    vertex 45.00000000029186 3.24485026368615e-05 37.000010703186234
    vertex 8.935097883381275 2.2302349766145643e-05 15.326591990428211
  endloop
endfacet
facet normal 7.210778365108342e-07 -0.99999999999974 -1.7148446191559477e-16
  outer loop
    vertex 8.935097883381275 2.2302349766145643e-05 15.326591990428211
    vertex 45.00000000029186 3.24485026368615e-05 37.000010703186234
    vertex 9.328479292091355 2.328424497253234e-05 15.671578226846961
  endloop
endfacet
facet normal 7.210778365108342e-07 -0.99999999999974 -1.7148446191559477e-16
  outer loop
    vertex 9.328479292091355 2.328424497253234e-05 15.671578226846961
    vertex 45.00000000029186 3.24485026368615e-05 37.000010703186234
    vertex 9.673465528509032 2.4145343959314224e-05 16.064959635558267
  endloop
endfacet
facet normal 7.210778365108342e-07 -0.99999999999974 -1.7148446191559477e-16
  outer loop
    vertex 9.673465528509032 2.4145343959314224e-05 16.064959635558267
    vertex 45.00000000029186 3.24485026368615e-05 37.000010703186234
    vertex 9.964153782480942 2.4870913078411935e-05 16.50000535159315
  endloop
endfacet
facet normal 7.210778365108342e-07 -0.99999999999974 -1.7148446191559477e-16
  outer loop
    vertex 9.964153782480942 2.4870913078411935e-05 16.50000535159315
    vertex 45.00000000029186 3.24485026368615e-05 37.000010703186234
    vertex 10.195570297387611 2.5448537641703514e-05 16.96927162213279
  endloop
endfacet
facet normal 7.210778365108342e-07 -0.99999999999974 -1.7148446191559477e-16
  outer loop
    vertex 10.195570297387611 2.5448537641703514e-05 16.96927162213279
    vertex 45.00000000029186 3.24485026368615e-05 37.000010703186234
    vertex 10.363755472498216 2.5868334343459586e-05 17.464729171183066
  endloop
endfacet
facet normal 7.210778365108342e-07 -0.99999999999974 -1.7148446191559477e-16
  outer loop
    vertex 10.363755472498216 2.5868334343459586e-05 17.464729171183066
    vertex 45.00000000029186 3.24485026368615e-05 37.000010703186234
    vertex 10.465831612836865 2.6123120345533656e-05 17.97790058271294
  endloop
endfacet
facet normal 7.210778365108342e-07 -0.99999999999974 -1.7148446191559477e-16
  outer loop
    vertex 10.465831612836865 2.6123120345533656e-05 17.97790058271294
    vertex 45.00000000029186 3.24485026368615e-05 37.000010703186234
    vertex 10.500052167341517 2.620853616022156e-05 18.500005351593153
  endloop
endfacet
facet normal 7.210778365108342e-07 -0.99999999999974 -1.7148446191559477e-16
  outer loop
    vertex 10.500052167341517 2.620853616022156e-05 18.500005351593153
    vertex 45.00000000029186 3.24485026368615e-05 37.000010703186234
    vertex 10.465831612836865 2.6123120345533656e-05 19.022110120473357
  endloop
endfacet
facet normal 7.210778365108342e-07 -0.99999999999974 -1.7148446191559477e-16
  outer loop
    vertex 10.465831612836865 2.6123120345533656e-05 19.022110120473357
    vertex 45.00000000029186 3.24485026368615e-05 37.000010703186234
    vertex 10.363755472498216 2.5868334343459586e-05 19.535281532003232
  endloop
endfacet
facet normal 7.210778365108342e-07 -0.99999999999974 -1.7148446191559477e-16
  outer loop
    vertex 10.363755472498216 2.5868334343459586e-05 19.535281532003232
    vertex 45.00000000029186 3.24485026368615e-05 37.000010703186234
    vertex 10.195570297387615 2.5448537641703514e-05 20.030739081053508
  endloop
endfacet
facet normal 7.210778365108342e-07 -0.99999999999974 -1.7148446191559477e-16
  outer loop
    vertex 10.195570297387615 2.5448537641703514e-05 20.030739081053508
    vertex 45.00000000029186 3.24485026368615e-05 37.000010703186234
    vertex 9.964153782480944 2.4870913078411935e-05 20.50000535159315
  endloop
endfacet
facet normal 7.210778365108342e-07 -0.99999999999974 -1.7148446191559477e-16
  outer loop
    vertex 9.964153782480944 2.4870913078411935e-05 20.50000535159315
    vertex 45.00000000029186 3.24485026368615e-05 37.000010703186234
    vertex 9.673465528509036 2.4145343959314224e-05 20.93505106762803
  endloop
endfacet
facet normal 7.210778365108342e-07 -0.99999999999974 -1.7148446191559477e-16
  outer loop
    vertex 9.673465528509036 2.4145343959314224e-05 20.93505106762803
    vertex 45.00000000029186 3.24485026368615e-05 37.000010703186234
    vertex 9.328479292091359 2.328424497253234e-05 21.32843247633934
  endloop
endfacet
facet normal 7.210778365108342e-07 -0.99999999999974 -1.7148446191559477e-16
  outer loop
    vertex 9.328479292091359 2.328424497253234e-05 21.32843247633934
    vertex 45.00000000029186 3.24485026368615e-05 37.000010703186234
    vertex 8.935097883381276 2.2302349766145643e-05 21.67341871275809
  endloop
endfacet
facet normal 7.210778365108342e-07 -0.99999999999974 -1.7148446191559477e-16
  outer loop
    vertex 8.935097883381276 2.2302349766145643e-05 21.67341871275809
    vertex 45.00000000029186 3.24485026368615e-05 37.000010703186234
    vertex 8.50005216734775 2.1216458843187344e-05 21.964106966730903
  endloop
endfacet
facet normal 7.210778365108342e-07 -0.99999999999974 -1.7148446191559477e-16
  outer loop
    vertex 8.50005216734775 2.1216458843187344e-05 21.964106966730903
    vertex 45.00000000029186 3.24485026368615e-05 37.000010703186234
    vertex 8.030785896809572 2.004515208298141e-05 22.195523481638297
  endloop
endfacet
facet normal 7.210778365108342e-07 -0.99999999999974 -1.7148446191559477e-16
  outer loop
    vertex 8.030785896809572 2.004515208298141e-05 22.195523481638297
    vertex 45.00000000029186 3.24485026368615e-05 37.000010703186234
    vertex 7.53532834776084 1.8808470897080376e-05 22.363708656749424
  endloop
endfacet
facet normal 7.210778365108342e-07 -0.99999999999974 -1.7148446191559477e-16
  outer loop
    vertex 7.53532834776084 1.8808470897080376e-05 22.363708656749424
    vertex 45.00000000029186 3.24485026368615e-05 37.000010703186234
    vertex 7.022156936232563 1.752757520854242e-05 22.46578479708839
  endloop
endfacet
facet normal 7.210778365108342e-07 -0.99999999999974 -1.7148446191559477e-16
  outer loop
    vertex 7.022156936232563 1.752757520854242e-05 22.46578479708839
    vertex 45.00000000029186 3.24485026368615e-05 37.000010703186234
    vertex 6.50005216735398 1.622438152615313e-05 22.50000535159315
  endloop
endfacet
facet normal 7.210778365108342e-07 -0.99999999999974 -1.7148446191559477e-16
  outer loop
    vertex 6.50005216735398 1.622438152615313e-05 22.50000535159315
    vertex 45.00000000029186 3.24485026368615e-05 37.000010703186234
    vertex -3.070407612919745e-17 -7.049916206369744e-15 36.999999999999964
  endloop
endfacet
facet normal 7.210778365108342e-07 -0.99999999999974 -1.7148446191559477e-16
  outer loop
    vertex -3.070407612919745e-17 0.0 0.0
    vertex 2.5342727218711003 6.325642706772605e-06 17.977900582712948
    vertex -3.070407612919745e-17 -7.049916206369744e-15 36.999999999999964
  endloop
endfacet
facet normal 7.210778365108342e-07 -0.99999999999974 -1.7148446191559477e-16
  outer loop
    vertex 2.5342727218711003 6.325642706772605e-06 17.977900582712948
    vertex -3.070407612919745e-17 0.0 0.0
    vertex 2.6363488622097515 6.580428686286943e-06 17.46472917118307
  endloop
endfacet
facet normal 7.210778365108342e-07 -0.99999999999974 -1.7148446191559477e-16
  outer loop
    vertex 2.6363488622097515 6.580428686286943e-06 17.46472917118307
    vertex -3.070407612919745e-17 0.0 0.0
    vertex 2.804534037320353 7.000225388043013e-06 16.969271622132794
  endloop
endfacet
facet normal 7.210778365108342e-07 -0.99999999999974 -1.7148446191559477e-16
  outer loop
    vertex 2.804534037320353 7.000225388043013e-06 16.969271622132794
    vertex -3.070407612919745e-17 0.0 0.0
    vertex 3.0359505522270247 7.577849951334592e-06 16.500005351593153
  endloop
endfacet
facet normal 7.210778365108342e-07 -0.99999999999974 -1.7148446191559477e-16
  outer loop
    vertex 3.0359505522270247 7.577849951334592e-06 16.500005351593153
    vertex -3.070407612919745e-17 0.0 0.0
    vertex 3.3266388061989325 8.303419070432305e-06 16.06495963555827
  endloop
endfacet
facet normal 7.210778365108342e-07 -0.99999999999974 -1.7148446191559477e-16
  outer loop
    vertex 3.3266388061989325 8.303419070432305e-06 16.06495963555827
    vertex -3.070407612919745e-17 0.0 0.0
    vertex 3.6716250426166086 9.164518057214188e-06 15.671578226846963
  endloop
endfacet
facet normal 7.210778365108342e-07 -0.99999999999974 -1.7148446191559477e-16
  outer loop
    vertex 3.6716250426166086 9.164518057214188e-06 15.671578226846963
    vertex -3.070407612919745e-17 0.0 0.0
    vertex 4.06500645132669 1.0146413263600884e-05 15.326591990428215
  endloop
endfacet
facet normal 7.210778365108342e-07 -0.99999999999974 -1.7148446191559477e-16
  outer loop
    vertex 4.06500645132669 1.0146413263600884e-05 15.326591990428215
    vertex -3.070407612919745e-17 0.0 0.0
    vertex 4.5000521673602165 1.1232304186559183e-05 15.035903736455397
  endloop
endfacet
facet normal 7.210778365108342e-07 -0.99999999999974 -1.7148446191559477e-16
  outer loop
    vertex 4.5000521673602165 1.1232304186559183e-05 15.035903736455397
    vertex -3.070407612919745e-17 0.0 0.0
    vertex 4.969318437898396 1.2403610946765119e-05 14.804487221548007
  endloop
endfacet
facet normal 7.210778365108342e-07 -0.99999999999974 -1.7148446191559477e-16
  outer loop
    vertex 4.969318437898396 1.2403610946765119e-05 14.804487221548007
    vertex -3.070407612919745e-17 0.0 0.0
    vertex 45.00000000029186 3.244850264250143e-05 1.0703186288671394e-05
  endloop
endfacet
facet normal 7.210778365108342e-07 -0.99999999999974 -1.7148446191559477e-16
  outer loop
    vertex 4.969318437898396 1.2403610946765119e-05 14.804487221548007
    vertex 45.00000000029186 3.244850264250143e-05 1.0703186288671394e-05
    vertex 5.464775986947129 1.3640292132666153e-05 14.63630204643688
  endloop
endfacet
facet normal 7.210778365108342e-07 -0.99999999999974 -1.7148446191559477e-16
  outer loop
    vertex 5.464775986947129 1.3640292132666153e-05 14.63630204643688
    vertex 45.00000000029186 3.244850264250143e-05 1.0703186288671394e-05
    vertex 5.977947398475406 1.4921187821204107e-05 14.534225906097914
  endloop
endfacet
facet normal 7.210778365108342e-07 -0.99999999999974 -1.7148446191559477e-16
  outer loop
    vertex 5.977947398475406 1.4921187821204107e-05 14.534225906097914
    vertex 45.00000000029186 3.244850264250143e-05 1.0703186288671394e-05
    vertex 6.50005216735398 1.622438152615313e-05 14.500005351593154
  endloop
endfacet
facet normal 7.210778365108342e-07 -0.99999999999974 -1.7148446191559477e-16
  outer loop
    vertex -3.070407612919745e-17 -7.049916206369744e-15 36.999999999999964
    vertex 2.5342727218711003 6.325642706772605e-06 17.977900582712948
    vertex 2.500052167366449 6.240226869524967e-06 18.500005351593153
  endloop
endfacet
facet normal 7.210778365108342e-07 -0.99999999999974 -1.7148446191559477e-16
  outer loop
    vertex -3.070407612919745e-17 -7.049916206369744e-15 36.999999999999964
    vertex 2.500052167366449 6.240226869524967e-06 18.500005351593153
    vertex 2.534272721871101 6.325642706772605e-06 19.02211012047336
  endloop
endfacet
facet normal 7.210778365108342e-07 -0.99999999999974 -1.7148446191559477e-16
  outer loop
    vertex -3.070407612919745e-17 -7.049916206369744e-15 36.999999999999964
    vertex 2.534272721871101 6.325642706772605e-06 19.02211012047336
    vertex 2.6363488622097515 6.580428686286943e-06 19.535281532003236
  endloop
endfacet
facet normal 7.210778365108342e-07 -0.99999999999974 -1.7148446191559477e-16
  outer loop
    vertex -3.070407612919745e-17 -7.049916206369744e-15 36.999999999999964
    vertex 2.6363488622097515 6.580428686286943e-06 19.535281532003236
    vertex 2.804534037320354 7.000225388043013e-06 20.03073908105351
  endloop
endfacet
facet normal 7.210778365108342e-07 -0.99999999999974 -1.7148446191559477e-16
  outer loop
    vertex -3.070407612919745e-17 -7.049916206369744e-15 36.999999999999964
    vertex 2.804534037320354 7.000225388043013e-06 20.03073908105351
    vertex 3.0359505522270247 7.577849951334592e-06 20.500005351593153
  endloop
endfacet
facet normal 7.210778365108342e-07 -0.99999999999974 -1.7148446191559477e-16
  outer loop
    vertex -3.070407612919745e-17 -7.049916206369744e-15 36.999999999999964
    vertex 3.0359505522270247 7.577849951334592e-06 20.500005351593153
    vertex 3.326638806198933 8.303419070432305e-06 20.93505106762803
  endloop
endfacet
facet normal 7.210778365108342e-07 -0.99999999999974 -1.7148446191559477e-16
  outer loop
    vertex -3.070407612919745e-17 -7.049916206369744e-15 36.999999999999964
    vertex 3.326638806198933 8.303419070432305e-06 20.93505106762803
    vertex 3.6716250426166095 9.164518057214188e-06 21.32843247633934
  endloop
endfacet
facet normal 7.210778365108342e-07 -0.99999999999974 -1.7148446191559477e-16
  outer loop
    vertex -3.070407612919745e-17 -7.049916206369744e-15 36.999999999999964
    vertex 3.6716250426166095 9.164518057214188e-06 21.32843247633934
    vertex 4.065006451326691 1.0146413263600884e-05 21.673418712758092
  endloop
endfacet
facet normal 7.210778365108342e-07 -0.99999999999974 -1.7148446191559477e-16
  outer loop
    vertex -3.070407612919745e-17 -7.049916206369744e-15 36.999999999999964
    vertex 4.065006451326691 1.0146413263600884e-05 21.673418712758092
    vertex 4.500052167360218 1.1232304186559183e-05 21.964106966730906
  endloop
endfacet
facet normal 7.210778365108342e-07 -0.99999999999974 -1.7148446191559477e-16
  outer loop
    vertex -3.070407612919745e-17 -7.049916206369744e-15 36.999999999999964
    vertex 4.500052167360218 1.1232304186559183e-05 21.964106966730906
    vertex 4.969318437898397 1.2403610946765119e-05 22.195523481638297
  endloop
endfacet
facet normal 7.210778365108342e-07 -0.99999999999974 -1.7148446191559477e-16
  outer loop
    vertex -3.070407612919745e-17 -7.049916206369744e-15 36.999999999999964
    vertex 4.969318437898397 1.2403610946765119e-05 22.195523481638297
    vertex 5.46477598694713 1.3640292155225886e-05 22.363708656749424
  endloop
endfacet
facet normal 7.210778365108342e-07 -0.99999999999974 -1.7148446191559477e-16
  outer loop
    vertex -3.070407612919745e-17 -7.049916206369744e-15 36.999999999999964
    vertex 5.46477598694713 1.3640292155225886e-05 22.363708656749424
    vertex 5.977947398475408 1.4921187843763839e-05 22.46578479708839
  endloop
endfacet
facet normal 7.210778365108342e-07 -0.99999999999974 -1.7148446191559477e-16
  outer loop
    vertex -3.070407612919745e-17 -7.049916206369744e-15 36.999999999999964
    vertex 5.977947398475408 1.4921187843763839e-05 22.46578479708839
    vertex 6.50005216735398 1.622438152615313e-05 22.50000535159315
  endloop
endfacet
facet normal -2.4960386623533336e-06 0.9999999999968849 -5.18482844063856e-16
  outer loop
    vertex 9.734550797125922e-06 17.000000000003528 3.1724622928663847e-15
    vertex 3.0359081195697644 17.000007577723277 16.50000535159314
    vertex 13.00000973484266 17.00003244850614 1.0703186259766739e-05
  endloop
endfacet
facet normal -2.4960386623533336e-06 0.9999999999968849 -5.18482844063856e-16
  outer loop
    vertex 3.0359081195697644 17.000007577723277 16.50000535159314
    vertex 9.734550797125922e-06 17.000000000003528 3.1724622928663847e-15
    vertex 2.8044916046630926 17.00000700009871 16.96927162213278
  endloop
endfacet
facet normal -2.4960386623533336e-06 0.9999999999968849 -5.18482844063856e-16
  outer loop
    vertex 2.8044916046630926 17.00000700009871 16.96927162213278
    vertex 9.734550797125922e-06 17.000000000003528 3.1724622928663847e-15
    vertex 2.636306429552491 17.00000658030201 17.464729171183055
  endloop
endfacet
facet normal -2.4960386623533336e-06 0.9999999999968849 -5.18482844063856e-16
  outer loop
    vertex 2.636306429552491 17.00000658030201 17.464729171183055
    vertex 9.734550797125922e-06 17.000000000003528 3.1724622928663847e-15
    vertex 2.53423028921384 17.00000632551602 17.977900582712934
  endloop
endfacet
facet normal -2.4960386623533336e-06 0.9999999999968849 -5.18482844063856e-16
  outer loop
    vertex 2.53423028921384 17.00000632551602 17.977900582712934
    vertex 9.734550797125922e-06 17.000000000003528 3.1724622928663847e-15
    vertex 9.734550792895973e-06 17.000000000003546 36.999999999999986
  endloop
endfacet
facet normal -2.4960386623533336e-06 0.9999999999968849 -5.18482844063856e-16
  outer loop
    vertex 13.00000973484266 17.00003244850614 1.0703186259766739e-05
    vertex 3.0359081195697644 17.000007577723277 16.50000535159314
    vertex 3.326596373541672 17.0000083032924 16.064959635558257
  endloop
endfacet
facet normal -2.4960386623533336e-06 0.9999999999968849 -5.18482844063856e-16
  outer loop
    vertex 13.00000973484266 17.00003244850614 1.0703186259766739e-05
    vertex 3.326596373541672 17.0000083032924 16.064959635558257
    vertex 3.6715826099593483 17.000009164391383 15.671578226846949
  endloop
endfacet
facet normal -2.4960386623533336e-06 0.9999999999968849 -5.18482844063856e-16
  outer loop
    vertex 13.00000973484266 17.00003244850614 1.0703186259766739e-05
    vertex 3.6715826099593483 17.000009164391383 15.671578226846949
    vertex 4.064964018669429 17.000010146286588 15.3265919904282
  endloop
endfacet
facet normal -2.4960386623533336e-06 0.9999999999968849 -5.18482844063856e-16
  outer loop
    vertex 13.00000973484266 17.00003244850614 1.0703186259766739e-05
    vertex 4.064964018669429 17.000010146286588 15.3265919904282
    vertex 4.500009734702957 17.000011232177513 15.035903736455383
  endloop
endfacet
facet normal -2.4960386623533336e-06 0.9999999999968849 -5.18482844063856e-16
  outer loop
    vertex 13.00000973484266 17.00003244850614 1.0703186259766739e-05
    vertex 4.500009734702957 17.000011232177513 15.035903736455383
    vertex 4.969276005241136 17.000012403484266 14.804487221547992
  endloop
endfacet
facet normal -2.4960386623533336e-06 0.9999999999968849 -5.18482844063856e-16
  outer loop
    vertex 13.00000973484266 17.00003244850614 1.0703186259766739e-05
    vertex 4.969276005241136 17.000012403484266 14.804487221547992
    vertex 5.464733554289868 17.000013640165466 14.636302046436866
  endloop
endfacet
facet normal -2.4960386623533336e-06 0.9999999999968849 -5.18482844063856e-16
  outer loop
    vertex 13.00000973484266 17.00003244850614 1.0703186259766739e-05
    vertex 5.464733554289868 17.000013640165466 14.636302046436866
    vertex 5.977904965818145 17.00001492106115 14.5342259060979
  endloop
endfacet
facet normal -2.4960386623533336e-06 0.9999999999968849 -5.18482844063856e-16
  outer loop
    vertex 13.00000973484266 17.00003244850614 1.0703186259766739e-05
    vertex 5.977904965818145 17.00001492106115 14.5342259060979
    vertex 6.500009734696727 17.00001622425484 14.50000535159314
  endloop
endfacet
facet normal -2.4960386623533336e-06 0.9999999999968849 -5.18482844063856e-16
  outer loop
    vertex 2.53423028921384 17.00000632551602 17.977900582712934
    vertex 9.734550792895973e-06 17.000000000003546 36.999999999999986
    vertex 2.5000097347091885 17.000006240100195 18.50000535159314
  endloop
endfacet
facet normal -2.4960386623533336e-06 0.9999999999968849 -5.18482844063856e-16
  outer loop
    vertex 2.5000097347091885 17.000006240100195 18.50000535159314
    vertex 9.734550792895973e-06 17.000000000003546 36.999999999999986
    vertex 2.534230289213841 17.00000632551602 19.022110120473346
  endloop
endfacet
facet normal -2.4960386623533336e-06 0.9999999999968849 -5.18482844063856e-16
  outer loop
    vertex 2.534230289213841 17.00000632551602 19.022110120473346
    vertex 9.734550792895973e-06 17.000000000003546 36.999999999999986
    vertex 2.636306429552491 17.000006580302014 19.53528153200322
  endloop
endfacet
facet normal -2.4960386623533336e-06 0.9999999999968849 -5.18482844063856e-16
  outer loop
    vertex 2.636306429552491 17.000006580302014 19.53528153200322
    vertex 9.734550792895973e-06 17.000000000003546 36.999999999999986
    vertex 2.8044916046630934 17.000007000098712 20.030739081053497
  endloop
endfacet
facet normal -2.4960386623533336e-06 0.9999999999968849 -5.18482844063856e-16
  outer loop
    vertex 2.8044916046630934 17.000007000098712 20.030739081053497
    vertex 9.734550792895973e-06 17.000000000003546 36.999999999999986
    vertex 3.0359081195697644 17.00000757772328 20.50000535159314
  endloop
endfacet
facet normal -2.4960386623533336e-06 0.9999999999968849 -5.18482844063856e-16
  outer loop
    vertex 3.0359081195697644 17.00000757772328 20.50000535159314
    vertex 9.734550792895973e-06 17.000000000003546 36.999999999999986
    vertex 3.3265963735416726 17.000008303292404 20.935051067628017
  endloop
endfacet
facet normal -2.4960386623533336e-06 0.9999999999968849 -5.18482844063856e-16
  outer loop
    vertex 3.3265963735416726 17.000008303292404 20.935051067628017
    vertex 9.734550792895973e-06 17.000000000003546 36.999999999999986
    vertex 3.671582609959349 17.000009164391386 21.328432476339326
  endloop
endfacet
facet normal -2.4960386623533336e-06 0.9999999999968849 -5.18482844063856e-16
  outer loop
    vertex 3.671582609959349 17.000009164391386 21.328432476339326
    vertex 9.734550792895973e-06 17.000000000003546 36.999999999999986
    vertex 4.064964018669431 17.000010146286595 21.673418712758078
  endloop
endfacet
facet normal -2.4960386623533336e-06 0.9999999999968849 -5.18482844063856e-16
  outer loop
    vertex 4.064964018669431 17.000010146286595 21.673418712758078
    vertex 9.734550792895973e-06 17.000000000003546 36.999999999999986
    vertex 4.500009734702958 17.00001123217752 21.964106966730892
  endloop
endfacet
facet normal -2.4960386623533336e-06 0.9999999999968849 -5.18482844063856e-16
  outer loop
    vertex 4.500009734702958 17.00001123217752 21.964106966730892
    vertex 9.734550792895973e-06 17.000000000003546 36.999999999999986
    vertex 4.969276005241137 17.000012403484273 22.195523481638283
  endloop
endfacet
facet normal -2.4960386623533336e-06 0.9999999999968849 -5.18482844063856e-16
  outer loop
    vertex 4.969276005241137 17.000012403484273 22.195523481638283
    vertex 9.734550792895973e-06 17.000000000003546 36.999999999999986
    vertex 5.46473355428987 17.00001364016547 22.36370865674941
  endloop
endfacet
facet normal -2.4960386623533336e-06 0.9999999999968849 -5.18482844063856e-16
  outer loop
    vertex 5.46473355428987 17.00001364016547 22.36370865674941
    vertex 9.734550792895973e-06 17.000000000003546 36.999999999999986
    vertex 5.977904965818148 17.000014921061158 22.465784797088375
  endloop
endfacet
facet normal -2.4960386623533336e-06 0.9999999999968849 -5.18482844063856e-16
  outer loop
    vertex 5.977904965818148 17.000014921061158 22.465784797088375
    vertex 9.734550792895973e-06 17.000000000003546 36.999999999999986
    vertex 6.500009734696727 17.000016224254846 22.500005351593135
  endloop
endfacet
facet normal -2.4960386623533336e-06 0.9999999999968849 -5.18482844063856e-16
  outer loop
    vertex 13.00000973484266 17.00003244850614 1.0703186259766739e-05
    vertex 10.465789180179614 17.000026122993663 17.977900582712927
    vertex 13.00000973484266 17.000032448506158 37.000010703186305
  endloop
endfacet
facet normal -2.4960386623533336e-06 0.9999999999968849 -5.18482844063856e-16
  outer loop
    vertex 10.465789180179614 17.000026122993663 17.977900582712927
    vertex 13.00000973484266 17.00003244850614 1.0703186259766739e-05
    vertex 10.363713039840963 17.000025868207672 17.464729171183052
  endloop
endfacet
facet normal -2.4960386623533336e-06 0.9999999999968849 -5.18482844063856e-16
  outer loop
    vertex 10.363713039840963 17.000025868207672 17.464729171183052
    vertex 13.00000973484266 17.00003244850614 1.0703186259766739e-05
    vertex 10.195527864730359 17.000025448410973 16.969271622132776
  endloop
endfacet
facet normal -2.4960386623533336e-06 0.9999999999968849 -5.18482844063856e-16
  outer loop
    vertex 10.195527864730359 17.000025448410973 16.969271622132776
    vertex 13.00000973484266 17.00003244850614 1.0703186259766739e-05
    vertex 9.964111349823689 17.0000248707864 16.500005351593135
  endloop
endfacet
facet normal -2.4960386623533336e-06 0.9999999999968849 -5.18482844063856e-16
  outer loop
    vertex 9.964111349823689 17.0000248707864 16.500005351593135
    vertex 13.00000973484266 17.00003244850614 1.0703186259766739e-05
    vertex 9.67342309585178 17.00002414521728 16.064959635558253
  endloop
endfacet
facet normal -2.4960386623533336e-06 0.9999999999968849 -5.18482844063856e-16
  outer loop
    vertex 9.67342309585178 17.00002414521728 16.064959635558253
    vertex 13.00000973484266 17.00003244850614 1.0703186259766739e-05
    vertex 9.328436859434103 17.000023284118296 15.671578226846947
  endloop
endfacet
facet normal -2.4960386623533336e-06 0.9999999999968849 -5.18482844063856e-16
  outer loop
    vertex 9.328436859434103 17.000023284118296 15.671578226846947
    vertex 13.00000973484266 17.00003244850614 1.0703186259766739e-05
    vertex 8.935055450724022 17.00002230222309 15.326591990428197
  endloop
endfacet
facet normal -2.4960386623533336e-06 0.9999999999968849 -5.18482844063856e-16
  outer loop
    vertex 8.935055450724022 17.00002230222309 15.326591990428197
    vertex 13.00000973484266 17.00003244850614 1.0703186259766739e-05
    vertex 8.500009734690495 17.000021216332165 15.035903736455383
  endloop
endfacet
facet normal -2.4960386623533336e-06 0.9999999999968849 -5.18482844063856e-16
  outer loop
    vertex 8.500009734690495 17.000021216332165 15.035903736455383
    vertex 13.00000973484266 17.00003244850614 1.0703186259766739e-05
    vertex 8.030743464152314 17.00002004502541 14.804487221547992
  endloop
endfacet
facet normal -2.4960386623533336e-06 0.9999999999968849 -5.18482844063856e-16
  outer loop
    vertex 8.030743464152314 17.00002004502541 14.804487221547992
    vertex 13.00000973484266 17.00003244850614 1.0703186259766739e-05
    vertex 7.535285915103583 17.000018808344212 14.636302046436866
  endloop
endfacet
facet normal -2.4960386623533336e-06 0.9999999999968849 -5.18482844063856e-16
  outer loop
    vertex 7.535285915103583 17.000018808344212 14.636302046436866
    vertex 13.00000973484266 17.00003244850614 1.0703186259766739e-05
    vertex 7.022114503575305 17.000017527448527 14.534225906097896
  endloop
endfacet
facet normal -2.4960386623533336e-06 0.9999999999968849 -5.18482844063856e-16
  outer loop
    vertex 7.022114503575305 17.000017527448527 14.534225906097896
    vertex 13.00000973484266 17.00003244850614 1.0703186259766739e-05
    vertex 6.500009734696727 17.00001622425484 14.50000535159314
  endloop
endfacet
facet normal -2.4960386623533336e-06 0.9999999999968849 -5.18482844063856e-16
  outer loop
    vertex 13.00000973484266 17.000032448506158 37.000010703186305
    vertex 10.465789180179614 17.000026122993663 17.977900582712927
    vertex 10.500009734684266 17.00002620840949 18.50000535159314
  endloop
endfacet
facet normal -2.4960386623533336e-06 0.9999999999968849 -5.18482844063856e-16
  outer loop
    vertex 13.00000973484266 17.000032448506158 37.000010703186305
    vertex 10.500009734684266 17.00002620840949 18.50000535159314
    vertex 10.465789180179614 17.000026122993663 19.022110120473343
  endloop
endfacet
facet normal -2.4960386623533336e-06 0.9999999999968849 -5.18482844063856e-16
  outer loop
    vertex 13.00000973484266 17.000032448506158 37.000010703186305
    vertex 10.465789180179614 17.000026122993663 19.022110120473343
    vertex 10.363713039840963 17.000025868207672 19.535281532003218
  endloop
endfacet
facet normal -2.4960386623533336e-06 0.9999999999968849 -5.18482844063856e-16
  outer loop
    vertex 13.00000973484266 17.000032448506158 37.000010703186305
    vertex 10.363713039840963 17.000025868207672 19.535281532003218
    vertex 10.195527864730362 17.000025448410973 20.030739081053493
  endloop
endfacet
facet normal -2.4960386623533336e-06 0.9999999999968849 -5.18482844063856e-16
  outer loop
    vertex 13.00000973484266 17.000032448506158 37.000010703186305
    vertex 10.195527864730362 17.000025448410973 20.030739081053493
    vertex 9.96411134982369 17.000024870786405 20.500005351593135
  endloop
endfacet
facet normal -2.4960386623533336e-06 0.9999999999968849 -5.18482844063856e-16
  outer loop
    vertex 13.00000973484266 17.000032448506158 37.000010703186305
    vertex 9.96411134982369 17.000024870786405 20.500005351593135
    vertex 9.673423095851783 17.000024145217285 20.935051067628017
  endloop
endfacet
facet normal -2.4960386623533336e-06 0.9999999999968849 -5.18482844063856e-16
  outer loop
    vertex 13.00000973484266 17.000032448506158 37.000010703186305
    vertex 9.673423095851783 17.000024145217285 20.935051067628017
    vertex 9.328436859434106 17.0000232841183 21.328432476339326
  endloop
endfacet
facet normal -2.4960386623533336e-06 0.9999999999968849 -5.18482844063856e-16
  outer loop
    vertex 13.00000973484266 17.000032448506158 37.000010703186305
    vertex 9.328436859434106 17.0000232841183 21.328432476339326
    vertex 8.935055450724024 17.000022302223098 21.673418712758075
  endloop
endfacet
facet normal -2.4960386623533336e-06 0.9999999999968849 -5.18482844063856e-16
  outer loop
    vertex 13.00000973484266 17.000032448506158 37.000010703186305
    vertex 8.935055450724024 17.000022302223098 21.673418712758075
    vertex 8.500009734690497 17.00002121633217 21.96410696673089
  endloop
endfacet
facet normal -2.4960386623533336e-06 0.9999999999968849 -5.18482844063856e-16
  outer loop
    vertex 13.00000973484266 17.000032448506158 37.000010703186305
    vertex 8.500009734690497 17.00002121633217 21.96410696673089
    vertex 8.03074346415232 17.000020045025416 22.195523481638283
  endloop
endfacet
facet normal -2.4960386623533336e-06 0.9999999999968849 -5.18482844063856e-16
  outer loop
    vertex 13.00000973484266 17.000032448506158 37.000010703186305
    vertex 8.03074346415232 17.000020045025416 22.195523481638283
    vertex 7.535285915103588 17.00001880834422 22.36370865674941
  endloop
endfacet
facet normal -2.4960386623533336e-06 0.9999999999968849 -5.18482844063856e-16
  outer loop
    vertex 13.00000973484266 17.000032448506158 37.000010703186305
    vertex 7.535285915103588 17.00001880834422 22.36370865674941
    vertex 7.0221145035753105 17.000017527448534 22.465784797088375
  endloop
endfacet
facet normal -2.4960386623533336e-06 0.9999999999968849 -5.18482844063856e-16
  outer loop
    vertex 13.00000973484266 17.000032448506158 37.000010703186305
    vertex 7.0221145035753105 17.000017527448534 22.465784797088375
    vertex 6.500009734696727 17.000016224254846 22.500005351593135
  endloop
endfacet
facet normal -2.4960386623533336e-06 0.9999999999968849 -5.18482844063856e-16
  outer loop
    vertex 13.00000973484266 17.000032448506158 37.000010703186305
    vertex 6.500009734696727 17.000016224254846 22.500005351593135
    vertex 9.734550792895973e-06 17.000000000003546 36.999999999999986
  endloop
endfacet
facet normal -0.9999999999998361 5.726206350022369e-07 -5.716155414756281e-17
  outer loop
    vertex 9.734550792895973e-06 17.000000000003546 36.999999999999986
    vertex -3.070407612919745e-17 0.0 0.0
    vertex -3.070407612919745e-17 -7.049916206369744e-15 36.999999999999964
  endloop
endfacet
facet normal -0.9999999999998361 5.726206350022369e-07 -5.716155414756281e-17
  outer loop
    vertex -3.070407612919745e-17 0.0 0.0
    vertex 9.734550792895973e-06 17.000000000003546 36.999999999999986
    vertex 9.734550797125922e-06 17.000000000003528 3.1724622928663847e-15
  endloop
endfacet
facet normal -2.169204986575306e-16 1.0 -3.0486124135652927e-16
  outer loop
    vertex 32.00000973484265 17.00003244850612 18.50001070318629
    vertex 45.00000973484265 17.000032448506115 1.0703186273866571e-05
    vertex 32.00000973484265 17.000032448506115 1.0703186273866571e-05
  endloop
endfacet
facet normal -2.169204986575306e-16 1.0 -3.0486124135652927e-16
  outer loop
    vertex 45.00000973484265 17.000032448506115 1.0703186273866571e-05
    vertex 32.00000973484265 17.00003244850612 18.50001070318629
    vertex 45.00000973484265 17.000032448506126 18.50001070318629
  endloop
endfacet
facet normal -0.9978589232354951 -2.4906944520348697e-06 -0.06540312923014278
  outer loop
    vertex 10.465789180179614 17.000026122993663 19.022110120473343
    vertex 10.500052167341517 2.620853616022156e-05 18.500005351593153
    vertex 10.465831612836865 2.6123120345533656e-05 19.022110120473357
  endloop
endfacet
facet normal -0.9978589232354951 -2.4906944520348697e-06 -0.06540312923014278
  outer loop
    vertex 10.500052167341517 2.620853616022156e-05 18.500005351593153
    vertex 10.465789180179614 17.000026122993663 19.022110120473343
    vertex 10.500009734684266 17.00002620840949 18.50000535159314
  endloop
endfacet
facet normal -0.9978589232354953 -2.490694451938514e-06 0.06540312923014209
  outer loop
    vertex 10.500052167341517 2.620853616022156e-05 18.500005351593153
    vertex 10.465789180179614 17.000026122993663 17.977900582712927
    vertex 10.465831612836865 2.6123120345533656e-05 17.97790058271294
  endloop
endfacet
facet normal -0.9978589232354953 -2.490694451938514e-06 0.06540312923014209
  outer loop
    vertex 10.465789180179614 17.000026122993663 17.977900582712927
    vertex 10.500052167341517 2.620853616022156e-05 18.500005351593153
    vertex 10.500009734684266 17.00002620840949 18.50000535159314
  endloop
endfacet
facet normal -0.980785280400175 -2.4480779792185254e-06 0.19509032201613005
  outer loop
    vertex 10.465831612836865 2.6123120345533656e-05 17.97790058271294
    vertex 10.363713039840963 17.000025868207672 17.464729171183052
    vertex 10.363755472498216 2.5868334343459586e-05 17.464729171183066
  endloop
endfacet
facet normal -0.980785280400175 -2.4480779792185254e-06 0.19509032201613005
  outer loop
    vertex 10.363713039840963 17.000025868207672 17.464729171183052
    vertex 10.465831612836865 2.6123120345533656e-05 17.97790058271294
    vertex 10.465789180179614 17.000026122993663 17.977900582712927
  endloop
endfacet
facet normal -0.9469301294921548 -2.363574213538664e-06 0.32143946530316453
  outer loop
    vertex 10.363755472498216 2.5868334343459586e-05 17.464729171183066
    vertex 10.195527864730359 17.000025448410973 16.969271622132776
    vertex 10.195570297387611 2.5448537641703514e-05 16.96927162213279
  endloop
endfacet
facet normal -0.9469301294921548 -2.363574213538664e-06 0.32143946530316453
  outer loop
    vertex 10.195527864730359 17.000025448410973 16.969271622132776
    vertex 10.363755472498216 2.5868334343459586e-05 17.464729171183066
    vertex 10.363713039840963 17.000025868207672 17.464729171183052
  endloop
endfacet
facet normal -0.8968727415298956 -2.238629037758588e-06 0.44228869021899886
  outer loop
    vertex 10.195570297387611 2.5448537641703514e-05 16.96927162213279
    vertex 9.964111349823689 17.0000248707864 16.500005351593135
    vertex 9.964153782480942 2.4870913078411935e-05 16.50000535159315
  endloop
endfacet
facet normal -0.8968727415298956 -2.238629037758588e-06 0.44228869021899886
  outer loop
    vertex 9.964111349823689 17.0000248707864 16.500005351593135
    vertex 10.195570297387611 2.5448537641703514e-05 16.96927162213279
    vertex 10.195527864730359 17.000025448410973 16.969271622132776
  endloop
endfacet
facet normal -0.8314696122999538 -2.0753802984772243e-06 0.5555702330196045
  outer loop
    vertex 9.964153782480942 2.4870913078411935e-05 16.50000535159315
    vertex 9.67342309585178 17.00002414521728 16.064959635558253
    vertex 9.673465528509032 2.4145343959314224e-05 16.064959635558267
  endloop
endfacet
facet normal -0.8314696122999538 -2.0753802984772243e-06 0.5555702330196045
  outer loop
    vertex 9.67342309585178 17.00002414521728 16.064959635558253
    vertex 9.964153782480942 2.4870913078411935e-05 16.50000535159315
    vertex 9.964111349823689 17.0000248707864 16.500005351593135
  endloop
endfacet
facet normal -0.7518398074766357 -1.8766212268848012e-06 0.6593458151000686
  outer loop
    vertex 9.673465528509032 2.4145343959314224e-05 16.064959635558267
    vertex 9.328436859434103 17.000023284118296 15.671578226846947
    vertex 9.328479292091355 2.328424497253234e-05 15.671578226846961
  endloop
endfacet
facet normal -0.7518398074766357 -1.8766212268848012e-06 0.6593458151000686
  outer loop
    vertex 9.328436859434103 17.000023284118296 15.671578226846947
    vertex 9.673465528509032 2.4145343959314224e-05 16.064959635558267
    vertex 9.67342309585178 17.00002414521728 16.064959635558253
  endloop
endfacet
facet normal -0.659345815098014 -1.6457526458026713e-06 0.7518398074789782
  outer loop
    vertex 8.935097883381275 2.2302349766145643e-05 15.326591990428211
    vertex 9.328436859434103 17.000023284118296 15.671578226846947
    vertex 8.935055450724022 17.00002230222309 15.326591990428197
  endloop
endfacet
facet normal -0.659345815098014 -1.6457526458026713e-06 0.7518398074789782
  outer loop
    vertex 9.328436859434103 17.000023284118296 15.671578226846947
    vertex 8.935097883381275 2.2302349766145643e-05 15.326591990428211
    vertex 9.328479292091355 2.328424497253234e-05 15.671578226846961
  endloop
endfacet
facet normal -0.5555702330178713 -1.3867247806620258e-06 0.8314696123025453
  outer loop
    vertex 8.500052167347748 2.1216458843187344e-05 15.035903736455397
    vertex 8.935055450724022 17.00002230222309 15.326591990428197
    vertex 8.500009734690495 17.000021216332165 15.035903736455383
  endloop
endfacet
facet normal -0.5555702330178713 -1.3867247806620258e-06 0.8314696123025453
  outer loop
    vertex 8.935055450724022 17.00002230222309 15.326591990428197
    vertex 8.500052167347748 2.1216458843187344e-05 15.035903736455397
    vertex 8.935097883381275 2.2302349766145643e-05 15.326591990428211
  endloop
endfacet
facet normal -0.4422886902176219 -1.1039696700515037e-06 0.896872741532689
  outer loop
    vertex 8.030785896809567 2.004515208298141e-05 14.804487221548007
    vertex 8.500009734690495 17.000021216332165 15.035903736455383
    vertex 8.030743464152314 17.00002004502541 14.804487221547992
  endloop
endfacet
facet normal -0.4422886902176219 -1.1039696700515037e-06 0.896872741532689
  outer loop
    vertex 8.500009734690495 17.000021216332165 15.035903736455383
    vertex 8.030785896809567 2.004515208298141e-05 14.804487221548007
    vertex 8.500052167347748 2.1216458843187344e-05 15.035903736455397
  endloop
endfacet
facet normal -0.3214394653021597 -8.023253323081884e-07 0.946930129495106
  outer loop
    vertex 7.535328347760836 1.8808470897080376e-05 14.63630204643688
    vertex 8.030743464152314 17.00002004502541 14.804487221547992
    vertex 7.535285915103583 17.000018808344212 14.636302046436866
  endloop
endfacet
facet normal -0.3214394653021597 -8.023253323081884e-07 0.946930129495106
  outer loop
    vertex 8.030743464152314 17.00002004502541 14.804487221547992
    vertex 7.535328347760836 1.8808470897080376e-05 14.63630204643688
    vertex 8.030785896809567 2.004515208298141e-05 14.804487221548007
  endloop
endfacet
facet normal -0.19509032201552268 -4.869529856824768e-07 0.9807852804032301
  outer loop
    vertex 7.022156936232557 1.752757520854242e-05 14.53422590609791
    vertex 7.535285915103583 17.000018808344212 14.636302046436866
    vertex 7.022114503575305 17.000017527448527 14.534225906097896
  endloop
endfacet
facet normal -0.19509032201552268 -4.869529856824768e-07 0.9807852804032301
  outer loop
    vertex 7.535285915103583 17.000018808344212 14.636302046436866
    vertex 7.022156936232557 1.752757520854242e-05 14.53422590609791
    vertex 7.535328347760836 1.8808470897080376e-05 14.63630204643688
  endloop
endfacet
facet normal -0.06540312922993752 -1.6324873846284767e-07 0.9978589232386036
  outer loop
    vertex 6.50005216735398 1.622438152615313e-05 14.500005351593154
    vertex 7.022114503575305 17.000017527448527 14.534225906097896
    vertex 6.500009734696727 17.00001622425484 14.50000535159314
  endloop
endfacet
facet normal -0.06540312922993752 -1.6324873846284767e-07 0.9978589232386036
  outer loop
    vertex 7.022114503575305 17.000017527448527 14.534225906097896
    vertex 6.50005216735398 1.622438152615313e-05 14.500005351593154
    vertex 7.022156936232557 1.752757520854242e-05 14.53422590609791
  endloop
endfacet
facet normal 0.06540312922994244 1.6324873993297528e-07 0.9978589232386034
  outer loop
    vertex 5.977947398475406 1.4921187821204107e-05 14.534225906097914
    vertex 6.500009734696727 17.00001622425484 14.50000535159314
    vertex 5.977904965818145 17.00001492106115 14.5342259060979
  endloop
endfacet
facet normal 0.06540312922994244 1.6324873993297528e-07 0.9978589232386034
  outer loop
    vertex 6.500009734696727 17.00001622425484 14.50000535159314
    vertex 5.977947398475406 1.4921187821204107e-05 14.534225906097914
    vertex 6.50005216735398 1.622438152615313e-05 14.500005351593154
  endloop
endfacet
facet normal 0.195090322015518 4.869529871274262e-07 0.980785280403231
  outer loop
    vertex 5.464775986947129 1.3640292132666153e-05 14.63630204643688
    vertex 5.977904965818145 17.00001492106115 14.5342259060979
    vertex 5.464733554289868 17.000013640165466 14.636302046436866
  endloop
endfacet
facet normal 0.195090322015518 4.869529871274262e-07 0.980785280403231
  outer loop
    vertex 5.977904965818145 17.00001492106115 14.5342259060979
    vertex 5.464775986947129 1.3640292132666153e-05 14.63630204643688
    vertex 5.977947398475406 1.4921187821204107e-05 14.534225906097914
  endloop
endfacet
facet normal 0.3214394653021593 8.023253337032706e-07 0.946930129495106
  outer loop
    vertex 4.969318437898396 1.2403610946765119e-05 14.804487221548007
    vertex 5.464733554289868 17.000013640165466 14.636302046436866
    vertex 4.969276005241136 17.000012403484266 14.804487221547992
  endloop
endfacet
facet normal 0.3214394653021593 8.023253337032706e-07 0.946930129495106
  outer loop
    vertex 5.464733554289868 17.000013640165466 14.636302046436866
    vertex 4.969318437898396 1.2403610946765119e-05 14.804487221548007
    vertex 5.464775986947129 1.3640292132666153e-05 14.63630204643688
  endloop
endfacet
facet normal 0.4422886902176224 1.1039696713728403e-06 0.8968727415326888
  outer loop
    vertex 4.5000521673602165 1.1232304186559183e-05 15.035903736455397
    vertex 4.969276005241136 17.000012403484266 14.804487221547992
    vertex 4.500009734702957 17.000011232177513 15.035903736455383
  endloop
endfacet
facet normal 0.4422886902176224 1.1039696713728403e-06 0.8968727415326888
  outer loop
    vertex 4.969276005241136 17.000012403484266 14.804487221547992
    vertex 4.5000521673602165 1.1232304186559183e-05 15.035903736455397
    vertex 4.969318437898396 1.2403610946765119e-05 14.804487221548007
  endloop
endfacet
facet normal 0.5555702330178744 1.386724781887013e-06 0.8314696123025433
  outer loop
    vertex 4.06500645132669 1.0146413263600884e-05 15.326591990428215
    vertex 4.500009734702957 17.000011232177513 15.035903736455383
    vertex 4.064964018669429 17.000010146286588 15.3265919904282
  endloop
endfacet
facet normal 0.5555702330178744 1.386724781887013e-06 0.8314696123025433
  outer loop
    vertex 4.500009734702957 17.000011232177513 15.035903736455383
    vertex 4.06500645132669 1.0146413263600884e-05 15.326591990428215
    vertex 4.5000521673602165 1.1232304186559183e-05 15.035903736455397
  endloop
endfacet
facet normal 0.6593458150980148 1.6457526469103361e-06 0.7518398074789777
  outer loop
    vertex 3.6716250426166086 9.164518057214188e-06 15.671578226846963
    vertex 4.064964018669429 17.000010146286588 15.3265919904282
    vertex 3.6715826099593483 17.000009164391383 15.671578226846949
  endloop
endfacet
facet normal 0.6593458150980148 1.6457526469103361e-06 0.7518398074789777
  outer loop
    vertex 4.064964018669429 17.000010146286588 15.3265919904282
    vertex 3.6716250426166086 9.164518057214188e-06 15.671578226846963
    vertex 4.06500645132669 1.0146413263600884e-05 15.326591990428215
  endloop
endfacet
facet normal 0.7518398074766357 1.8766212278561953e-06 0.6593458151000686
  outer loop
    vertex 3.6716250426166086 9.164518057214188e-06 15.671578226846963
    vertex 3.326596373541672 17.0000083032924 16.064959635558257
    vertex 3.3266388061989325 8.303419070432305e-06 16.06495963555827
  endloop
endfacet
facet normal 0.7518398074766357 1.8766212278561953e-06 0.6593458151000686
  outer loop
    vertex 3.326596373541672 17.0000083032924 16.064959635558257
    vertex 3.6716250426166086 9.164518057214188e-06 15.671578226846963
    vertex 3.6715826099593483 17.000009164391383 15.671578226846949
  endloop
endfacet
facet normal 0.831469612299955 2.0753802992957325e-06 0.5555702330196026
  outer loop
    vertex 3.3266388061989325 8.303419070432305e-06 16.06495963555827
    vertex 3.0359081195697644 17.000007577723277 16.50000535159314
    vertex 3.0359505522270247 7.577849951334592e-06 16.500005351593153
  endloop
endfacet
facet normal 0.831469612299955 2.0753802992957325e-06 0.5555702330196026
  outer loop
    vertex 3.0359081195697644 17.000007577723277 16.50000535159314
    vertex 3.3266388061989325 8.303419070432305e-06 16.06495963555827
    vertex 3.326596373541672 17.0000083032924 16.064959635558257
  endloop
endfacet
facet normal 0.8968727415298945 2.238629038410196e-06 0.442288690219001
  outer loop
    vertex 3.0359505522270247 7.577849951334592e-06 16.500005351593153
    vertex 2.8044916046630926 17.00000700009871 16.96927162213278
    vertex 2.804534037320353 7.000225388043013e-06 16.969271622132794
  endloop
endfacet
facet normal 0.8968727415298945 2.238629038410196e-06 0.442288690219001
  outer loop
    vertex 2.8044916046630926 17.00000700009871 16.96927162213278
    vertex 3.0359505522270247 7.577849951334592e-06 16.500005351593153
    vertex 3.0359081195697644 17.000007577723277 16.50000535159314
  endloop
endfacet
facet normal 0.9469301294921562 2.3635742140122337e-06 0.3214394653031609
  outer loop
    vertex 2.804534037320353 7.000225388043013e-06 16.969271622132794
    vertex 2.636306429552491 17.00000658030201 17.464729171183055
    vertex 2.6363488622097515 6.580428686286943e-06 17.46472917118307
  endloop
endfacet
facet normal 0.9469301294921562 2.3635742140122337e-06 0.3214394653031609
  outer loop
    vertex 2.636306429552491 17.00000658030201 17.464729171183055
    vertex 2.804534037320353 7.000225388043013e-06 16.969271622132794
    vertex 2.8044916046630926 17.00000700009871 16.96927162213278
  endloop
endfacet
facet normal 0.9807852804001752 2.4480779795059465e-06 0.19509032201612903
  outer loop
    vertex 2.6363488622097515 6.580428686286943e-06 17.46472917118307
    vertex 2.53423028921384 17.00000632551602 17.977900582712934
    vertex 2.5342727218711003 6.325642706772605e-06 17.977900582712948
  endloop
endfacet
facet normal 0.9807852804001752 2.4480779795059465e-06 0.19509032201612903
  outer loop
    vertex 2.53423028921384 17.00000632551602 17.977900582712934
    vertex 2.6363488622097515 6.580428686286943e-06 17.46472917118307
    vertex 2.636306429552491 17.00000658030201 17.464729171183055
  endloop
endfacet
facet normal 0.9978589232354951 2.4906944520348697e-06 0.06540312923014278
  outer loop
    vertex 2.5342727218711003 6.325642706772605e-06 17.977900582712948
    vertex 2.5000097347091885 17.000006240100195 18.50000535159314
    vertex 2.500052167366449 6.240226869524967e-06 18.500005351593153
  endloop
endfacet
facet normal 0.9978589232354951 2.4906944520348697e-06 0.06540312923014278
  outer loop
    vertex 2.5000097347091885 17.000006240100195 18.50000535159314
    vertex 2.5342727218711003 6.325642706772605e-06 17.977900582712948
    vertex 2.53423028921384 17.00000632551602 17.977900582712934
  endloop
endfacet
facet normal 0.9978589232354951 2.490694451938513e-06 -0.06540312923014377
  outer loop
    vertex 2.5000097347091885 17.000006240100195 18.50000535159314
    vertex 2.534272721871101 6.325642706772605e-06 19.02211012047336
    vertex 2.500052167366449 6.240226869524967e-06 18.500005351593153
  endloop
endfacet
facet normal 0.9978589232354951 2.490694451938513e-06 -0.06540312923014377
  outer loop
    vertex 2.534272721871101 6.325642706772605e-06 19.02211012047336
    vertex 2.5000097347091885 17.000006240100195 18.50000535159314
    vertex 2.534230289213841 17.00000632551602 19.022110120473346
  endloop
endfacet
facet normal 0.9807852804001752 2.448077979218526e-06 -0.19509032201612878
  outer loop
    vertex 2.534230289213841 17.00000632551602 19.022110120473346
    vertex 2.6363488622097515 6.580428686286943e-06 19.535281532003236
    vertex 2.534272721871101 6.325642706772605e-06 19.02211012047336
  endloop
endfacet
facet normal 0.9807852804001752 2.448077979218526e-06 -0.19509032201612878
  outer loop
    vertex 2.6363488622097515 6.580428686286943e-06 19.535281532003236
    vertex 2.534230289213841 17.00000632551602 19.022110120473346
    vertex 2.636306429552491 17.000006580302014 19.53528153200322
  endloop
endfacet
facet normal 0.9469301294921557 2.363574213538666e-06 -0.3214394653031621
  outer loop
    vertex 2.636306429552491 17.000006580302014 19.53528153200322
    vertex 2.804534037320354 7.000225388043013e-06 20.03073908105351
    vertex 2.6363488622097515 6.580428686286943e-06 19.535281532003236
  endloop
endfacet
facet normal 0.9469301294921557 2.363574213538666e-06 -0.3214394653031621
  outer loop
    vertex 2.804534037320354 7.000225388043013e-06 20.03073908105351
    vertex 2.636306429552491 17.000006580302014 19.53528153200322
    vertex 2.8044916046630934 17.000007000098712 20.030739081053497
  endloop
endfacet
facet normal 0.8968727415298952 2.238629037758587e-06 -0.442288690219
  outer loop
    vertex 2.8044916046630934 17.000007000098712 20.030739081053497
    vertex 3.0359505522270247 7.577849951334592e-06 20.500005351593153
    vertex 2.804534037320354 7.000225388043013e-06 20.03073908105351
  endloop
endfacet
facet normal 0.8968727415298952 2.238629037758587e-06 -0.442288690219
  outer loop
    vertex 3.0359505522270247 7.577849951334592e-06 20.500005351593153
    vertex 2.8044916046630934 17.000007000098712 20.030739081053497
    vertex 3.0359081195697644 17.00000757772328 20.50000535159314
  endloop
endfacet
facet normal 0.8314696122999543 2.075380298477226e-06 -0.5555702330196035
  outer loop
    vertex 3.0359081195697644 17.00000757772328 20.50000535159314
    vertex 3.326638806198933 8.303419070432305e-06 20.93505106762803
    vertex 3.0359505522270247 7.577849951334592e-06 20.500005351593153
  endloop
endfacet
facet normal 0.8314696122999543 2.075380298477226e-06 -0.5555702330196035
  outer loop
    vertex 3.326638806198933 8.303419070432305e-06 20.93505106762803
    vertex 3.0359081195697644 17.00000757772328 20.50000535159314
    vertex 3.3265963735416726 17.000008303292404 20.935051067628017
  endloop
endfacet
facet normal 0.7518398074766357 1.8766212268848012e-06 -0.6593458151000686
  outer loop
    vertex 3.3265963735416726 17.000008303292404 20.935051067628017
    vertex 3.6716250426166095 9.164518057214188e-06 21.32843247633934
    vertex 3.326638806198933 8.303419070432305e-06 20.93505106762803
  endloop
endfacet
facet normal 0.7518398074766357 1.8766212268848012e-06 -0.6593458151000686
  outer loop
    vertex 3.6716250426166095 9.164518057214188e-06 21.32843247633934
    vertex 3.3265963735416726 17.000008303292404 20.935051067628017
    vertex 3.671582609959349 17.000009164391386 21.328432476339326
  endloop
endfacet
facet normal 0.659345815098017 1.6457526458026792e-06 -0.7518398074789755
  outer loop
    vertex 4.064964018669431 17.000010146286595 21.673418712758078
    vertex 3.6716250426166095 9.164518057214188e-06 21.32843247633934
    vertex 3.671582609959349 17.000009164391386 21.328432476339326
  endloop
endfacet
facet normal 0.659345815098017 1.6457526458026792e-06 -0.7518398074789755
  outer loop
    vertex 3.6716250426166095 9.164518057214188e-06 21.32843247633934
    vertex 4.064964018669431 17.000010146286595 21.673418712758078
    vertex 4.065006451326691 1.0146413263600884e-05 21.673418712758092
  endloop
endfacet
facet normal 0.5555702330178701 1.3867247806620228e-06 -0.8314696123025462
  outer loop
    vertex 4.500009734702958 17.00001123217752 21.964106966730892
    vertex 4.065006451326691 1.0146413263600884e-05 21.673418712758092
    vertex 4.064964018669431 17.000010146286595 21.673418712758078
  endloop
endfacet
facet normal 0.5555702330178701 1.3867247806620228e-06 -0.8314696123025462
  outer loop
    vertex 4.065006451326691 1.0146413263600884e-05 21.673418712758092
    vertex 4.500009734702958 17.00001123217752 21.964106966730892
    vertex 4.500052167360218 1.1232304186559183e-05 21.964106966730906
  endloop
endfacet
facet normal 0.4422886902176235 1.1039696700515077e-06 -0.8968727415326884
  outer loop
    vertex 4.969276005241137 17.000012403484273 22.195523481638283
    vertex 4.500052167360218 1.1232304186559183e-05 21.964106966730906
    vertex 4.500009734702958 17.00001123217752 21.964106966730892
  endloop
endfacet
facet normal 0.4422886902176235 1.1039696700515077e-06 -0.8968727415326884
  outer loop
    vertex 4.500052167360218 1.1232304186559183e-05 21.964106966730906
    vertex 4.969276005241137 17.000012403484273 22.195523481638283
    vertex 4.969318437898397 1.2403610946765119e-05 22.195523481638297
  endloop
endfacet
facet normal 0.3214394653021589 8.023253323081864e-07 -0.9469301294951062
  outer loop
    vertex 5.46473355428987 17.00001364016547 22.36370865674941
    vertex 4.969318437898397 1.2403610946765119e-05 22.195523481638297
    vertex 4.969276005241137 17.000012403484273 22.195523481638283
  endloop
endfacet
facet normal 0.3214394653021589 8.023253323081864e-07 -0.9469301294951062
  outer loop
    vertex 4.969318437898397 1.2403610946765119e-05 22.195523481638297
    vertex 5.46473355428987 17.00001364016547 22.36370865674941
    vertex 5.46477598694713 1.3640292155225886e-05 22.363708656749424
  endloop
endfacet
facet normal 0.19509032201551774 4.869529856824644e-07 -0.980785280403231
  outer loop
    vertex 5.977904965818148 17.000014921061158 22.465784797088375
    vertex 5.46477598694713 1.3640292155225886e-05 22.363708656749424
    vertex 5.46473355428987 17.00001364016547 22.36370865674941
  endloop
endfacet
facet normal 0.19509032201551774 4.869529856824644e-07 -0.980785280403231
  outer loop
    vertex 5.46477598694713 1.3640292155225886e-05 22.363708656749424
    vertex 5.977904965818148 17.000014921061158 22.465784797088375
    vertex 5.977947398475408 1.4921187843763839e-05 22.46578479708839
  endloop
endfacet
facet normal 0.06540312922994271 1.6324873846286064e-07 -0.9978589232386034
  outer loop
    vertex 6.500009734696727 17.000016224254846 22.500005351593135
    vertex 5.977947398475408 1.4921187843763839e-05 22.46578479708839
    vertex 5.977904965818148 17.000014921061158 22.465784797088375
  endloop
endfacet
facet normal 0.06540312922994271 1.6324873846286064e-07 -0.9978589232386034
  outer loop
    vertex 5.977947398475408 1.4921187843763839e-05 22.46578479708839
    vertex 6.500009734696727 17.000016224254846 22.500005351593135
    vertex 6.50005216735398 1.622438152615313e-05 22.50000535159315
  endloop
endfacet
facet normal -0.0654031292299422 -1.6324873993297462e-07 -0.9978589232386035
  outer loop
    vertex 7.0221145035753105 17.000017527448534 22.465784797088375
    vertex 6.50005216735398 1.622438152615313e-05 22.50000535159315
    vertex 6.500009734696727 17.000016224254846 22.500005351593135
  endloop
endfacet
facet normal -0.0654031292299422 -1.6324873993297462e-07 -0.9978589232386035
  outer loop
    vertex 6.50005216735398 1.622438152615313e-05 22.50000535159315
    vertex 7.0221145035753105 17.000017527448534 22.465784797088375
    vertex 7.022156936232563 1.752757520854242e-05 22.46578479708839
  endloop
endfacet
facet normal -0.195090322015518 -4.869529871274262e-07 -0.980785280403231
  outer loop
    vertex 7.535285915103588 17.00001880834422 22.36370865674941
    vertex 7.022156936232563 1.752757520854242e-05 22.46578479708839
    vertex 7.0221145035753105 17.000017527448534 22.465784797088375
  endloop
endfacet
facet normal -0.195090322015518 -4.869529871274262e-07 -0.980785280403231
  outer loop
    vertex 7.022156936232563 1.752757520854242e-05 22.46578479708839
    vertex 7.535285915103588 17.00001880834422 22.36370865674941
    vertex 7.53532834776084 1.8808470897080376e-05 22.363708656749424
  endloop
endfacet
facet normal -0.3214394653021597 -8.023253337032718e-07 -0.946930129495106
  outer loop
    vertex 8.03074346415232 17.000020045025416 22.195523481638283
    vertex 7.53532834776084 1.8808470897080376e-05 22.363708656749424
    vertex 7.535285915103588 17.00001880834422 22.36370865674941
  endloop
endfacet
facet normal -0.3214394653021597 -8.023253337032718e-07 -0.946930129495106
  outer loop
    vertex 7.53532834776084 1.8808470897080376e-05 22.363708656749424
    vertex 8.03074346415232 17.000020045025416 22.195523481638283
    vertex 8.030785896809572 2.004515208298141e-05 22.195523481638297
  endloop
endfacet
facet normal -0.4422886902176273 -1.1039696713728524e-06 -0.8968727415326864
  outer loop
    vertex 8.500009734690497 17.00002121633217 21.96410696673089
    vertex 8.030785896809572 2.004515208298141e-05 22.195523481638297
    vertex 8.03074346415232 17.000020045025416 22.195523481638283
  endloop
endfacet
facet normal -0.4422886902176273 -1.1039696713728524e-06 -0.8968727415326864
  outer loop
    vertex 8.030785896809572 2.004515208298141e-05 22.195523481638297
    vertex 8.500009734690497 17.00002121633217 21.96410696673089
    vertex 8.50005216734775 2.1216458843187344e-05 21.964106966730903
  endloop
endfacet
facet normal -0.5555702330178713 -1.3867247818870049e-06 -0.8314696123025453
  outer loop
    vertex 8.935055450724024 17.000022302223098 21.673418712758075
    vertex 8.50005216734775 2.1216458843187344e-05 21.964106966730903
    vertex 8.500009734690497 17.00002121633217 21.96410696673089
  endloop
endfacet
facet normal -0.5555702330178713 -1.3867247818870049e-06 -0.8314696123025453
  outer loop
    vertex 8.50005216734775 2.1216458843187344e-05 21.964106966730903
    vertex 8.935055450724024 17.000022302223098 21.673418712758075
    vertex 8.935097883381276 2.2302349766145643e-05 21.67341871275809
  endloop
endfacet
facet normal -0.659345815098014 -1.6457526469103342e-06 -0.7518398074789782
  outer loop
    vertex 9.328436859434106 17.0000232841183 21.328432476339326
    vertex 8.935097883381276 2.2302349766145643e-05 21.67341871275809
    vertex 8.935055450724024 17.000022302223098 21.673418712758075
  endloop
endfacet
facet normal -0.659345815098014 -1.6457526469103342e-06 -0.7518398074789782
  outer loop
    vertex 8.935097883381276 2.2302349766145643e-05 21.67341871275809
    vertex 9.328436859434106 17.0000232841183 21.328432476339326
    vertex 9.328479292091359 2.328424497253234e-05 21.32843247633934
  endloop
endfacet
facet normal -0.7518398074766366 -1.8766212278561976e-06 -0.6593458151000675
  outer loop
    vertex 9.328436859434106 17.0000232841183 21.328432476339326
    vertex 9.673465528509036 2.4145343959314224e-05 20.93505106762803
    vertex 9.328479292091359 2.328424497253234e-05 21.32843247633934
  endloop
endfacet
facet normal -0.7518398074766366 -1.8766212278561976e-06 -0.6593458151000675
  outer loop
    vertex 9.673465528509036 2.4145343959314224e-05 20.93505106762803
    vertex 9.328436859434106 17.0000232841183 21.328432476339326
    vertex 9.673423095851783 17.000024145217285 20.935051067628017
  endloop
endfacet
facet normal -0.831469612299955 -2.0753802992957325e-06 -0.5555702330196026
  outer loop
    vertex 9.673423095851783 17.000024145217285 20.935051067628017
    vertex 9.964153782480944 2.4870913078411935e-05 20.50000535159315
    vertex 9.673465528509036 2.4145343959314224e-05 20.93505106762803
  endloop
endfacet
facet normal -0.831469612299955 -2.0753802992957325e-06 -0.5555702330196026
  outer loop
    vertex 9.964153782480944 2.4870913078411935e-05 20.50000535159315
    vertex 9.673423095851783 17.000024145217285 20.935051067628017
    vertex 9.96411134982369 17.000024870786405 20.500005351593135
  endloop
endfacet
facet normal -0.8968727415298956 -2.2386290384101987e-06 -0.44228869021899886
  outer loop
    vertex 9.96411134982369 17.000024870786405 20.500005351593135
    vertex 10.195570297387615 2.5448537641703514e-05 20.030739081053508
    vertex 9.964153782480944 2.4870913078411935e-05 20.50000535159315
  endloop
endfacet
facet normal -0.8968727415298956 -2.2386290384101987e-06 -0.44228869021899886
  outer loop
    vertex 10.195570297387615 2.5448537641703514e-05 20.030739081053508
    vertex 9.96411134982369 17.000024870786405 20.500005351593135
    vertex 10.195527864730362 17.000025448410973 20.030739081053493
  endloop
endfacet
facet normal -0.9469301294921565 -2.363574214012235e-06 -0.3214394653031597
  outer loop
    vertex 10.195527864730362 17.000025448410973 20.030739081053493
    vertex 10.363755472498216 2.5868334343459586e-05 19.535281532003232
    vertex 10.195570297387615 2.5448537641703514e-05 20.030739081053508
  endloop
endfacet
facet normal -0.9469301294921565 -2.363574214012235e-06 -0.3214394653031597
  outer loop
    vertex 10.363755472498216 2.5868334343459586e-05 19.535281532003232
    vertex 10.195527864730362 17.000025448410973 20.030739081053493
    vertex 10.363713039840963 17.000025868207672 19.535281532003218
  endloop
endfacet
facet normal -0.980785280400175 -2.448077979505946e-06 -0.19509032201613005
  outer loop
    vertex 10.363713039840963 17.000025868207672 19.535281532003218
    vertex 10.465831612836865 2.6123120345533656e-05 19.022110120473357
    vertex 10.363755472498216 2.5868334343459586e-05 19.535281532003232
  endloop
endfacet
facet normal -0.980785280400175 -2.448077979505946e-06 -0.19509032201613005
  outer loop
    vertex 10.465831612836865 2.6123120345533656e-05 19.022110120473357
    vertex 10.363713039840963 17.000025868207672 19.535281532003218
    vertex 10.465789180179614 17.000026122993663 19.022110120473343
  endloop
endfacet
endsolid z-sled_v3
