solid z-sled_v2
facet normal 0.9999999999998361 -5.726206346186405e-07 9.500018098466282e-23
  outer loop
    vertex 45.00000000029186 3.244850264250143e-05 1.0703186288671394e-05
    vertex 45.00000973484265 17.000032448506133 37.000010703186305
    vertex 45.00000000029186 3.24485026368615e-05 37.000010703186234
  endloop
endfacet
facet normal 0.9999999999998361 -5.726206346186405e-07 9.500018098466282e-23
  outer loop
    vertex 45.00000973484265 17.000032448506133 37.000010703186305
    vertex 45.00000000029186 3.244850264250143e-05 1.0703186288671394e-05
    vertex 45.00000973484265 17.000032448506115 1.0703186273866571e-05
  endloop
endfacet
facet normal -0.9978589232386036 0.06540312923014333 -1.9875145938993425e-17
  outer loop
    vertex 31.91873591789385 15.760033622415628 37.00001070318629
    vertex 32.00000973484265 17.000032448506115 1.0703186273866571e-05
    vertex 31.91873591789385 15.76003362241561 1.0703186297131295e-05
  endloop
endfacet
facet normal -0.9978589232386036 0.06540312923014333 -1.9875145938993425e-17
  outer loop
    vertex 32.00000973484265 17.000032448506115 1.0703186273866571e-05
    vertex 31.91873591789385 15.760033622415628 37.00001070318629
    vertex 32.00000973484265 17.000032448506122 37.000010703186305
  endloop
endfacet
facet normal -0.9807852804032285 0.1950903220161386 -1.6360754319375954e-16
  outer loop
    vertex 31.676305084588794 14.541251520032212 37.000010703186334
    vertex 31.91873591789385 15.76003362241561 1.0703186297131295e-05
    vertex 31.676305084588794 14.541251520032167 1.0703186283736453e-05
  endloop
endfacet
facet normal -0.9807852804032285 0.1950903220161386 -1.6360754319375954e-16
  outer loop
    vertex 31.91873591789385 15.76003362241561 1.0703186297131295e-05
    vertex 31.676305084588794 14.541251520032212 37.000010703186334
    vertex 31.91873591789385 15.760033622415628 37.00001070318629
  endloop
endfacet
facet normal -0.9469301294951082 0.32143946530315415 -9.822676844602549e-17
  outer loop
    vertex 31.676305084588794 14.541251520032212 37.000010703186334
    vertex 31.276865293699874 13.364539841037784 1.070318629748379e-05
    vertex 31.276865293699874 13.364539841037761 37.000010703186284
  endloop
endfacet
facet normal -0.9469301294951082 0.32143946530315415 -9.822676844602549e-17
  outer loop
    vertex 31.276865293699874 13.364539841037784 1.070318629748379e-05
    vertex 31.676305084588794 14.541251520032212 37.000010703186334
    vertex 31.676305084588794 14.541251520032167 1.0703186283736453e-05
  endloop
endfacet
facet normal -0.8968727415326875 0.44228869021900297 3.030211254694082e-16
  outer loop
    vertex 31.276865293699874 13.364539841037761 37.000010703186284
    vertex 30.72725107079481 12.250032448506133 1.0703186285146436e-05
    vertex 30.72725107079481 12.250032448506104 37.00001070318629
  endloop
endfacet
facet normal -0.8968727415326875 0.44228869021900297 3.030211254694082e-16
  outer loop
    vertex 30.72725107079481 12.250032448506133 1.0703186285146436e-05
    vertex 31.276865293699874 13.364539841037761 37.000010703186284
    vertex 31.276865293699874 13.364539841037784 1.070318629748379e-05
  endloop
endfacet
facet normal -0.8314696123025452 0.5555702330196022 -1.2671773826536183e-16
  outer loop
    vertex 30.036866467609382 11.216798872923299 37.000010703186284
    vertex 30.72725107079481 12.250032448506133 1.0703186285146436e-05
    vertex 30.036866467609382 11.216798872923253 1.0703186296073807e-05
  endloop
endfacet
facet normal -0.8314696123025452 0.5555702330196022 -1.2671773826536183e-16
  outer loop
    vertex 30.72725107079481 12.250032448506133 1.0703186285146436e-05
    vertex 30.036866467609382 11.216798872923299 37.000010703186284
    vertex 30.72725107079481 12.250032448506104 37.00001070318629
  endloop
endfacet
facet normal -0.7518398074789748 0.6593458151000717 -3.0178712122464354e-16
  outer loop
    vertex 30.036866467609382 11.216798872923299 37.000010703186284
    vertex 29.217524156114845 10.282518027233928 1.0703186279154009e-05
    vertex 29.217524156114845 10.282518027233916 37.00001070318628
  endloop
endfacet
facet normal -0.7518398074789748 0.6593458151000717 -3.0178712122464354e-16
  outer loop
    vertex 29.217524156114845 10.282518027233928 1.0703186279154009e-05
    vertex 30.036866467609382 11.216798872923299 37.000010703186284
    vertex 30.036866467609382 11.216798872923253 1.0703186296073807e-05
  endloop
endfacet
facet normal -0.6593458151000636 0.7518398074789822 3.64967245957721e-16
  outer loop
    vertex 28.28324331042549 9.46317571573942 3.7500107031862475
    vertex 29.217524156114845 10.282518027233928 1.0703186279154009e-05
    vertex 28.28324331042549 9.463175715739407 1.0703186278449016e-05
  endloop
endfacet
facet normal -0.6593458151000636 0.7518398074789822 3.64967245957721e-16
  outer loop
    vertex 29.217524156114845 10.282518027233928 1.0703186279154009e-05
    vertex 28.28324331042549 9.46317571573942 3.7500107031862475
    vertex 29.217524156114845 10.282518027233916 37.00001070318628
  endloop
endfacet
facet normal -0.6593458151000636 0.7518398074789822 3.64967245957721e-16
  outer loop
    vertex 29.217524156114845 10.282518027233916 37.00001070318628
    vertex 28.28324331042549 9.46317571573942 3.7500107031862475
    vertex 28.28324331042549 9.463175715739402 33.25001070318627
  endloop
endfacet
facet normal -0.6593458151000636 0.7518398074789822 3.64967245957721e-16
  outer loop
    vertex 29.217524156114845 10.282518027233916 37.00001070318628
    vertex 28.28324331042549 9.463175715739402 33.25001070318627
    vertex 28.28324331042549 9.463175715739386 37.00001070318627
  endloop
endfacet
facet normal -0.5555702330196206 0.8314696123025329 8.051845232009293e-17
  outer loop
    vertex 27.25000973484265 8.772791112553943 3.7500107031862955
    vertex 28.28324331042549 9.463175715739402 33.25001070318627
    vertex 28.28324331042549 9.46317571573942 3.7500107031862475
  endloop
endfacet
facet normal -0.5555702330196206 0.8314696123025329 8.051845232009293e-17
  outer loop
    vertex 28.28324331042549 9.463175715739402 33.25001070318627
    vertex 27.25000973484265 8.772791112553943 3.7500107031862955
    vertex 27.25000973484265 8.772791112553953 33.25001070318628
  endloop
endfacet
facet normal -0.4422886902189779 0.8968727415327 1.717635207279247e-16
  outer loop
    vertex 26.135502342310996 8.223176889648913 33.2500107031863
    vertex 27.25000973484265 8.772791112553943 3.7500107031862955
    vertex 26.135502342310996 8.223176889648936 3.750010703186252
  endloop
endfacet
facet normal -0.4422886902189779 0.8968727415327 1.717635207279247e-16
  outer loop
    vertex 27.25000973484265 8.772791112553943 3.7500107031862955
    vertex 26.135502342310996 8.223176889648913 33.2500107031863
    vertex 27.25000973484265 8.772791112553953 33.25001070318628
  endloop
endfacet
facet normal -0.32143946530317524 0.946930129495101 5.433064741893028e-16
  outer loop
    vertex 24.9587906633166 7.82373709875999 3.750010703186273
    vertex 26.135502342310996 8.223176889648913 33.2500107031863
    vertex 26.135502342310996 8.223176889648936 3.750010703186252
  endloop
endfacet
facet normal -0.32143946530317524 0.946930129495101 5.433064741893028e-16
  outer loop
    vertex 26.135502342310996 8.223176889648913 33.2500107031863
    vertex 24.9587906633166 7.82373709875999 3.750010703186273
    vertex 24.9587906633166 7.823737098759978 33.25001070318629
  endloop
endfacet
facet normal -0.19509032201612372 0.9807852804032313 -4.690778046992148e-16
  outer loop
    vertex 23.740008560933145 7.581306265454921 3.7500107031862955
    vertex 24.9587906633166 7.823737098759978 33.25001070318629
    vertex 24.9587906633166 7.82373709875999 3.750010703186273
  endloop
endfacet
facet normal -0.19509032201612372 0.9807852804032313 -4.690778046992148e-16
  outer loop
    vertex 24.9587906633166 7.823737098759978 33.25001070318629
    vertex 23.740008560933145 7.581306265454921 3.7500107031862955
    vertex 23.740008560933145 7.58130626545496 33.25001070318628
  endloop
endfacet
facet normal -0.06540312923012116 0.9978589232386049 -7.63047542057431e-16
  outer loop
    vertex 22.500009734842653 7.500032448506169 33.25001070318626
    vertex 23.740008560933145 7.581306265454921 3.7500107031862955
    vertex 22.500009734842653 7.500032448506164 3.7500107031862604
  endloop
endfacet
facet normal -0.06540312923012116 0.9978589232386049 -7.63047542057431e-16
  outer loop
    vertex 23.740008560933145 7.581306265454921 3.7500107031862955
    vertex 22.500009734842653 7.500032448506169 33.25001070318626
    vertex 23.740008560933145 7.58130626545496 33.25001070318628
  endloop
endfacet
facet normal 0.06540312923012327 0.9978589232386049 -6.676834947783111e-16
  outer loop
    vertex 21.260010908752157 7.581306265454926 3.7500107031862955
    vertex 22.500009734842653 7.500032448506169 33.25001070318626
    vertex 22.500009734842653 7.500032448506164 3.7500107031862604
  endloop
endfacet
facet normal 0.06540312923012327 0.9978589232386049 -6.676834947783111e-16
  outer loop
    vertex 22.500009734842653 7.500032448506169 33.25001070318626
    vertex 21.260010908752157 7.581306265454926 3.7500107031862955
    vertex 21.260010908752157 7.58130626545496 33.25001070318628
  endloop
endfacet
facet normal 0.19509032201612156 0.9807852804032318 -3.7510896394867174e-16
  outer loop
    vertex 20.041228806368704 7.823737098759978 33.25001070318629
    vertex 21.260010908752157 7.581306265454926 3.7500107031862955
    vertex 20.041228806368704 7.82373709875999 3.750010703186273
  endloop
endfacet
facet normal 0.19509032201612156 0.9807852804032318 -3.7510896394867174e-16
  outer loop
    vertex 21.260010908752157 7.581306265454926 3.7500107031862955
    vertex 20.041228806368704 7.823737098759978 33.25001070318629
    vertex 21.260010908752157 7.58130626545496 33.25001070318628
  endloop
endfacet
facet normal 0.32143946530317924 0.9469301294950997 6.342495323271062e-16
  outer loop
    vertex 18.8645171273743 8.223176889648919 33.2500107031863
    vertex 20.041228806368704 7.82373709875999 3.750010703186273
    vertex 18.8645171273743 8.223176889648947 3.7500107031862604
  endloop
endfacet
facet normal 0.32143946530317924 0.9469301294950997 6.342495323271062e-16
  outer loop
    vertex 20.041228806368704 7.82373709875999 3.750010703186273
    vertex 18.8645171273743 8.223176889648919 33.2500107031863
    vertex 20.041228806368704 7.823737098759978 33.25001070318629
  endloop
endfacet
facet normal 0.4422886902189815 0.8968727415326982 4.284214188877107e-16
  outer loop
    vertex 17.75000973484265 8.77279111255396 3.7500107031862897
    vertex 18.8645171273743 8.223176889648919 33.2500107031863
    vertex 18.8645171273743 8.223176889648947 3.7500107031862604
  endloop
endfacet
facet normal 0.4422886902189815 0.8968727415326982 4.284214188877107e-16
  outer loop
    vertex 18.8645171273743 8.223176889648919 33.2500107031863
    vertex 17.75000973484265 8.77279111255396 3.7500107031862897
    vertex 17.75000973484265 8.77279111255396 33.25001070318629
  endloop
endfacet
facet normal 0.5555702330196185 0.8314696123025345 3.977266794622464e-16
  outer loop
    vertex 16.716776159259805 9.463175715739407 33.250010703186284
    vertex 17.75000973484265 8.77279111255396 3.7500107031862897
    vertex 16.716776159259805 9.463175715739435 3.750010703186222
  endloop
endfacet
facet normal 0.5555702330196185 0.8314696123025345 3.977266794622464e-16
  outer loop
    vertex 17.75000973484265 8.77279111255396 3.7500107031862897
    vertex 16.716776159259805 9.463175715739407 33.250010703186284
    vertex 17.75000973484265 8.77279111255396 33.25001070318629
  endloop
endfacet
facet normal 0.659345815100063 0.7518398074789827 2.5997407746748233e-16
  outer loop
    vertex 15.782495313570452 10.282518027233934 1.0703186287966404e-05
    vertex 16.716776159259805 9.463175715739435 3.750010703186222
    vertex 16.716776159259805 9.463175715739407 1.070318628408895e-05
  endloop
endfacet
facet normal 0.659345815100063 0.7518398074789827 2.5997407746748233e-16
  outer loop
    vertex 16.716776159259805 9.463175715739435 3.750010703186222
    vertex 15.782495313570452 10.282518027233934 1.0703186287966404e-05
    vertex 15.782495313570452 10.282518027233928 37.00001070318628
  endloop
endfacet
facet normal 0.659345815100063 0.7518398074789827 2.5997407746748233e-16
  outer loop
    vertex 16.716776159259805 9.463175715739435 3.750010703186222
    vertex 15.782495313570452 10.282518027233928 37.00001070318628
    vertex 16.716776159259805 9.463175715739407 33.250010703186284
  endloop
endfacet
facet normal 0.659345815100063 0.7518398074789827 2.5997407746748233e-16
  outer loop
    vertex 16.716776159259805 9.463175715739407 33.250010703186284
    vertex 15.782495313570452 10.282518027233928 37.00001070318628
    vertex 16.716776159259805 9.463175715739402 37.000010703186284
  endloop
endfacet
facet normal 0.7518398074789819 0.6593458151000637 -4.982670200268468e-17
  outer loop
    vertex 15.782495313570452 10.282518027233934 1.0703186287966404e-05
    vertex 14.96315300207592 11.216798872923304 37.000010703186284
    vertex 15.782495313570452 10.282518027233928 37.00001070318628
  endloop
endfacet
facet normal 0.7518398074789819 0.6593458151000637 -4.982670200268468e-17
  outer loop
    vertex 14.96315300207592 11.216798872923304 37.000010703186284
    vertex 15.782495313570452 10.282518027233934 1.0703186287966404e-05
    vertex 14.96315300207592 11.216798872923292 1.0703186292901345e-05
  endloop
endfacet
facet normal 0.8314696123025397 0.5555702330196105 8.448465862964287e-17
  outer loop
    vertex 14.272768398890484 12.250032448506138 1.0703186302771227e-05
    vertex 14.96315300207592 11.216798872923304 37.000010703186284
    vertex 14.96315300207592 11.216798872923292 1.0703186292901345e-05
  endloop
endfacet
facet normal 0.8314696123025397 0.5555702330196105 8.448465862964287e-17
  outer loop
    vertex 14.96315300207592 11.216798872923304 37.000010703186284
    vertex 14.272768398890484 12.250032448506138 1.0703186302771227e-05
    vertex 14.272768398890484 12.250032448506115 37.000010703186256
  endloop
endfacet
facet normal 0.8968727415326934 0.4422886902189912 2.690228923678444e-16
  outer loop
    vertex 14.272768398890484 12.250032448506138 1.0703186302771227e-05
    vertex 13.723154175985432 13.364539841037784 37.000010703186284
    vertex 14.272768398890484 12.250032448506115 37.000010703186256
  endloop
endfacet
facet normal 0.8968727415326934 0.4422886902189912 2.690228923678444e-16
  outer loop
    vertex 13.723154175985432 13.364539841037784 37.000010703186284
    vertex 14.272768398890484 12.250032448506138 1.0703186302771227e-05
    vertex 13.723154175985432 13.364539841037807 1.0703186280916488e-05
  endloop
endfacet
facet normal 0.9469301294951058 0.3214394653031611 -1.9554091205975031e-16
  outer loop
    vertex 13.723154175985432 13.364539841037807 1.0703186280916488e-05
    vertex 13.323714385096508 14.541251520032235 37.00001070318633
    vertex 13.723154175985432 13.364539841037784 37.000010703186284
  endloop
endfacet
facet normal 0.9469301294951058 0.3214394653031611 -1.9554091205975031e-16
  outer loop
    vertex 13.323714385096508 14.541251520032235 37.00001070318633
    vertex 13.723154175985432 13.364539841037807 1.0703186280916488e-05
    vertex 13.323714385096508 14.541251520032167 1.0703186299951261e-05
  endloop
endfacet
facet normal 0.9807852804032298 0.19509032201613158 -1.936001428164593e-16
  outer loop
    vertex 13.081283551791456 15.760033622415644 1.0703186292196353e-05
    vertex 13.323714385096508 14.541251520032235 37.00001070318633
    vertex 13.323714385096508 14.541251520032167 1.0703186299951261e-05
  endloop
endfacet
facet normal 0.9807852804032298 0.19509032201613158 -1.936001428164593e-16
  outer loop
    vertex 13.323714385096508 14.541251520032235 37.00001070318633
    vertex 13.081283551791456 15.760033622415644 1.0703186292196353e-05
    vertex 13.081283551791456 15.760033622415651 37.00001070318629
  endloop
endfacet
facet normal 0.9978589232386038 0.06540312923013879 -2.0069155435849884e-17
  outer loop
    vertex 13.00000973484266 17.00003244850614 1.0703186259766739e-05
    vertex 13.081283551791456 15.760033622415651 37.00001070318629
    vertex 13.081283551791456 15.760033622415644 1.0703186292196353e-05
  endloop
endfacet
facet normal 0.9978589232386038 0.06540312923013879 -2.0069155435849884e-17
  outer loop
    vertex 13.081283551791456 15.760033622415651 37.00001070318629
    vertex 13.00000973484266 17.00003244850614 1.0703186259766739e-05
    vertex 13.00000973484266 17.000032448506158 37.000010703186305
  endloop
endfacet
facet normal -4.338409973150612e-16 1.0 -3.0486124135652927e-16
  outer loop
    vertex 32.00000973484265 17.000032448506122 37.000010703186305
    vertex 45.00000973484265 17.000032448506115 1.0703186273866571e-05
    vertex 32.00000973484265 17.000032448506115 1.0703186273866571e-05
  endloop
endfacet
facet normal -4.338409973150612e-16 1.0 -3.0486124135652927e-16
  outer loop
    vertex 45.00000973484265 17.000032448506115 1.0703186273866571e-05
    vertex 32.00000973484265 17.000032448506122 37.000010703186305
    vertex 45.00000973484265 17.000032448506133 37.000010703186305
  endloop
endfacet
facet normal -9.296554363853126e-16 1.6976247816151953e-14 1.0
  outer loop
    vertex 17.75000973484265 8.77279111255396 3.7500107031862897
    vertex 28.28324331042549 9.46317571573942 3.7500107031862475
    vertex 16.716776159259805 9.463175715739435 3.750010703186222
  endloop
endfacet
facet normal -9.296554363853126e-16 1.6976247816151953e-14 1.0
  outer loop
    vertex 28.28324331042549 9.46317571573942 3.7500107031862475
    vertex 17.75000973484265 8.77279111255396 3.7500107031862897
    vertex 18.8645171273743 8.223176889648947 3.7500107031862604
  endloop
endfacet
facet normal -9.296554363853126e-16 1.6976247816151953e-14 1.0
  outer loop
    vertex 28.28324331042549 9.46317571573942 3.7500107031862475
    vertex 18.8645171273743 8.223176889648947 3.7500107031862604
    vertex 20.041228806368704 7.82373709875999 3.750010703186273
  endloop
endfacet
facet normal -9.296554363853126e-16 1.6976247816151953e-14 1.0
  outer loop
    vertex 28.28324331042549 9.46317571573942 3.7500107031862475
    vertex 20.041228806368704 7.82373709875999 3.750010703186273
    vertex 21.260010908752157 7.581306265454926 3.7500107031862955
  endloop
endfacet
facet normal -9.296554363853126e-16 1.6976247816151953e-14 1.0
  outer loop
    vertex 28.28324331042549 9.46317571573942 3.7500107031862475
    vertex 21.260010908752157 7.581306265454926 3.7500107031862955
    vertex 22.500009734842653 7.500032448506164 3.7500107031862604
  endloop
endfacet
facet normal -9.296554363853126e-16 1.6976247816151953e-14 1.0
  outer loop
    vertex 28.28324331042549 9.46317571573942 3.7500107031862475
    vertex 22.500009734842653 7.500032448506164 3.7500107031862604
    vertex 23.740008560933145 7.581306265454921 3.7500107031862955
  endloop
endfacet
facet normal -9.296554363853126e-16 1.6976247816151953e-14 1.0
  outer loop
    vertex 28.28324331042549 9.46317571573942 3.7500107031862475
    vertex 23.740008560933145 7.581306265454921 3.7500107031862955
    vertex 24.9587906633166 7.82373709875999 3.750010703186273
  endloop
endfacet
facet normal -9.296554363853126e-16 1.6976247816151953e-14 1.0
  outer loop
    vertex 28.28324331042549 9.46317571573942 3.7500107031862475
    vertex 24.9587906633166 7.82373709875999 3.750010703186273
    vertex 26.135502342310996 8.223176889648936 3.750010703186252
  endloop
endfacet
facet normal -9.296554363853126e-16 1.6976247816151953e-14 1.0
  outer loop
    vertex 28.28324331042549 9.46317571573942 3.7500107031862475
    vertex 26.135502342310996 8.223176889648936 3.750010703186252
    vertex 27.25000973484265 8.772791112553943 3.7500107031862955
  endloop
endfacet
facet normal 7.314160267849068e-16 1.0 -5.263937434089464e-15
  outer loop
    vertex 16.716776159259805 9.463175715739407 1.070318628408895e-05
    vertex 28.28324331042549 9.46317571573942 3.7500107031862475
    vertex 28.28324331042549 9.463175715739407 1.0703186278449016e-05
  endloop
endfacet
facet normal 7.314160267849068e-16 1.0 -5.263937434089464e-15
  outer loop
    vertex 28.28324331042549 9.46317571573942 3.7500107031862475
    vertex 16.716776159259805 9.463175715739407 1.070318628408895e-05
    vertex 16.716776159259805 9.463175715739435 3.750010703186222
  endloop
endfacet
facet normal -7.734415805203908e-16 1.1084024980963418e-16 -1.0
  outer loop
    vertex 28.28324331042549 9.463175715739402 33.25001070318627
    vertex 17.75000973484265 8.77279111255396 33.25001070318629
    vertex 16.716776159259805 9.463175715739407 33.250010703186284
  endloop
endfacet
facet normal -7.734415805203908e-16 1.1084024980963418e-16 -1.0
  outer loop
    vertex 17.75000973484265 8.77279111255396 33.25001070318629
    vertex 28.28324331042549 9.463175715739402 33.25001070318627
    vertex 18.8645171273743 8.223176889648919 33.2500107031863
  endloop
endfacet
facet normal -7.734415805203908e-16 1.1084024980963418e-16 -1.0
  outer loop
    vertex 18.8645171273743 8.223176889648919 33.2500107031863
    vertex 28.28324331042549 9.463175715739402 33.25001070318627
    vertex 20.041228806368704 7.823737098759978 33.25001070318629
  endloop
endfacet
facet normal -7.734415805203908e-16 1.1084024980963418e-16 -1.0
  outer loop
    vertex 20.041228806368704 7.823737098759978 33.25001070318629
    vertex 28.28324331042549 9.463175715739402 33.25001070318627
    vertex 21.260010908752157 7.58130626545496 33.25001070318628
  endloop
endfacet
facet normal -7.734415805203908e-16 1.1084024980963418e-16 -1.0
  outer loop
    vertex 21.260010908752157 7.58130626545496 33.25001070318628
    vertex 28.28324331042549 9.463175715739402 33.25001070318627
    vertex 22.500009734842653 7.500032448506169 33.25001070318626
  endloop
endfacet
facet normal -7.734415805203908e-16 1.1084024980963418e-16 -1.0
  outer loop
    vertex 22.500009734842653 7.500032448506169 33.25001070318626
    vertex 28.28324331042549 9.463175715739402 33.25001070318627
    vertex 23.740008560933145 7.58130626545496 33.25001070318628
  endloop
endfacet
facet normal -7.734415805203908e-16 1.1084024980963418e-16 -1.0
  outer loop
    vertex 23.740008560933145 7.58130626545496 33.25001070318628
    vertex 28.28324331042549 9.463175715739402 33.25001070318627
    vertex 24.9587906633166 7.823737098759978 33.25001070318629
  endloop
endfacet
facet normal -7.734415805203908e-16 1.1084024980963418e-16 -1.0
  outer loop
    vertex 24.9587906633166 7.823737098759978 33.25001070318629
    vertex 28.28324331042549 9.463175715739402 33.25001070318627
    vertex 26.135502342310996 8.223176889648913 33.2500107031863
  endloop
endfacet
facet normal -7.734415805203908e-16 1.1084024980963418e-16 -1.0
  outer loop
    vertex 26.135502342310996 8.223176889648913 33.2500107031863
    vertex 28.28324331042549 9.463175715739402 33.25001070318627
    vertex 27.25000973484265 8.772791112553953 33.25001070318628
  endloop
endfacet
facet normal 9.752213690465394e-16 1.0 3.0079642480510916e-15
  outer loop
    vertex 16.716776159259805 9.463175715739407 33.250010703186284
    vertex 28.28324331042549 9.463175715739386 37.00001070318627
    vertex 28.28324331042549 9.463175715739402 33.25001070318627
  endloop
endfacet
facet normal 9.752213690465394e-16 1.0 3.0079642480510916e-15
  outer loop
    vertex 28.28324331042549 9.463175715739386 37.00001070318627
    vertex 16.716776159259805 9.463175715739407 33.250010703186284
    vertex 16.716776159259805 9.463175715739402 37.000010703186284
  endloop
endfacet
facet normal -1.5479328676990457e-07 -1.6958527706188144e-07 0.9999999999999738
  outer loop
    vertex -3.070407612919745e-17 -7.049916206369744e-15 36.999999999999964
    vertex 16.716776159259805 9.463175715739402 37.000010703186284
    vertex 9.734550792895973e-06 17.000000000003546 36.999999999999986
  endloop
endfacet
facet normal -1.5479328676990457e-07 -1.6958527706188144e-07 0.9999999999999738
  outer loop
    vertex 16.716776159259805 9.463175715739402 37.000010703186284
    vertex -3.070407612919745e-17 -7.049916206369744e-15 36.999999999999964
    vertex 45.00000000029186 3.24485026368615e-05 37.000010703186234
  endloop
endfacet
facet normal -1.5479328676990457e-07 -1.6958527706188144e-07 0.9999999999999738
  outer loop
    vertex 9.734550792895973e-06 17.000000000003546 36.999999999999986
    vertex 16.716776159259805 9.463175715739402 37.000010703186284
    vertex 15.782495313570452 10.282518027233928 37.00001070318628
  endloop
endfacet
facet normal -1.5479328676990457e-07 -1.6958527706188144e-07 0.9999999999999738
  outer loop
    vertex 9.734550792895973e-06 17.000000000003546 36.999999999999986
    vertex 15.782495313570452 10.282518027233928 37.00001070318628
    vertex 14.96315300207592 11.216798872923304 37.000010703186284
  endloop
endfacet
facet normal -1.5479328676990457e-07 -1.6958527706188144e-07 0.9999999999999738
  outer loop
    vertex 9.734550792895973e-06 17.000000000003546 36.999999999999986
    vertex 14.96315300207592 11.216798872923304 37.000010703186284
    vertex 14.272768398890484 12.250032448506115 37.000010703186256
  endloop
endfacet
facet normal -1.5479328676990457e-07 -1.6958527706188144e-07 0.9999999999999738
  outer loop
    vertex 9.734550792895973e-06 17.000000000003546 36.999999999999986
    vertex 14.272768398890484 12.250032448506115 37.000010703186256
    vertex 13.723154175985432 13.364539841037784 37.000010703186284
  endloop
endfacet
facet normal -1.5479328676990457e-07 -1.6958527706188144e-07 0.9999999999999738
  outer loop
    vertex 9.734550792895973e-06 17.000000000003546 36.999999999999986
    vertex 13.723154175985432 13.364539841037784 37.000010703186284
    vertex 13.323714385096508 14.541251520032235 37.00001070318633
  endloop
endfacet
facet normal -1.5479328676990457e-07 -1.6958527706188144e-07 0.9999999999999738
  outer loop
    vertex 9.734550792895973e-06 17.000000000003546 36.999999999999986
    vertex 13.323714385096508 14.541251520032235 37.00001070318633
    vertex 13.081283551791456 15.760033622415651 37.00001070318629
  endloop
endfacet
facet normal -1.5479328676990457e-07 -1.6958527706188144e-07 0.9999999999999738
  outer loop
    vertex 9.734550792895973e-06 17.000000000003546 36.999999999999986
    vertex 13.081283551791456 15.760033622415651 37.00001070318629
    vertex 13.00000973484266 17.000032448506158 37.000010703186305
  endloop
endfacet
facet normal -1.5479328676990457e-07 -1.6958527706188144e-07 0.9999999999999738
  outer loop
    vertex 16.716776159259805 9.463175715739402 37.000010703186284
    vertex 45.00000000029186 3.24485026368615e-05 37.000010703186234
    vertex 28.28324331042549 9.463175715739386 37.00001070318627
  endloop
endfacet
facet normal -1.5479328676990457e-07 -1.6958527706188144e-07 0.9999999999999738
  outer loop
    vertex 28.28324331042549 9.463175715739386 37.00001070318627
    vertex 45.00000000029186 3.24485026368615e-05 37.000010703186234
    vertex 29.217524156114845 10.282518027233916 37.00001070318628
  endloop
endfacet
facet normal -1.5479328676990457e-07 -1.6958527706188144e-07 0.9999999999999738
  outer loop
    vertex 29.217524156114845 10.282518027233916 37.00001070318628
    vertex 45.00000000029186 3.24485026368615e-05 37.000010703186234
    vertex 30.036866467609382 11.216798872923299 37.000010703186284
  endloop
endfacet
facet normal -1.5479328676990457e-07 -1.6958527706188144e-07 0.9999999999999738
  outer loop
    vertex 30.036866467609382 11.216798872923299 37.000010703186284
    vertex 45.00000000029186 3.24485026368615e-05 37.000010703186234
    vertex 30.72725107079481 12.250032448506104 37.00001070318629
  endloop
endfacet
facet normal -1.5479328676990457e-07 -1.6958527706188144e-07 0.9999999999999738
  outer loop
    vertex 30.72725107079481 12.250032448506104 37.00001070318629
    vertex 45.00000000029186 3.24485026368615e-05 37.000010703186234
    vertex 31.276865293699874 13.364539841037761 37.000010703186284
  endloop
endfacet
facet normal -1.5479328676990457e-07 -1.6958527706188144e-07 0.9999999999999738
  outer loop
    vertex 31.276865293699874 13.364539841037761 37.000010703186284
    vertex 45.00000000029186 3.24485026368615e-05 37.000010703186234
    vertex 31.676305084588794 14.541251520032212 37.000010703186334
  endloop
endfacet
facet normal -1.5479328676990457e-07 -1.6958527706188144e-07 0.9999999999999738
  outer loop
    vertex 31.676305084588794 14.541251520032212 37.000010703186334
    vertex 45.00000000029186 3.24485026368615e-05 37.000010703186234
    vertex 31.91873591789385 15.760033622415628 37.00001070318629
  endloop
endfacet
facet normal -1.5479328676990457e-07 -1.6958527706188144e-07 0.9999999999999738
  outer loop
    vertex 31.91873591789385 15.760033622415628 37.00001070318629
    vertex 45.00000000029186 3.24485026368615e-05 37.000010703186234
    vertex 32.00000973484265 17.000032448506122 37.000010703186305
  endloop
endfacet
facet normal -1.5479328676990457e-07 -1.6958527706188144e-07 0.9999999999999738
  outer loop
    vertex 32.00000973484265 17.000032448506122 37.000010703186305
    vertex 45.00000000029186 3.24485026368615e-05 37.000010703186234
    vertex 45.00000973484265 17.000032448506133 37.000010703186305
  endloop
endfacet
facet normal 1.5479328644638e-07 1.6958527332293605e-07 -0.9999999999999738
  outer loop
    vertex -3.070407612919745e-17 0.0 0.0
    vertex 16.716776159259805 9.463175715739407 1.070318628408895e-05
    vertex 45.00000000029186 3.244850264250143e-05 1.0703186288671394e-05
  endloop
endfacet
facet normal 1.5479328644638e-07 1.6958527332293605e-07 -0.9999999999999738
  outer loop
    vertex 16.716776159259805 9.463175715739407 1.070318628408895e-05
    vertex -3.070407612919745e-17 0.0 0.0
    vertex 9.734550797125922e-06 17.000000000003528 3.1724622928663847e-15
  endloop
endfacet
facet normal 1.5479328644638e-07 1.6958527332293605e-07 -0.9999999999999738
  outer loop
    vertex 16.716776159259805 9.463175715739407 1.070318628408895e-05
    vertex 9.734550797125922e-06 17.000000000003528 3.1724622928663847e-15
    vertex 15.782495313570452 10.282518027233934 1.0703186287966404e-05
  endloop
endfacet
facet normal 1.5479328644638e-07 1.6958527332293605e-07 -0.9999999999999738
  outer loop
    vertex 15.782495313570452 10.282518027233934 1.0703186287966404e-05
    vertex 9.734550797125922e-06 17.000000000003528 3.1724622928663847e-15
    vertex 14.96315300207592 11.216798872923292 1.0703186292901345e-05
  endloop
endfacet
facet normal 1.5479328644638e-07 1.6958527332293605e-07 -0.9999999999999738
  outer loop
    vertex 14.96315300207592 11.216798872923292 1.0703186292901345e-05
    vertex 9.734550797125922e-06 17.000000000003528 3.1724622928663847e-15
    vertex 14.272768398890484 12.250032448506138 1.0703186302771227e-05
  endloop
endfacet
facet normal 1.5479328644638e-07 1.6958527332293605e-07 -0.9999999999999738
  outer loop
    vertex 14.272768398890484 12.250032448506138 1.0703186302771227e-05
    vertex 9.734550797125922e-06 17.000000000003528 3.1724622928663847e-15
    vertex 13.723154175985432 13.364539841037807 1.0703186280916488e-05
  endloop
endfacet
facet normal 1.5479328644638e-07 1.6958527332293605e-07 -0.9999999999999738
  outer loop
    vertex 13.723154175985432 13.364539841037807 1.0703186280916488e-05
    vertex 9.734550797125922e-06 17.000000000003528 3.1724622928663847e-15
    vertex 13.323714385096508 14.541251520032167 1.0703186299951261e-05
  endloop
endfacet
facet normal 1.5479328644638e-07 1.6958527332293605e-07 -0.9999999999999738
  outer loop
    vertex 13.323714385096508 14.541251520032167 1.0703186299951261e-05
    vertex 9.734550797125922e-06 17.000000000003528 3.1724622928663847e-15
    vertex 13.081283551791456 15.760033622415644 1.0703186292196353e-05
  endloop
endfacet
facet normal 1.5479328644638e-07 1.6958527332293605e-07 -0.9999999999999738
  outer loop
    vertex 13.081283551791456 15.760033622415644 1.0703186292196353e-05
    vertex 9.734550797125922e-06 17.000000000003528 3.1724622928663847e-15
    vertex 13.00000973484266 17.00003244850614 1.0703186259766739e-05
  endloop
endfacet
facet normal 1.5479328644638e-07 1.6958527332293605e-07 -0.9999999999999738
  outer loop
    vertex 45.00000000029186 3.244850264250143e-05 1.0703186288671394e-05
    vertex 16.716776159259805 9.463175715739407 1.070318628408895e-05
    vertex 28.28324331042549 9.463175715739407 1.0703186278449016e-05
  endloop
endfacet
facet normal 1.5479328644638e-07 1.6958527332293605e-07 -0.9999999999999738
  outer loop
    vertex 45.00000000029186 3.244850264250143e-05 1.0703186288671394e-05
    vertex 28.28324331042549 9.463175715739407 1.0703186278449016e-05
    vertex 29.217524156114845 10.282518027233928 1.0703186279154009e-05
  endloop
endfacet
facet normal 1.5479328644638e-07 1.6958527332293605e-07 -0.9999999999999738
  outer loop
    vertex 45.00000000029186 3.244850264250143e-05 1.0703186288671394e-05
    vertex 29.217524156114845 10.282518027233928 1.0703186279154009e-05
    vertex 30.036866467609382 11.216798872923253 1.0703186296073807e-05
  endloop
endfacet
facet normal 1.5479328644638e-07 1.6958527332293605e-07 -0.9999999999999738
  outer loop
    vertex 45.00000000029186 3.244850264250143e-05 1.0703186288671394e-05
    vertex 30.036866467609382 11.216798872923253 1.0703186296073807e-05
    vertex 30.72725107079481 12.250032448506133 1.0703186285146436e-05
  endloop
endfacet
facet normal 1.5479328644638e-07 1.6958527332293605e-07 -0.9999999999999738
  outer loop
    vertex 45.00000000029186 3.244850264250143e-05 1.0703186288671394e-05
    vertex 30.72725107079481 12.250032448506133 1.0703186285146436e-05
    vertex 31.276865293699874 13.364539841037784 1.070318629748379e-05
  endloop
endfacet
facet normal 1.5479328644638e-07 1.6958527332293605e-07 -0.9999999999999738
  outer loop
    vertex 45.00000000029186 3.244850264250143e-05 1.0703186288671394e-05
    vertex 31.276865293699874 13.364539841037784 1.070318629748379e-05
    vertex 31.676305084588794 14.541251520032167 1.0703186283736453e-05
  endloop
endfacet
facet normal 1.5479328644638e-07 1.6958527332293605e-07 -0.9999999999999738
  outer loop
    vertex 45.00000000029186 3.244850264250143e-05 1.0703186288671394e-05
    vertex 31.676305084588794 14.541251520032167 1.0703186283736453e-05
    vertex 31.91873591789385 15.76003362241561 1.0703186297131295e-05
  endloop
endfacet
facet normal 1.5479328644638e-07 1.6958527332293605e-07 -0.9999999999999738
  outer loop
    vertex 45.00000000029186 3.244850264250143e-05 1.0703186288671394e-05
    vertex 31.91873591789385 15.76003362241561 1.0703186297131295e-05
    vertex 32.00000973484265 17.000032448506115 1.0703186273866571e-05
  endloop
endfacet
facet normal 1.5479328644638e-07 1.6958527332293605e-07 -0.9999999999999738
  outer loop
    vertex 45.00000000029186 3.244850264250143e-05 1.0703186288671394e-05
    vertex 32.00000973484265 17.000032448506115 1.0703186273866571e-05
    vertex 45.00000973484265 17.000032448506115 1.0703186273866571e-05
  endloop
endfacet
facet normal 7.210778365108342e-07 -0.99999999999974 -1.7148446191559477e-16
  outer loop
    vertex 45.00000000029186 3.244850264250143e-05 1.0703186288671394e-05
    vertex -3.070407612919745e-17 -7.049916206369744e-15 36.999999999999964
    vertex -3.070407612919745e-17 0.0 0.0
  endloop
endfacet
facet normal 7.210778365108342e-07 -0.99999999999974 -1.7148446191559477e-16
  outer loop
    vertex -3.070407612919745e-17 -7.049916206369744e-15 36.999999999999964
    vertex 45.00000000029186 3.244850264250143e-05 1.0703186288671394e-05
    vertex 45.00000000029186 3.24485026368615e-05 37.000010703186234
  endloop
endfacet
facet normal -2.4960386623578623e-06 0.9999999999968849 -4.572920253029645e-16
  outer loop
    vertex 9.734550792895973e-06 17.000000000003546 36.999999999999986
    vertex 13.00000973484266 17.00003244850614 1.0703186259766739e-05
    vertex 9.734550797125922e-06 17.000000000003528 3.1724622928663847e-15
  endloop
endfacet
facet normal -2.4960386623578623e-06 0.9999999999968849 -4.572920253029645e-16
  outer loop
    vertex 13.00000973484266 17.00003244850614 1.0703186259766739e-05
    vertex 9.734550792895973e-06 17.000000000003546 36.999999999999986
    vertex 13.00000973484266 17.000032448506158 37.000010703186305
  endloop
endfacet
facet normal -0.9999999999998361 5.726206350022369e-07 -5.716155414756281e-17
  outer loop
    vertex 9.734550792895973e-06 17.000000000003546 36.999999999999986
    vertex -3.070407612919745e-17 0.0 0.0
    vertex -3.070407612919745e-17 -7.049916206369744e-15 36.999999999999964
  endloop
endfacet
facet normal -0.9999999999998361 5.726206350022369e-07 -5.716155414756281e-17
  outer loop
    vertex -3.070407612919745e-17 0.0 0.0
    vertex 9.734550792895973e-06 17.000000000003546 36.999999999999986
    vertex 9.734550797125922e-06 17.000000000003528 3.1724622928663847e-15
  endloop
endfacet
endsolid z-sled_v2
